<?xml version="1.0" encoding="utf-8"?>
<!-- Generator: Adobe Illustrator 22.0.1, SVG Export Plug-In . SVG Version: 6.00 Build 0)  -->
<svg version="1.1" id="agricole" xmlns="http://www.w3.org/2000/svg" xmlns:xlink="http://www.w3.org/1999/xlink" x="0px" y="0px"
	 viewBox="0 0 70.2 71" style="enable-background:new 0 0 70.2 71;" xml:space="preserve">
<style type="text/css">
	.st0{fill:#808285;}
</style>
<title>1-Agricole</title>
<g>
	<path class="st0" d="M4.3,12l-1.1-1.9C2.7,9.3,1.8,8.7,0.8,8.7l0-2.5c1.3,0,2.6,0.5,3.5,1.4c1-0.8,2.2-1.3,3.5-1.4l0,2.5
		c-1,0-2,0.6-2.5,1.4L4.3,12z"/>
</g>
<g>
	<path class="st0" d="M10.3,18.3l-1.1-1.8C8.7,15.6,7.8,15,6.7,15l0-2.5c1.3,0,2.6,0.5,3.5,1.4c1-0.8,2.2-1.3,3.5-1.4l0,2.5
		c-1,0-1.9,0.6-2.5,1.4L10.3,18.3z"/>
</g>
<g>
	<path class="st0" d="M34.4,55.8h-2.5v-3.3h-4.3v-5.5L23,44.2v-2h2.5v0.5l4.6,2.7V50h4.3V55.8z M40.2,52.5h-5.8V50h3.2v-4.5l4.5-2.7
		v-0.5h2.5v2l-4.5,2.7V52.5z M46.8,42.1h-4.6v-1.5H25.5v1.5h-4.6v-2.5H23v-1.5h7.7c-0.5-0.6-0.9-1.3-1.1-2l2.4-0.6
		c0.2,0.7,0.7,1.3,1.4,1.5l0.3,0.1l0.3-0.1c0.7-0.2,1.3-0.7,1.4-1.5l2.4,0.6c-0.2,0.8-0.6,1.5-1.1,2h7.7v1.5h2.1V42.1z M40.5,34.8
		h-4.4l-2.4-3.2l-2.3,3.2h-4.3v-2.5h3l3.6-5l3.6,5h3.1V34.8z"/>
</g>
<g>
	<path class="st0" d="M57.1,20.8c-3.4,0-6.3-2.7-6.5-6.1c0-0.2,0-0.5,0-0.7c-0.1-3.7,2.8-6.7,6.5-6.8l0,0l0,0
		c3.7,0.1,6.6,3.2,6.5,6.8c0.1,1.7-0.5,3.4-1.6,4.7c-1.2,1.3-2.8,2.1-4.5,2.2C57.4,20.8,57.2,20.8,57.1,20.8z M57.1,9.6
		c-2.3,0.1-4.1,2-4,4.3l0,0.1l0,0.1c0,0.2,0,0.3,0,0.5c0.1,2.2,2.1,3.9,4.3,3.8c1.1-0.1,2.1-0.5,2.8-1.4s1.1-1.8,1-2.9l0-0.1l0-0.1
		C61.2,11.6,59.4,9.6,57.1,9.6z"/>
</g>
<g>
	<rect x="55.9" class="st0" width="2.5" height="3.9"/>
</g>
<g>
	<rect x="48" y="3.5" transform="matrix(0.7292 -0.6843 0.6843 0.7292 9.6312 35.1356)" class="st0" width="2.5" height="3.8"/>
</g>
<g>
	<rect x="44" y="12.6" class="st0" width="3.7" height="2.5"/>
</g>
<g>
	<rect x="47.2" y="21" transform="matrix(0.6861 -0.7275 0.7275 0.6861 -0.8027 42.6998)" class="st0" width="3.8" height="2.5"/>
</g>
<g>
	<rect x="55.8" y="23.9" class="st0" width="2.5" height="3.9"/>
</g>
<g>
	<rect x="63.7" y="20.5" transform="matrix(0.7277 -0.6859 0.6859 0.7277 2.326 50.6787)" class="st0" width="2.5" height="3.8"/>
</g>
<g>
	<rect x="66.5" y="12.7" class="st0" width="3.7" height="2.5"/>
</g>
<g>
	<rect x="63.2" y="4.3" transform="matrix(0.6861 -0.7275 0.7275 0.6861 16.4151 49.1041)" class="st0" width="3.8" height="2.5"/>
</g>
<g>
	<path class="st0" d="M11.9,70.8C8.2,69.2,4.2,68,0.2,67.3l0.5-2.5c4.2,0.8,8.3,2,12.3,3.7L11.9,70.8z"/>
</g>
<g>
	<path class="st0" d="M22.4,71C15.5,66.8,8,64.1,0,62.8l0.4-2.5c8.3,1.3,16.1,4.2,23.3,8.5L22.4,71z"/>
</g>
<g>
	<path class="st0" d="M31.4,70.8c-9-6.8-19.7-11.2-30.9-12.8l0.3-2.5c11.6,1.6,22.7,6.2,32.1,13.2L31.4,70.8z"/>
</g>
<g>
	<path class="st0" d="M40.3,70.9C30.1,61.5,15.9,55.3,0.5,53.2l0.3-2.5C16.7,52.9,31.4,59.4,42,69L40.3,70.9z"/>
</g>
<g>
	<path class="st0" d="M47.8,70.7c-11.6-12-28.4-20-47.3-22.3L0.8,46c19.5,2.4,36.9,10.6,48.8,23L47.8,70.7z"/>
</g>
<g>
	<path class="st0" d="M52.9,68.8l-1.1-2.3c5.6-2.6,11.6-4.5,17.7-5.5l0.4,2.5C64.1,64.5,58.3,66.3,52.9,68.8z"/>
</g>
<g>
	<path class="st0" d="M50.2,64.6l-1.1-2.3c6.4-3,13.1-5,20.1-6l0.4,2.5C62.9,59.8,56.3,61.8,50.2,64.6z"/>
</g>
<g>
	<path class="st0" d="M44.9,61.4l-1.1-2.2c8-3.9,16.5-6.5,25.4-7.7l0.3,2.5C61,55.1,52.7,57.6,44.9,61.4z"/>
</g>
<g>
	<path class="st0" d="M40.1,58.2L38.9,56c9.5-4.9,19.7-8.1,30.3-9.3l0.3,2.5C59.2,50.4,49.3,53.4,40.1,58.2z"/>
</g>
</svg>
