<svg id="AutomneGris" xmlns="http://www.w3.org/2000/svg" viewBox="0 0 66.52 75"><defs><style>.cls-1{fill:#828285;}</style></defs><title>3-Automne</title><path class="cls-1" d="M74.11,42.12,70.17,42a11.36,11.36,0,0,1-3.62-.7c.15-1.45,2.11-6,4-9.76l1.31-2.55-2.79.66a45.62,45.62,0,0,1-7.38,1.21l-.39,0a29.74,29.74,0,0,1-1.46-5.66l-.4-2.21-7.63,6.21L53.9,13l-2.44,1.7C49.9,15.82,47.18,17.4,46,17.55c-1-1-2.71-5.94-3.83-10.22l-1.27-4.9-1.28,4.9c-1.11,4.29-2.87,9.27-3.82,10.23-1.09-.13-3.65-1.53-5.52-2.82L27.79,13l2.07,16.09-7.63-6.21-.39,2.21a31.2,31.2,0,0,1-1.45,5.66l-.4,0a45.62,45.62,0,0,1-7.38-1.21l-2.79-.66,1.31,2.55c1.91,3.72,3.87,8.3,4,9.76a11.08,11.08,0,0,1-3.63.7l-3.93.18,3.24,2.23c6.67,4.58,13.94,9.87,15.48,11.42a13.76,13.76,0,0,1-2,2.73l-3,3.25,18.33-4.58c.59,9.9,6.23,20.25,14.15,20.25V74.79c-6.21,0-10.94-9-11.51-17.58l18.23,4.56-3-3.26a14,14,0,0,1-2-2.73c1.54-1.55,8.81-6.84,15.47-11.42ZM52.66,55.45a3.76,3.76,0,0,0,.52,1.78L43,54.69l9.85-8.49-1-1.2L41.64,53.78V31.71H40.06V53.78L29.85,45l-1,1.2,9.87,8.49L28.51,57.23A3.67,3.67,0,0,0,29,55.45c0-.69-.08-1.71-14-11.38a5.62,5.62,0,0,0,2.07-1c.61-.51,1.82-1.54-2.43-10.33a31.65,31.65,0,0,0,5.29.69,2.94,2.94,0,0,0,2.2-.67c.74-.77,1.37-3,1.82-5l9.31,7.59L31.14,18.42c1.61.92,3.63,1.86,5,1.78.62,0,2.32-.15,4.76-7.76,2.44,7.61,4.14,7.72,4.75,7.76h.2a11.62,11.62,0,0,0,4.75-1.77L48.37,35.35l9.32-7.59c.44,2,1.07,4.24,1.81,5a3,3,0,0,0,2.21.67A31.54,31.54,0,0,0,67,32.75c-4.25,8.8-3,9.82-2.43,10.33a5.59,5.59,0,0,0,2.08,1C52.74,53.74,52.69,54.76,52.66,55.45Z" transform="translate(-7.59 -2.43)"/></svg>