<?xml version="1.0" encoding="utf-8"?>
<!-- Generator: Adobe Illustrator 22.0.1, SVG Export Plug-In . SVG Version: 6.00 Build 0)  -->
<svg version="1.1" id="champignons" xmlns="http://www.w3.org/2000/svg" xmlns:xlink="http://www.w3.org/1999/xlink" x="0px"
	 y="0px" viewBox="0 0 78 78" style="enable-background:new 0 0 78 78;" xml:space="preserve">
<style type="text/css">
	.st0{fill:#808184;}
</style>
<title>2-Champignons</title>
<g>
	<path class="st0" d="M39.4,78c-6.7,0-12-3.8-12-8.6c0-1.4,1.4-10.7,3.6-25.3l0.5-3.4c0.3-1.9,0.5-3.3,0.7-4.5H4.3
		c-2.2,0.2-4.1-1.5-4.3-3.6c0-0.1,0-0.1,0-0.2v-0.7C0,14.2,17.1,0,38.1,0h1.8C60.9,0,78,14.2,78,31.6v0.7c0,0.1,0,0.1,0,0.2
		c-0.2,2.2-2.2,3.8-4.3,3.6h-27c0.3,1.7,0.6,4.1,1.1,7.6c0,0.1,0.1,0.2,0.1,0.3l0.2,1.4c1.8,12.2,3.4,22.5,3.4,23.9
		C51.5,74.2,46.2,78,39.4,78z M35.2,36.2c-0.2,1.2-0.4,2.8-0.7,4.9l-0.5,3.4c-1.1,7-3.6,23.4-3.6,24.9c0,3.1,4.1,5.6,9,5.6
		c4.9,0,9.1-2.6,9.1-5.6c0-1.3-2.2-15.7-3.3-23.5L45,44.8c0-0.1-0.1-0.2-0.1-0.3c-0.6-3.9-1-6.6-1.3-8.3H35.2z M3,32.3
		c0.1,0.6,0.6,1,1.2,0.9c0,0,0.1,0,0.1,0h29c0.2-0.1,0.4-0.1,0.6-0.1h11c0.2,0,0.4,0,0.6,0.1h28.2c0,0,0.1,0,0.1,0
		c0.6,0.1,1.1-0.4,1.2-0.9v-0.6C75,15.8,59.2,3,39.9,3h-1.8C18.7,3,3,15.8,3,31.6V32.3z M76.5,32.4L76.5,32.4L76.5,32.4z"/>
</g>
</svg>
