<?xml version="1.0" encoding="utf-8"?>
<!-- Generator: Adobe Illustrator 22.0.1, SVG Export Plug-In . SVG Version: 6.00 Build 0)  -->
<svg version="1.1" id="Calque_1" xmlns="http://www.w3.org/2000/svg" xmlns:xlink="http://www.w3.org/1999/xlink" x="0px" y="0px"
	 viewBox="0 0 78.2 78.2" style="enable-background:new 0 0 78.2 78.2;" xml:space="preserve">
<style type="text/css">
	.st0{fill:none;stroke:#808285;stroke-width:2.5;stroke-miterlimit:10;}
	.st1{fill:#808285;}
</style>
<title>IconeCible</title>
<g>
	<path class="st0" d="M11.5,24.1"/>
</g>
<g>
	
		<rect x="23.5" y="24.5" transform="matrix(0.7071 -0.7071 0.7071 0.7071 -2.8753 44.5882)" class="st1" width="57.9" height="2.5"/>
</g>
<g>
	<polygon class="st1" points="58.8,20.6 56.2,20.6 56.2,8.2 64.5,0 70.4,8 68.4,9.5 64.2,3.8 58.8,9.2 	"/>
</g>
<g>
	<polygon class="st1" points="69.9,21.9 57.5,21.9 57.5,19.4 68.9,19.4 74.3,14 68.7,9.7 70.2,7.7 78.2,13.7 	"/>
</g>
<g>
	<path class="st1" d="M32,69.6c-7.3,0-14.5-3.4-19.1-9.8c-3.6-5.1-5.1-11.3-4-17.5c1-6.2,4.4-11.6,9.5-15.2
		c8.2-5.8,19.1-5.8,27.3,0.1l-1.5,2c-7.3-5.2-17.1-5.2-24.4,0c-4.5,3.2-7.6,8.1-8.5,13.6c-0.9,5.5,0.4,11,3.6,15.6
		c6.7,9.4,19.8,11.6,29.2,4.9c9.4-6.7,11.6-19.8,4.9-29.2l2-1.5c7.5,10.5,5,25.2-5.5,32.7C41.4,68.2,36.7,69.6,32,69.6z"/>
</g>
<g>
	<path class="st1" d="M32,59.3c-1.4,0-2.7-0.2-4.1-0.6c-3.3-1.1-6.1-3.4-7.6-6.5s-1.9-6.7-0.8-10c1.1-3.3,3.4-6.1,6.5-7.6
		c3.8-1.9,8.3-1.9,12.1,0.1l-1.2,2.2c-3.1-1.6-6.7-1.6-9.8-0.1c-2.5,1.3-4.4,3.5-5.3,6.2s-0.7,5.6,0.6,8.1s3.5,4.4,6.2,5.3
		c2.7,0.9,5.6,0.6,8.1-0.6c2.5-1.3,4.4-3.5,5.3-6.2s0.7-5.6-0.6-8.1l2.2-1.1c1.6,3.1,1.9,6.7,0.8,10s-3.4,6.1-6.5,7.6
		C36,58.8,34,59.3,32,59.3z"/>
</g>
<g>
	<path class="st1" d="M31.9,78.1c-7.2,0-14.1-2.4-19.9-7C5.4,65.8,1.2,58.3,0.2,49.8S1.7,33,7,26.3c5.3-6.7,12.9-10.9,21.4-11.8
		l0.1,0l7,0c5.9,0.7,11.6,3,16.2,6.7l-1.6,2c-4.3-3.4-9.4-5.5-14.9-6.1h-6.7c-7.8,0.9-14.8,4.8-19.6,10.9C4,34,1.8,41.7,2.7,49.5
		c0.9,7.8,4.7,14.8,10.9,19.7c6.1,4.9,13.8,7.1,21.6,6.2c16.1-1.8,27.8-16.4,26-32.5c-0.6-5.4-2.7-10.6-6.1-14.9l2-1.5
		c3.7,4.7,6,10.3,6.6,16.2C65.6,60.1,53,76,35.5,77.9C34.3,78.1,33.1,78.1,31.9,78.1z"/>
</g>
</svg>
