<svg id="DispoGris" xmlns="http://www.w3.org/2000/svg" viewBox="0 0 64.89 75"><defs><style>.cls-1{fill:#858582;}</style></defs><title>4-Disponibilite</title><path class="cls-1" d="M40.74,16.35A28.64,28.64,0,1,0,69.38,45,28.66,28.66,0,0,0,40.74,16.35Zm19.73,47L58.18,61A.84.84,0,0,0,57,61h0a.84.84,0,0,0,0,1.19l2.3,2.31a26.85,26.85,0,0,1-17.7,7.4V68.59a.85.85,0,0,0-1.69,0v3.33a26.83,26.83,0,0,1-17.7-7.4l2.3-2.31a.84.84,0,0,0,0-1.19h0a.84.84,0,0,0-1.19,0L21,63.32a26.86,26.86,0,0,1-7.21-17.7h3.13a.84.84,0,1,0,0-1.68H13.81a26.85,26.85,0,0,1,7.4-17.5l2.1,2.1a.84.84,0,1,0,1.19-1.19l-2.09-2.1a26.79,26.79,0,0,1,17.49-7.2V21a.85.85,0,0,0,.84.84h0a.85.85,0,0,0,.85-.84V18.05a26.79,26.79,0,0,1,17.49,7.2L57,27.35a.84.84,0,0,0,1.19,1.19l2.1-2.1a26.84,26.84,0,0,1,7.39,17.5H64.56a.84.84,0,1,0,0,1.68h3.13A26.82,26.82,0,0,1,60.47,63.32Z" transform="translate(-8.3 -2.43)"/><path class="cls-1" d="M65.08,23.53a31.79,31.79,0,0,0-3.37-3.3l3-4.51,1.4.94a.84.84,0,0,0,1.17-.23.85.85,0,0,0-.23-1.17l-1.41-.94h0L62,11.85,58.66,9.64a.84.84,0,0,0-.94,1.4l1.4.94-3,4.45a32.41,32.41,0,0,0-10.35-3.5V7.48h2.53a2.53,2.53,0,1,0,0-5.05H33.16a2.53,2.53,0,1,0,0,5.05h2.53v5.45a32.33,32.33,0,0,0-10.35,3.5l-3-4.45,1.4-.94a.84.84,0,1,0-.93-1.4l-3.31,2.21-3.7,2.47h0l-1.4.94a.84.84,0,1,0,.94,1.4l1.4-.94,3,4.51a31.7,31.7,0,0,0-3.36,3.3,32.45,32.45,0,1,0,48.67,0ZM60.52,12.91l2.81,1.88L60.4,19.17a32.64,32.64,0,0,0-2.79-1.9ZM33.16,5.8a.85.85,0,0,1,0-1.69H48.33a.85.85,0,0,1,0,1.69H33.16Zm-15,9L21,12.91l2.91,4.36a32.49,32.49,0,0,0-2.78,1.9Zm22.58,61a30.76,30.76,0,0,1-4.1-61.24l.73-.1V7.48h6.74V14.4l.74.1a30.76,30.76,0,0,1-4.11,61.24Z" transform="translate(-8.3 -2.43)"/><path class="cls-1" d="M41.59,40.43V27.71a.85.85,0,0,0-1.69,0V40.43a4.64,4.64,0,1,0,1.69,0Zm-.85,7.5a2.95,2.95,0,1,1,2.95-3A3,3,0,0,1,40.74,47.93Z" transform="translate(-8.3 -2.43)"/></svg>