<?xml version="1.0" encoding="utf-8"?>
<!-- Generator: Adobe Illustrator 22.0.1, SVG Export Plug-In . SVG Version: 6.00 Build 0)  -->
<svg version="1.1" id="ecole" xmlns="http://www.w3.org/2000/svg" xmlns:xlink="http://www.w3.org/1999/xlink" x="0px" y="0px"
	 viewBox="0 0 72.5 72.5" style="enable-background:new 0 0 72.5 72.5;" xml:space="preserve">
<style type="text/css">
	.st0{fill:#808285;}
</style>
<title>1-Ecole</title>
<g>
	<path class="st0" d="M54.8,25.7L36.9,14.1c0,0-0.1,0-0.1-0.1l-0.6-0.3V14l-18,11.7l-1.4-2.1l16.9-10.9V2.3c0.1-1.4,1.2-2.4,2.5-2.3
		l11.8,0c0.9,0,1.7,0.4,2.2,1.2C50.5,2,50.5,3,49.9,3.7l-2,2.3l2,2.5c0.6,0.7,0.6,1.8,0.1,2.6c-0.5,0.7-1.3,1.2-2.1,1.2l-9.4-0.1v0
		l17.6,11.4L54.8,25.7z M36.1,9.6l11.6,0.2l-3-3.8l3-3.6L36.1,2.5L36.1,9.6z"/>
</g>
<g>
	<path class="st0" d="M17.2,51.5c-0.7,0-1.3-0.2-1.9-0.6c-0.7-0.5-1.1-1.2-1.2-2.1l0-0.2l0-4.4c0-0.8,0.4-1.5,1-2.1
		c0.6-0.5,1.3-0.8,2.1-0.8c1.7,0,3.1,1.3,3.1,2.9l0,4.4l0,0.1c-0.2,1.4-1.3,2.5-2.7,2.7C17.6,51.5,17.4,51.5,17.2,51.5z M16.6,48.5
		c0.1,0.3,0.4,0.5,0.7,0.5c0.3,0,0.5-0.2,0.5-0.5v-4.2c0-0.2-0.2-0.5-0.5-0.5l0,0l-0.1,0c-0.2,0-0.3,0.1-0.4,0.1
		c-0.1,0.1-0.2,0.2-0.2,0.4L16.6,48.5z"/>
</g>
<g>
	<path class="st0" d="M36.2,51.5c-0.7,0-1.3-0.2-1.9-0.6c-0.7-0.5-1.1-1.2-1.2-2.1l0-0.2l0-4.4c0-0.8,0.4-1.5,1-2.1
		c0.6-0.5,1.3-0.8,2.1-0.8c1.7,0,3.1,1.3,3.1,2.9l0,4.4l0,0.1c-0.2,1.4-1.3,2.5-2.7,2.7C36.6,51.5,36.4,51.5,36.2,51.5z M35.6,48.5
		c0.1,0.3,0.4,0.5,0.7,0.5c0.3,0,0.5-0.2,0.5-0.5v-4.2c0-0.2-0.2-0.5-0.5-0.5l0,0l-0.1,0c-0.2,0-0.3,0.1-0.4,0.1
		c-0.1,0.1-0.2,0.2-0.2,0.4L35.6,48.5z"/>
</g>
<g>
	<path class="st0" d="M55.1,51.5c-1.6,0-2.9-1.2-3-2.7l0-0.1l0-4.4c0.2-1.4,1.3-2.5,2.7-2.7c0.8-0.1,1.7,0.1,2.3,0.6
		c0.7,0.5,1.1,1.2,1.2,2.1l0,0.2v4.2c-0.1,1.7-1.5,3-3.1,2.9C55.2,51.5,55.2,51.5,55.1,51.5z M54.6,48.5c0,0.3,0.3,0.5,0.6,0.4
		l0.1,0l0.1,0c0.3,0,0.5-0.2,0.6-0.5l0-4c0-0.1-0.1-0.3-0.2-0.4c-0.1-0.1-0.3-0.1-0.5-0.1c-0.3,0-0.5,0.2-0.5,0.5V48.5z"/>
</g>
<g>
	<path class="st0" d="M17.1,65.5c-1.6,0-2.9-1.2-3-2.8l0-4.4l0-0.1c0-0.8,0.4-1.5,1-2.1c0.6-0.5,1.3-0.8,2.1-0.8h0
		c1.6-0.1,3,1.2,3.1,2.9l0,4.3c-0.1,1.7-1.5,3-3.1,2.9C17.2,65.5,17.2,65.5,17.1,65.5z M17.1,57.9c-0.2,0-0.3,0.1-0.4,0.1
		c-0.1,0.1-0.2,0.2-0.2,0.4l0,4.2c0,0.2,0.3,0.4,0.6,0.4l0.1,0l0.1,0c0.3,0,0.6-0.2,0.6-0.5l0-4.2c0-0.2-0.3-0.5-0.6-0.5l-0.1,0
		L17.1,57.9C17.2,57.9,17.2,57.9,17.1,57.9z"/>
</g>
<g>
	<path class="st0" d="M55.1,65.5c-1.6,0-2.9-1.2-3-2.8l0-0.1l0-4.4c0.2-1.5,1.3-2.7,2.8-2.8c0.8-0.1,1.7,0.2,2.3,0.7
		c0.7,0.5,1.1,1.3,1.1,2.1l0,0.1v4.2c-0.1,1.7-1.5,3-3.1,2.9C55.2,65.5,55.2,65.5,55.1,65.5z M54.6,62.5c0,0.3,0.3,0.5,0.6,0.5
		l0.1,0l0.1,0c0.3,0,0.5-0.2,0.6-0.5l0-4.1c0-0.2-0.1-0.3-0.2-0.4c-0.1-0.1-0.3-0.2-0.5-0.1c-0.3,0-0.5,0.3-0.6,0.5V62.5z"/>
</g>
<g>
	<path class="st0" d="M36.2,35.8c-4.6,0-8.4-3.4-8.4-7.5c0-4.1,3.8-7.5,8.4-7.5s8.4,3.4,8.4,7.5C44.6,32.5,40.9,35.8,36.2,35.8z
		 M36.2,23.3c-3.2,0-5.9,2.3-5.9,5c0,2.8,2.6,5,5.9,5c3.2,0,5.9-2.2,5.9-5C42.1,25.6,39.5,23.3,36.2,23.3z"/>
</g>
<g>
	<path class="st0" d="M36.1,31.2c-1.2,0-2.2-1-2.3-2.2l0-3.3h2.5v3l3,0v2.5h-3C36.2,31.2,36.2,31.2,36.1,31.2z M36.2,28.7
		C36.2,28.7,36.2,28.7,36.2,28.7L36.2,28.7C36.2,28.7,36.2,28.7,36.2,28.7z"/>
</g>
<g>
	<path class="st0" d="M3,72.5c-1.5,0-2.9-1.2-3-2.8L0,36c0.1-1.7,1.6-3,3.2-2.9l17.5,0v-7.1c0-1,0.5-1.9,1.4-2.4l12.6-8.1
		c1.1-0.7,2.5-0.7,3.6,0l12.6,8.2c0.8,0.5,1.3,1.4,1.3,2.4v7.2h17.2c1.6-0.1,3,1.1,3.2,2.8l0,0.1v33.6c-0.1,1.7-1.5,3-3.2,2.9
		l-66.1,0C3.1,72.5,3,72.5,3,72.5z M3.1,35.6c-0.3,0-0.6,0.2-0.6,0.5l0,33.5c0,0.2,0.3,0.4,0.6,0.4l24.5,0V54.3h17.8V70l23.9,0
		c0.4,0,0.6-0.2,0.6-0.5L70,36c0-0.3-0.3-0.5-0.6-0.4l-0.1,0H49.7v-9.6c0-0.1-0.1-0.2-0.2-0.3l-12.6-8.2c-0.3-0.2-0.6-0.2-0.9,0
		l-12.6,8.2c-0.1,0.1-0.2,0.2-0.2,0.3l0,9.6L3.1,35.6C3.1,35.6,3.1,35.6,3.1,35.6z M30.1,69.9h12.8v-13H30.1V69.9z"/>
</g>
</svg>
