<?xml version="1.0" encoding="utf-8"?>
<!-- Generator: Adobe Illustrator 22.0.1, SVG Export Plug-In . SVG Version: 6.00 Build 0)  -->
<svg version="1.1" id="envahissante" xmlns="http://www.w3.org/2000/svg" xmlns:xlink="http://www.w3.org/1999/xlink" x="0px"
	 y="0px" viewBox="0 0 72.5 72.5" style="enable-background:new 0 0 72.5 72.5;" xml:space="preserve">
<style type="text/css">
	.st0{fill:#808285;}
</style>
<title>1-Envahissante</title>
<g>
	<path class="st0" d="M36.2,21.6c-0.7,0-1.2-0.6-1.2-1.2V1.5c0-0.7,0.6-1.2,1.2-1.2s1.2,0.6,1.2,1.2v18.9
		C37.4,21.1,36.9,21.6,36.2,21.6z"/>
</g>
<g>
	<path class="st0" d="M42.3,8c-0.3,0-0.6-0.1-0.9-0.4l-5.2-5.1c0,0-0.1,0-0.1,0L31,7.7c-0.5,0.5-1.3,0.5-1.8,0
		c-0.5-0.5-0.5-1.3,0-1.8l5.1-5.1c1-1,2.6-1,3.6,0l5.2,5.2c0.5,0.5,0.5,1.3,0,1.8C43,7.9,42.6,8,42.3,8z"/>
</g>
<g>
	<path class="st0" d="M36.3,72.2c-0.7,0-1.2-0.6-1.2-1.2V52.1c0-0.7,0.6-1.2,1.2-1.2s1.2,0.6,1.2,1.2V71
		C37.6,71.7,37,72.2,36.3,72.2z"/>
</g>
<g>
	<path class="st0" d="M36.2,72.5c-0.7,0-1.3-0.2-1.8-0.7l-5.1-5.1c-0.5-0.5-0.5-1.3,0-1.8c0.5-0.5,1.3-0.5,1.8,0l5.1,5.1l5.2-5.1
		c0.5-0.5,1.3-0.5,1.8,0s0.5,1.3,0,1.8l-5.1,5.1C37.6,72.3,36.9,72.5,36.2,72.5z"/>
</g>
<g>
	<path class="st0" d="M47.4,26.2c-0.3,0-0.6-0.1-0.9-0.4c-0.5-0.5-0.5-1.3,0-1.8l13.3-13.3c0.5-0.5,1.3-0.5,1.8,0s0.5,1.3,0,1.8
		L48.3,25.9C48.1,26.1,47.7,26.2,47.4,26.2z"/>
</g>
<g>
	<path class="st0" d="M61.4,20.9c-0.7,0-1.2-0.6-1.2-1.2v-7.3l-7.3,0c-0.7,0-1.2-0.6-1.2-1.2s0.6-1.2,1.2-1.2h7.3
		c1.4,0.1,2.5,1.2,2.5,2.5v7.3C62.6,20.4,62.1,20.9,61.4,20.9z"/>
</g>
<g>
	<path class="st0" d="M11.8,62.1c-0.3,0-0.6-0.1-0.9-0.4c-0.5-0.5-0.5-1.3,0-1.8l13.3-13.3c0.5-0.5,1.3-0.5,1.8,0s0.5,1.3,0,1.8
		L12.6,61.7C12.4,62,12.1,62.1,11.8,62.1z"/>
</g>
<g>
	<path class="st0" d="M19.7,62.6h-7.3c-1.4,0-2.5-1.1-2.6-2.5v-7.3c0-0.7,0.6-1.2,1.2-1.2s1.2,0.6,1.2,1.2v7.3l7.3,0
		c0.7,0,1.2,0.6,1.2,1.2S20.4,62.6,19.7,62.6z"/>
</g>
<g>
	<path class="st0" d="M71,37.4H52.1c-0.7,0-1.2-0.6-1.2-1.2s0.6-1.2,1.2-1.2H71c0.7,0,1.2,0.6,1.2,1.2S71.7,37.4,71,37.4z"/>
</g>
<g>
	<path class="st0" d="M65.7,43.6c-0.3,0-0.6-0.1-0.9-0.4c-0.5-0.5-0.5-1.3,0-1.8l5.1-5.1l-5.1-5.2c-0.5-0.5-0.5-1.3,0-1.8
		c0.5-0.5,1.3-0.5,1.8,0l5.1,5.1c1,1,1,2.6,0,3.6l-5.2,5.2C66.4,43.4,66.1,43.6,65.7,43.6z"/>
</g>
<g>
	<path class="st0" d="M20.4,37.6H1.5c-0.7,0-1.2-0.6-1.2-1.2s0.6-1.2,1.2-1.2h18.9c0.7,0,1.2,0.6,1.2,1.2S21.1,37.6,20.4,37.6z"/>
</g>
<g>
	<path class="st0" d="M6.8,43.6c-0.3,0-0.6-0.1-0.9-0.4L0.7,38c-1-1-1-2.6,0-3.6l5.2-5.1c0.5-0.5,1.3-0.5,1.8,0
		c0.5,0.5,0.5,1.3,0,1.8l-5.1,5.1l5.1,5.2c0.5,0.5,0.5,1.3,0,1.8C7.4,43.4,7.1,43.6,6.8,43.6z"/>
</g>
<g>
	<path class="st0" d="M60.9,62c-0.3,0-0.6-0.1-0.9-0.4L46.6,48.3c-0.5-0.5-0.5-1.3,0-1.8s1.3-0.5,1.8,0l13.3,13.3
		c0.5,0.5,0.5,1.3,0,1.8C61.5,61.9,61.2,62,60.9,62z"/>
</g>
<g>
	<path class="st0" d="M52.8,62.6c-0.7,0-1.2-0.6-1.2-1.2s0.6-1.2,1.2-1.2h7.3l0-7.3c0-0.7,0.6-1.2,1.2-1.2s1.2,0.6,1.2,1.2v7.3
		c0,1.4-1.1,2.5-2.5,2.5H52.8z"/>
</g>
<g>
	<path class="st0" d="M25,26.3c-0.3,0-0.6-0.1-0.9-0.4L10.8,12.6c-0.5-0.5-0.5-1.3,0-1.8s1.3-0.5,1.8,0l13.3,13.3
		c0.5,0.5,0.5,1.3,0,1.8C25.6,26.2,25.3,26.3,25,26.3z"/>
</g>
<g>
	<path class="st0" d="M11.1,20.9c-0.7,0-1.2-0.6-1.2-1.2v-7.3c0-1.4,1.1-2.5,2.5-2.5h7.3c0.7,0,1.2,0.6,1.2,1.2s-0.6,1.2-1.2,1.2
		h-7.3l0,7.3C12.4,20.4,11.8,20.9,11.1,20.9z"/>
</g>
<g>
	<path class="st0" d="M45.4,45.5h-18v-18h18V45.5z M29.9,43h13V30h-13V43z"/>
</g>
</svg>
