<?xml version="1.0" encoding="utf-8"?>
<!-- Generator: Adobe Illustrator 22.0.1, SVG Export Plug-In . SVG Version: 6.00 Build 0)  -->
<svg version="1.1" id="Foret" xmlns="http://www.w3.org/2000/svg" xmlns:xlink="http://www.w3.org/1999/xlink" x="0px" y="0px"
	 viewBox="0 0 76.2 69.1" style="enable-background:new 0 0 76.2 69.1;" xml:space="preserve">
<style type="text/css">
	.st0{fill:#808285;}
</style>
<title>1-Foret</title>
<g>
	<path class="st0" d="M40.3,69.1H26.2v-7.5H12.5l6.9-14.3h-4l6.2-12.9h-4.7L33.6,0l16.7,34.5h-4.7l6.2,12.9h-4l6.9,14.3H40.3V69.1z
		 M28.7,66.6h9.1v-7.5h13l-6.9-14.3h4L41.7,32h4.6L33.6,5.7L20.9,32h4.7l-6.2,12.9h4l-6.9,14.3h12.3V66.6z"/>
</g>
<g>
	<polygon class="st0" points="14,61.5 0,61.5 5.8,49.5 2.5,49.5 7.7,38.6 3.8,38.6 18.5,8.3 23.4,17.5 21.2,18.7 18.6,13.8 
		7.8,36.1 11.7,36.1 6.5,47 9.8,47 4,59 14,59 	"/>
</g>
<g>
	<polygon class="st0" points="25.2,67.8 12.5,67.8 12.5,60.5 15,60.5 15,65.3 22.7,65.3 22.7,60.5 25.2,60.5 	"/>
</g>
<g>
	<path class="st0" d="M62.1,69.1h-8.6V51.3c-0.8-0.2-1.7-0.5-2.4-0.9l1.1-2.3c0.9,0.4,1.9,0.8,2.9,1l1,0.2v17.3h3.6V49.3l1-0.2
		c7.6-1.6,13.2-9.6,13.2-19c0-10.6-7.2-19.3-16-19.3c-4.4,0.1-8.5,2.1-11.2,5.5l-2-1.6c3.2-4,8-6.4,13.1-6.5
		C68,8.3,76.2,18,76.2,30.1c0,10.1-5.9,18.9-14.2,21.2V69.1z"/>
</g>
</svg>
