<svg id="Hivergris" xmlns="http://www.w3.org/2000/svg" viewBox="0 0 66.23 75"><defs><style>.cls-1{fill:#808285;}</style></defs><title>3-Hiver</title><path class="cls-1" d="M69.8,47.52,69,45.11,59,48.59l-12.17-7a6.54,6.54,0,0,0,0-4.22l12.17-7L69,33.8l.84-2.41-7.88-2.76,11.82-6.82L72.46,19.6,60.64,26.42l1.56-8.2-2.51-.48-2,10.37-12.17,7A6.59,6.59,0,0,0,41.9,33V19l8-6.88-1.67-1.94L41.9,15.6V2H39.34V15.6L33,10.15l-1.67,1.94,8,6.88V33a6.59,6.59,0,0,0-3.65,2.12l-12.17-7-2-10.37L19,18.22l1.56,8.2L8.78,19.6,7.5,21.81l11.82,6.82-7.88,2.76.84,2.41,10-3.48,12.17,7a6.67,6.67,0,0,0-.35,2.11,6.76,6.76,0,0,0,.35,2.11l-12.17,7-10-3.48-.84,2.42,7.88,2.75L7.5,57.1l1.28,2.21L20.6,52.49,19,60.69l2.51.48,2-10.36,12.17-7a6.57,6.57,0,0,0,3.65,2.11v14l-8,6.89L33,68.76l6.32-5.44V77H41.9V63.32l6.32,5.44,1.67-1.93-8-6.89v-14a6.57,6.57,0,0,0,3.65-2.11l12.17,7,2,10.36,2.51-.48-1.56-8.2,11.82,6.82,1.28-2.21L61.92,50.28ZM40.62,43a3.5,3.5,0,1,1,3.5-3.49A3.49,3.49,0,0,1,40.62,43Z" transform="translate(-7.5 -1.96)"/></svg>