<?xml version="1.0" encoding="utf-8"?>
<!-- Generator: Adobe Illustrator 22.0.1, SVG Export Plug-In . SVG Version: 6.00 Build 0)  -->
<svg version="1.1" id="Insectes" xmlns="http://www.w3.org/2000/svg" xmlns:xlink="http://www.w3.org/1999/xlink" x="0px" y="0px"
	 viewBox="0 0 73.6 77.5" style="enable-background:new 0 0 73.6 77.5;" xml:space="preserve">
<style type="text/css">
	.st0{fill:#808184;}
</style>
<title>2-Insectes</title>
<g>
	<path class="st0" d="M37,77.5C37,77.5,37,77.5,37,77.5c-0.6,0-1.2-0.2-1.8-0.5L27,71.6c-3.9-2.5-6.3-6.8-6.4-11.5v-1.2
		c0-0.7,0.6-1.2,1.2-1.2s1.2,0.6,1.2,1.2V60c0,3.8,2,7.4,5.3,9.4l8.3,5.4C36.7,75,36.8,75,37,75c0.1,0,0.3,0,0.4-0.1l8-5.4
		c3.2-2.1,5.1-5.6,5.1-9.3v-1.3c0-0.7,0.6-1.2,1.2-1.2s1.2,0.6,1.2,1.2v1.3c-0.1,4.6-2.4,8.9-6.2,11.4l-8,5.4
		C38.2,77.3,37.6,77.5,37,77.5z"/>
</g>
<g>
	<path class="st0" d="M48,18.2c-0.7,0-1.2-0.5-1.2-1.2c-0.1-4.6-3.5-8.4-8-9.1l-1.5-0.2l0.5-1.4c1-2.8,3.6-4.5,6.5-4.5c0,0,0,0,0,0
		c0.3,0,0.6-0.2,0.6-0.5c0-0.7,0.6-1.2,1.3-1.2c0.7,0,1.2,0.6,1.2,1.3c-0.1,1.7-1.5,3-3.2,2.9c-1.3,0-2.6,0.6-3.4,1.6
		c4.8,1.5,8.3,5.9,8.4,11.1C49.3,17.6,48.7,18.2,48,18.2C48,18.2,48,18.2,48,18.2z"/>
</g>
<g>
	<path class="st0" d="M25.6,18.2C25.5,18.2,25.5,18.2,25.6,18.2c-0.7,0-1.3-0.6-1.2-1.3c0.1-5.2,3.6-9.6,8.4-11.1
		c-0.8-1-2.1-1.6-3.4-1.6c-1.7,0-3.1-1.3-3.1-2.9c0-0.7,0.5-1.3,1.2-1.3c0.7,0,1.3,0.5,1.3,1.2c0,0.3,0.3,0.6,0.6,0.5
		c3,0,5.6,1.8,6.5,4.5l0.5,1.4l-1.5,0.2c-4.5,0.7-7.9,4.5-8,9.1C26.8,17.7,26.2,18.2,25.6,18.2z"/>
</g>
<g>
	<path class="st0" d="M42.4,65.3H31.2c-0.7,0-1.2-0.6-1.2-1.2s0.6-1.2,1.2-1.2h11.2c0.7,0,1.2,0.6,1.2,1.2S43.1,65.3,42.4,65.3z"/>
</g>
<g>
	<path class="st0" d="M42.4,56.6H31.2c-0.7,0-1.2-0.6-1.2-1.2s0.6-1.2,1.2-1.2h11.2c0.7,0,1.2,0.6,1.2,1.2S43.1,56.6,42.4,56.6z"/>
</g>
<g>
	<path class="st0" d="M38.8,47.8h-3.7c-0.7,0-1.2-0.6-1.2-1.2s0.6-1.2,1.2-1.2h3.7c0.7,0,1.2,0.6,1.2,1.2S39.5,47.8,38.8,47.8z"/>
</g>
<g>
	<path class="st0" d="M14.8,58.3c-3.4,0-6.8-1-9.5-3.1c-3-2.3-4.9-5.7-5.2-9.5c-0.3-4.4,1.2-8.7,4.2-11.9
		c7.3-8.1,27.5-14.9,31.5-16.2c0.7-0.2,1.4-0.2,2,0c0.2,0.1,23.5,7.4,31.5,16.2c3,3.2,4.5,7.5,4.2,11.9c-0.3,3.8-2.3,7.2-5.2,9.5
		c-2.7,2.1-6,3.2-9.5,3.1c-5,0-9.8-2.2-13.1-5.8c-3.3-3.6-6.2-9.8-8.8-18.5c-2.6,8.7-5.5,14.9-8.8,18.5
		C24.5,56.3,19.6,58.3,14.8,58.3z M36.8,19.9c-0.1,0-0.2,0-0.2,0c-2.4,0.8-23.4,7.7-30.5,15.5c-2.5,2.7-3.8,6.3-3.5,10
		c0.3,3,1.8,5.9,4.3,7.7c5.5,4.3,14.2,3.2,19.3-2.4c3.1-3.4,5.9-9.4,8.4-18c0.2-0.7,0.9-1,1.5-0.9c0.3,0.1,0.6,0.3,0.7,0.5
		c0.2-0.3,0.4-0.5,0.7-0.5c0.7-0.2,1.4,0.2,1.5,0.9c2.5,8.6,5.3,14.6,8.4,18c2.9,3.2,7,5,11.3,5c0.1,0,0.1,0,0.2,0
		c2.8,0,5.6-0.9,7.8-2.6c2.4-1.9,4-4.7,4.3-7.7c0.3-3.6-1-7.3-3.5-10C60,27.3,37.2,20,37,20C36.9,19.9,36.9,19.9,36.8,19.9z"/>
</g>
</svg>
