<?xml version="1.0" encoding="utf-8"?>
<!-- Generator: Adobe Illustrator 22.0.1, SVG Export Plug-In . SVG Version: 6.00 Build 0)  -->
<svg version="1.1" id="Lac" xmlns="http://www.w3.org/2000/svg" xmlns:xlink="http://www.w3.org/1999/xlink" x="0px" y="0px"
	 viewBox="0 0 77.2 47.4" style="enable-background:new 0 0 77.2 47.4;" xml:space="preserve">
<style type="text/css">
	.st0{fill:#808285;}
</style>
<title>1-Lacs</title>
<g>
	<g>
		<rect x="0.4" class="st0" width="76.8" height="2.5"/>
	</g>
</g>
<g>
	<g>
		<rect x="0.4" y="5.6" class="st0" width="76.8" height="2.5"/>
	</g>
</g>
<g>
	<g>
		<rect x="63.3" y="11.1" class="st0" width="2.5" height="16.6"/>
	</g>
</g>
<g>
	<g>
		<rect x="58.1" y="11.1" class="st0" width="2.5" height="16.6"/>
	</g>
</g>
<g>
	<g>
		<rect x="16.1" y="11.1" class="st0" width="2.5" height="16.6"/>
	</g>
</g>
<g>
	<g>
		<rect x="10.9" y="11.1" class="st0" width="2.5" height="16.6"/>
	</g>
</g>
<g>
	<g>
		<path class="st0" d="M18.2,22.1l-1.8-1.7c5.5-5.9,12.9-9.3,20.9-9.6c8-0.3,15.7,2.6,21.5,8c0.5,0.4,0.9,0.9,1.4,1.4l-1.8,1.7
			c-0.4-0.4-0.8-0.9-1.3-1.3c-5.4-5-12.4-7.6-19.7-7.3C30.1,13.6,23.3,16.7,18.2,22.1z"/>
	</g>
</g>
<g>
	<g>
		<path class="st0" d="M11.2,22.1C8.1,18.8,4.3,16.3,0,14.8l0.8-2.4C5.5,14,9.7,16.8,13,20.4L11.2,22.1z"/>
	</g>
</g>
<g>
	<g>
		<path class="st0" d="M65.5,21.3l-1.8-1.7c3.3-3.6,7.6-6.3,12.2-7.9l0.8,2.4C72.5,15.5,68.6,18,65.5,21.3z"/>
	</g>
</g>
<g>
	<g>
		<path class="st0" d="M53.5,47.5c-1.4,0-2.8-0.3-4.1-0.9c-1.3-0.6-2.4-1.5-3.2-2.6c-1.1,1.4-2.6,2.4-4.3,3
			c-2.4,0.8-4.9,0.6-7.2-0.5c-1.2-0.6-2.3-1.5-3.1-2.5c-2.7,3.3-7.5,4.5-11.5,2.5c-2.1-1-3.7-2.7-4.5-4.8l2.3-1
			c0.6,1.6,1.8,2.8,3.3,3.6c3.4,1.7,7.6,0.3,9.3-3.1l1.1-2.3l1.1,2.3c0.7,1.4,1.8,2.5,3.1,3.1c3.4,1.7,7.6,0.3,9.3-3.1l1.1-2.3
			l1.1,2.3c0.7,1.4,1.8,2.5,3.2,3.2c3.4,1.7,7.6,0.2,9.2-3.2l2.2,1.1C60.4,45.5,57,47.5,53.5,47.5z M53.5,38.4c-1.4,0-2.8-0.3-4.1-1
			c-1.2-0.6-2.3-1.5-3.2-2.5c-1.1,1.4-2.6,2.4-4.3,3c-2.4,0.8-4.9,0.6-7.2-0.5c-1.2-0.6-2.3-1.5-3.1-2.5c-1.1,1.4-2.6,2.4-4.3,3
			c-2.4,0.8-4.9,0.6-7.2-0.5c-2.1-1-3.7-2.7-4.5-4.8l2.3-1c0.6,1.6,1.8,2.8,3.3,3.6c3.4,1.7,7.6,0.3,9.3-3.1l1.1-2.3l1.1,2.3
			c0.7,1.4,1.8,2.5,3.1,3.1c1.7,0.8,3.5,0.9,5.3,0.4c1.7-0.6,3.2-1.8,4-3.5l1.1-2.3l1.1,2.3c0.7,1.4,1.8,2.5,3.1,3.1
			c3.4,1.7,7.6,0.3,9.3-3.1l2.2,1.1C60.3,36.4,57,38.4,53.5,38.4z"/>
	</g>
</g>
</svg>
