<?xml version="1.0" encoding="utf-8"?>
<!-- Generator: Adobe Illustrator 22.0.1, SVG Export Plug-In . SVG Version: 6.00 Build 0)  -->
<svg version="1.1" id="MamMer" xmlns="http://www.w3.org/2000/svg" xmlns:xlink="http://www.w3.org/1999/xlink" x="0px" y="0px"
	 viewBox="0 0 77.5 77.5" style="enable-background:new 0 0 77.5 77.5;" xml:space="preserve">
<style type="text/css">
	.st0{fill:#808184;}
</style>
<title>2-MamMer</title>
<g>
	<path class="st0" d="M54.2,54.8c-0.2,0-0.4,0-0.6,0c-1.5-0.2-3.6-1.3-4.8-5.3c-0.2-0.7,0.2-1.4,0.8-1.6c0.7-0.2,1.4,0.2,1.6,0.8
		c0.4,1.5,1.3,3.3,2.7,3.5c1.2,0.2,2.7-0.9,3.4-2c4.9-8.1,10-9.4,10.2-9.4c1-0.2,2-0.3,3-0.3h4.7c0.7,0,1.2,0.6,1.2,1.2
		S75.9,43,75.2,43h-4.7c-0.8,0-1.6,0.1-2.5,0.3c0,0-4.3,1.1-8.6,8.3C58.4,53.2,56.4,54.8,54.2,54.8z"/>
</g>
<g>
	<path class="st0" d="M50.8,10.7c-0.6,0-1.2-0.5-1.2-1.1c-0.4-2.9-1.8-5.5-4-7.4C45,1.7,45,1,45.4,0.4c0.5-0.5,1.2-0.6,1.8-0.1
		c2.7,2.3,4.4,5.5,4.8,9c0.1,0.7-0.4,1.3-1.1,1.4C50.9,10.7,50.8,10.7,50.8,10.7z"/>
</g>
<g>
	<path class="st0" d="M50.7,10.7c-0.1,0-0.1,0-0.2,0c-0.7-0.1-1.2-0.7-1.1-1.4c0.5-3.5,2.2-6.7,4.8-9c0.5-0.5,1.3-0.4,1.8,0.1
		C56.5,1,56.5,1.7,56,2.2c-2.2,1.9-3.6,4.5-4,7.4C51.9,10.2,51.3,10.7,50.7,10.7z"/>
</g>
<g>
	<path class="st0" d="M52.8,67.3c-0.6,0-1.2-0.5-1.2-1.1c-0.1-0.7,0.4-1.3,1.1-1.4C65.2,63.4,75,50.7,75,35.9v-0.2H25.1
		c-0.3,0-0.6-0.1-0.8-0.3c-2.1-1.8-3.8-4.8-5-8.9c0-0.1-0.1-0.3-0.1-0.4c0-0.3,0.1-0.7,0.3-0.9c2.2-2.3,3.8-5.2,4.5-8.3
		c1.1-4.4,0.4-9.1-0.2-11.7c-2.4,2.4-4.2,5.4-5,8.7l-0.2,0.8c-0.5,2.1-1.2,4.4-1,6.2c0,0.5-0.3,1-0.7,1.2l-0.4,0.2
		c-0.6,0.3-1.3,0-1.6-0.6c-0.6-1.2-2.1-2.4-3.4-3.4c-0.3-0.2-0.6-0.4-0.8-0.7c-2.8-2.3-6.1-2.3-7.9-2c0.6,2.2,2.2,7,5.3,9.6
		c2.1,1.6,4.8,2.4,7.5,2c0.3,0,0.7,0.1,1,0.3s0.4,0.6,0.4,0.9l0.1,1.7c0,14.7,8.5,29.5,19.4,33.7c0.6,0.2,1,1,0.7,1.6
		c-0.2,0.6-1,1-1.6,0.7c-11.8-4.5-21-20.3-21-36l0-0.4c-2.9,0.1-5.7-0.9-8-2.7C1.7,23.2,0.1,15.3,0,15c-0.1-0.6,0.2-1.3,0.9-1.4
		c0.3-0.1,6.4-1.9,11.4,2.2c0.2,0.2,0.5,0.4,0.8,0.6c0.7,0.6,1.5,1.2,2.2,1.9c0.2-1.4,0.6-2.9,0.9-4.2l0.2-0.8
		c1.2-4.5,3.8-8.5,7.4-11.3c0.3-0.3,0.7-0.3,1.1-0.2c0.4,0.1,0.7,0.4,0.8,0.8c0.1,0.3,2.5,7.8,0.7,15c-0.8,3.3-2.4,6.3-4.7,8.8
		c1,3.2,2.3,5.5,3.8,6.9h50.7c0.7,0,1.2,0.6,1.2,1.2v1.4C77.5,52.2,67,65.7,53,67.3C52.9,67.3,52.9,67.3,52.8,67.3z"/>
</g>
<g>
	<path class="st0" d="M41,77.5c-2.3,0-3.9-0.5-4-0.6c-0.6-0.2-0.9-0.8-0.8-1.4c0.1-0.4,1.3-9,6.2-12.9c1-0.8,2-1.4,3.2-1.8
		c0.7-0.2,1.4,0.1,1.6,0.8c0.2,0.7-0.1,1.4-0.8,1.6c-0.9,0.3-1.7,0.8-2.5,1.4c-3.2,2.5-4.6,7.8-5.1,10.2c1.7,0.3,5.2,0.6,8-1.7
		c4.1-3.3,6-11.4,6.1-11.5c0.2-0.7,0.8-1.1,1.5-0.9c0.7,0.2,1.1,0.8,0.9,1.5c-0.1,0.4-2.1,9.1-6.9,12.9C45.9,77,43.1,77.5,41,77.5z"
		/>
</g>
<g>
	<path class="st0" d="M50.8,28.6c-0.7,0-1.2-0.6-1.2-1.2c0-14.2-10.2-16.1-10.6-16.2c-0.7-0.1-1.1-0.8-1-1.4c0.1-0.7,0.8-1.1,1.4-1
		c0.1,0,12.7,2.3,12.7,18.6C52.1,28,51.5,28.6,50.8,28.6z"/>
</g>
<g>
	<path class="st0" d="M50.8,28.6c-0.7,0-1.2-0.6-1.2-1.2C49.5,11,62.1,8.7,62.2,8.7c0.7-0.1,1.3,0.3,1.4,1c0.1,0.7-0.3,1.3-1,1.4
		l0,0c-0.4,0.1-10.6,2-10.6,16.2C52,28,51.5,28.6,50.8,28.6z"/>
</g>
<g>
	<path class="st0" d="M54.7,46.8c-1.1,0-2-1-2-2.2s0.9-2.2,2-2.2c1.1,0,2,1,2,2.2C56.7,45.9,55.8,46.8,54.7,46.8z M54.2,44.6
		c0,0.1,0.2,0.2,0.5,0.2c0.3,0,0.5-0.2,0.5-0.3c0,0-0.2-0.2-0.5-0.2C54.4,44.3,54.3,44.5,54.2,44.6z M54.2,44.6L54.2,44.6L54.2,44.6
		z"/>
</g>
</svg>
