<?xml version="1.0" encoding="utf-8"?>
<!-- Generator: Adobe Illustrator 22.0.1, SVG Export Plug-In . SVG Version: 6.00 Build 0)  -->
<svg version="1.1" id="Montagne" xmlns="http://www.w3.org/2000/svg" xmlns:xlink="http://www.w3.org/1999/xlink" x="0px" y="0px"
	 viewBox="0 0 70.2 71.2" style="enable-background:new 0 0 70.2 71.2;" xml:space="preserve">
<style type="text/css">
	.st0{fill:#808285;}
</style>
<title>1-Montagne</title>
<g>
	<rect x="0.2" y="68.8" class="st0" width="68.1" height="2.5"/>
</g>
<g>
	<polygon class="st0" points="2.3,57.2 0,56.3 23.4,0.6 40.9,44.3 38.6,45.2 23.3,7.1 	"/>
</g>
<g>
	<polygon class="st0" points="67,65.9 58.2,46.5 54.2,51.9 44.3,33 39.4,40.6 37.3,39.2 44.5,28.1 54.5,47.3 58.8,41.7 69.2,64.9 	
		"/>
</g>
<g>
	<path class="st0" d="M17.1,66.7h-5.6v-2.1H7.3l1.9-4H8.1L9.7,57H8.5l6-12.6L20.4,57h-1.3l1.7,3.6h-1.1l1.9,4h-4.4V66.7z M14,64.2
		h0.6v-2.1h3l-1.9-4h1.1l-1.7-3.6h1.3l-2-4.3l-2,4.3h1.3L12,58.1h1.1l-1.9,4H14V64.2z"/>
</g>
<g>
	<path class="st0" d="M31.4,66.7h-5.6v-2.1h-4.2l1.9-4h-1.1L24,57h-1.3l5.9-12.6l6,12.6h-1.3l1.7,3.5H34l1.9,4h-4.4V66.7z
		 M28.3,64.2h0.6v-2.1h3l-1.9-4h1.1l-1.7-3.5h1.3l-2-4.3l-2,4.2H28l-1.7,3.6h1.1l-1.9,4h2.8V64.2z"/>
</g>
<g>
	<path class="st0" d="M48.9,66.7h-5.6v-2.1h-4.2l1.9-4h-1.1l1.7-3.6h-1.3l5.9-12.6l6,12.6h-1.3l1.7,3.5h-1.1l1.9,4h-4.4V66.7z
		 M45.8,64.2h0.6v-2.1h3l-1.9-4h1.1l-1.7-3.5h1.3l-2-4.3l-2,4.2h1.2l-1.7,3.6h1.1l-1.9,4h2.8V64.2z"/>
</g>
<g>
	<path class="st0" d="M57.7,19.5c-3.5,0-6.3-2.8-6.3-6.3c-0.1-3.5,2.7-6.4,6.2-6.6l0.1,0l0,0c3.5,0.1,6.3,3.1,6.2,6.6
		C64,16.7,61.1,19.5,57.7,19.5z M57.7,9.1c-2.1,0.1-3.8,1.9-3.8,4c0,2.1,1.7,3.8,3.8,3.8s3.8-1.7,3.8-3.8C61.5,11,59.8,9.2,57.7,9.1
		L57.7,9.1z"/>
</g>
<g>
	<rect x="56.5" class="st0" width="2.5" height="3.7"/>
</g>
<g>
	<rect x="48.9" y="3.3" transform="matrix(0.7261 -0.6876 0.6876 0.7261 10.2261 35.9119)" class="st0" width="2.5" height="3.6"/>
</g>
<g>
	<rect x="45.2" y="11.9" class="st0" width="3.5" height="2.5"/>
</g>
<g>
	<rect x="48.3" y="19.9" transform="matrix(0.6877 -0.726 0.726 0.6877 0.2895 42.9527)" class="st0" width="3.6" height="2.5"/>
</g>
<g>
	<rect x="56.4" y="22.6" class="st0" width="2.5" height="3.7"/>
</g>
<g>
	<rect x="64" y="19.4" transform="matrix(0.7261 -0.6876 0.6876 0.7261 3.2478 50.6735)" class="st0" width="2.5" height="3.6"/>
</g>
<g>
	<rect x="66.7" y="12" class="st0" width="3.5" height="2.5"/>
</g>
<g>
	<rect x="63.5" y="4" transform="matrix(0.6889 -0.7248 0.7248 0.6889 16.5275 48.9999)" class="st0" width="3.6" height="2.5"/>
</g>
</svg>
