<?xml version="1.0" encoding="utf-8"?>
<!-- Generator: Adobe Illustrator 22.0.1, SVG Export Plug-In . SVG Version: 6.00 Build 0)  -->
<svg version="1.1" id="Mousse" xmlns="http://www.w3.org/2000/svg" xmlns:xlink="http://www.w3.org/1999/xlink" x="0px" y="0px"
	 viewBox="0 0 77 77.2" style="enable-background:new 0 0 77 77.2;" xml:space="preserve">
<style type="text/css">
	.st0{fill:#808184;}
</style>
<title>2-Mousses</title>
<g>
	<path class="st0" d="M13.1,8.1c-0.6,0-1.3-0.2-1.7-0.4c-0.5-0.2-0.7-0.8-0.5-1.3c0.2-0.5,0.8-0.7,1.3-0.5c0.1,0,0.1,0.1,0.2,0.1
		c0,0,0-0.1-0.1-0.1c-0.3-0.5-0.1-1.1,0.4-1.3c0.5-0.3,1.1-0.1,1.3,0.4c0.4,0.8,1,2.2,0,3C13.8,8,13.5,8.1,13.1,8.1z"/>
</g>
<g>
	<path class="st0" d="M5.7,14.6c-0.6,0-1.2-0.2-1.7-0.4c-0.5-0.2-0.7-0.8-0.5-1.3c0.2-0.5,0.8-0.7,1.3-0.5c0.1,0,0.1,0,0.2,0.1
		c0,0,0-0.1,0-0.1c-0.3-0.5-0.1-1.1,0.4-1.3c0.5-0.3,1.1-0.1,1.3,0.4c0.4,0.8,1,2.2,0,2.9C6.4,14.5,6,14.6,5.7,14.6z"/>
</g>
<g>
	<path class="st0" d="M2.3,17.5c-0.6,0-1.2-0.2-1.7-0.4c-0.5-0.2-0.7-0.8-0.5-1.3c0.2-0.5,0.8-0.7,1.3-0.5c0.1,0,0.1,0,0.2,0.1
		c0,0,0-0.1,0-0.1c-0.3-0.5-0.1-1.1,0.4-1.3c0.5-0.3,1.1-0.1,1.3,0.4c0.4,0.8,1,2.2,0,2.9C3,17.4,2.7,17.5,2.3,17.5z"/>
</g>
<g>
	<path class="st0" d="M7,28.1c-0.5,0-1-0.1-1.4-0.2c-0.5-0.2-0.8-0.7-0.7-1.2c0.2-0.5,0.7-0.8,1.2-0.7l0,0c0,0,0.1,0,0.1,0
		c0,0,0,0,0,0C6,25.5,6,24.9,6.5,24.6c0.4-0.3,1.1-0.3,1.4,0.2c0.4,0.6,1.3,1.9,0.5,2.9C8,28,7.5,28.1,7,28.1z"/>
</g>
<g>
	<path class="st0" d="M38.9,77.2c-0.6,0-1.2-0.5-1.2-1.1c-1-8.6-1.4-17.4-1.2-26.1c0.5-11.1,3.4-14.7,7.6-19.6c0.8-1,1.6-2,2.5-3.1
		c5.3-6.8,15.1-24.2,15.2-24.4c0.3-0.6,1.1-0.8,1.7-0.5c0.6,0.3,0.8,1.1,0.5,1.7c-0.4,0.7-10,17.8-15.4,24.7
		C47.6,30,46.8,31,45.9,32c-3.9,4.8-6.5,7.9-7,18.1c-0.2,8.6,0.2,17.2,1.2,25.7c0.1,0.7-0.4,1.3-1.1,1.4
		C39,77.2,38.9,77.2,38.9,77.2z"/>
</g>
<g>
	<path class="st0" d="M37.6,59.5c-0.5,0-0.9-0.3-1.1-0.7c-2.1-4.7-4.4-9.3-7-13.8c-1.1-1.8-2.5-3.5-3.9-5.2
		c-2.5-3.1-5.1-6.3-7.1-10.7c-3-6.7-8.7-14.4-8.8-14.4c-0.4-0.5-0.3-1.3,0.2-1.7c0.5-0.4,1.3-0.3,1.7,0.2c0.2,0.3,6,8,9.1,14.9
		c1.8,4.1,4.3,7.2,6.7,10.1c1.5,1.8,2.9,3.6,4.1,5.5c2.7,4.6,5.1,9.3,7.2,14.1c0.3,0.6,0,1.4-0.6,1.6C37.9,59.5,37.7,59.5,37.6,59.5
		z"/>
</g>
<g>
	<path class="st0" d="M24.8,38c-0.1,0-0.1,0-0.2,0c-0.7-0.1-1.1-0.8-1-1.4c1-5.5,1.4-11.1,1.2-16.7C24.5,11.2,23,6.5,23,6.5
		c-0.2-0.7,0.1-1.4,0.8-1.6c0.7-0.2,1.4,0.1,1.6,0.8c0.1,0.2,1.6,5.1,1.9,14.1c0.1,5.7-0.3,11.5-1.3,17.2C25.9,37.5,25.3,38,24.8,38
		z"/>
</g>
<g>
	<path class="st0" d="M9,53.3c-0.2,0-0.5-0.1-0.7-0.2c-0.6-0.4-0.7-1.2-0.3-1.7c0.1-0.2,3.3-4.6,6-6.6l0.2-0.2
		c2.5-1.9,4.8-3.6,8.2-4.2c2-0.4,4.1-0.3,6.1,0.2c0.7,0.2,1.1,0.8,0.9,1.5c-0.2,0.7-0.8,1.1-1.5,0.9c-1.7-0.4-3.4-0.5-5-0.2
		c-2.9,0.5-4.8,1.9-7.2,3.7l-0.2,0.2c-2.4,1.8-5.4,6.1-5.5,6.1C9.7,53.1,9.3,53.3,9,53.3z"/>
</g>
<g>
	<path class="st0" d="M43.7,34.4c-0.5,0-1-0.3-1.2-0.9c-0.2-0.7,0.1-1.4,0.8-1.6l14.3-4.8c5.6-1.9,7-8.2,7-8.3
		c0.1-0.7,0.8-1.1,1.5-1c0.7,0.1,1.1,0.8,1,1.5c-0.1,0.3-1.7,7.8-8.7,10.1l-14.3,4.8C44,34.4,43.8,34.4,43.7,34.4z"/>
</g>
<g>
	<path class="st0" d="M38,46.8c-0.1,0-0.2,0-0.2,0c-0.7-0.1-1.1-0.8-1-1.5c0.6-2.7,3.7-3.7,9-5.2c0.7-0.2,1.3-0.4,2.1-0.6
		c3.3-1,6.2-3.1,8.1-5.9c0.4-0.6,1.2-0.7,1.7-0.3c0.6,0.4,0.7,1.2,0.3,1.7c-2.2,3.3-5.6,5.7-9.4,6.9c-0.7,0.2-1.4,0.4-2.1,0.6
		c-3.9,1.1-7,2.1-7.2,3.3C39.1,46.4,38.6,46.8,38,46.8z"/>
</g>
<g>
	<path class="st0" d="M58.4,45.8c-0.1,0-0.1,0-0.2,0c0,0-3-0.5-8.2-1.2c-2.5-0.3-5.7-0.9-6.4-1.3c-0.6-0.3-0.8-1.1-0.4-1.7
		c0.3-0.6,1-0.8,1.6-0.5c0.1,0,1.2,0.4,5.6,1c5.2,0.7,8.2,1.2,8.2,1.2c0.7,0.1,1.1,0.8,1,1.4C59.5,45.3,59,45.8,58.4,45.8z"/>
</g>
<g>
	<path class="st0" d="M55.5,16.9c-0.6,0-1.2-0.5-1.2-1.1c-0.1-0.7,0.4-1.3,1.1-1.4c2-0.2,4-0.7,6-1.3c3.2-1,12.4-4.8,12.5-4.8
		c0.6-0.3,1.4,0,1.6,0.7c0.3,0.6,0,1.4-0.7,1.6c-0.4,0.2-9.4,3.9-12.7,4.9c-2.1,0.7-4.3,1.1-6.5,1.4C55.6,16.9,55.5,16.9,55.5,16.9z
		"/>
</g>
<g>
	<path class="st0" d="M48.3,27.5c-0.6,0-1.1-0.4-1.2-1c-0.7-3-1.5-6-2.6-8.9c-1.7-4.9-7.1-9.1-7.1-9.1c-0.5-0.4-0.7-1.2-0.2-1.7
		c0.4-0.5,1.2-0.7,1.7-0.2c0.2,0.2,6.1,4.7,8,10.3c1,3,1.9,6.1,2.6,9.2c0.2,0.7-0.3,1.3-0.9,1.5C48.5,27.5,48.4,27.5,48.3,27.5z"/>
</g>
<g>
	<path class="st0" d="M48.1,21l-2.4-0.6c0,0,1-4.1,2-8c1-3.9,1.6-6.9,1.6-6.9c0.1-0.7,0.8-1.1,1.5-1c0.7,0.1,1.1,0.8,1,1.5
		c0,0-0.6,3.1-1.6,7.1C49.1,16.9,48.1,21,48.1,21z"/>
</g>
<g>
	<path class="st0" d="M15.1,22.4c0,0-0.1,0-0.1,0c-2.6-0.3-5.1-0.8-7.6-1.6c0,0-0.1,0-0.1,0c-1.8-0.8-3.5-1.8-5.1-3.1
		c-0.5-0.4-0.6-1.2-0.2-1.8c0.4-0.5,1.2-0.6,1.8-0.2c1.4,1.1,2.9,2,4.5,2.7c2.3,0.7,4.6,1.3,7,1.5c0.7,0.1,1.2,0.7,1.1,1.4
		C16.3,21.9,15.7,22.4,15.1,22.4z"/>
</g>
<g>
	<path class="st0" d="M9.3,20.9c-0.4,0-0.9-0.2-1.1-0.7L5,14.1c-0.3-0.6-0.1-1.4,0.5-1.7c0.6-0.3,1.4-0.1,1.7,0.5l3.2,6.2
		c0.3,0.6,0.1,1.4-0.5,1.7C9.7,20.9,9.5,20.9,9.3,20.9z"/>
</g>
<g>
	<path class="st0" d="M5,23c-0.6,0-1.1-0.4-1.2-1c-0.2-0.7,0.3-1.3,0.9-1.5l4.9-1.1c0.7-0.2,1.3,0.3,1.5,0.9
		c0.2,0.7-0.3,1.3-0.9,1.5L5.3,23C5.2,23,5.1,23,5,23z"/>
</g>
<g>
	<path class="st0" d="M20.9,32.5c-0.1,0-0.2,0-0.2,0c-2.6-0.5-5.1-1.1-7.6-1.9c-1.9-0.6-3.7-1.4-5.5-2.3C7,28,6.7,27.2,7,26.6
		c0.3-0.6,1.1-0.9,1.7-0.6c1.7,0.8,3.4,1.6,5.2,2.2c2.4,0.7,4.8,1.3,7.3,1.8c0.7,0.1,1.1,0.8,1,1.5C22,32.1,21.5,32.5,20.9,32.5z"/>
</g>
<g>
	<path class="st0" d="M7.2,30.9c-0.6,0-1.1-0.4-1.2-1c-0.2-0.7,0.3-1.3,0.9-1.5l4.2-1c0.7-0.2,1.3,0.3,1.5,0.9
		c0.2,0.7-0.3,1.3-0.9,1.5l-4.2,1C7.4,30.9,7.3,30.9,7.2,30.9z"/>
</g>
<g>
	<path class="st0" d="M22.9,42.3c0,0-0.1,0-0.1,0c-2.6-0.2-5.2-0.7-7.6-1.4c0,0-0.1,0-0.1,0c-2.8-1.1-3.6-2.5-3.7-2.7
		c-0.3-0.6,0-1.4,0.6-1.6c0.6-0.3,1.4,0,1.6,0.6c0,0,0,0,0,0c0,0,0.5,0.7,2.3,1.4c2.3,0.7,4.7,1.1,7.1,1.3c0.7,0.1,1.2,0.7,1.1,1.3
		C24.1,41.8,23.5,42.3,22.9,42.3z"/>
</g>
<g>
	<path class="st0" d="M16,40.9c-0.1,0-0.1,0-0.2,0c-0.7-0.1-1.2-0.7-1.1-1.4l0.5-4.1c0.1-0.7,0.7-1.2,1.4-1.1
		c0.7,0.1,1.2,0.7,1.1,1.4l-0.5,4.1C17.1,40.4,16.6,40.9,16,40.9z"/>
</g>
<g>
	<path class="st0" d="M16,42C16,42,16,42,16,42l-4.7-0.1c-0.7,0-1.2-0.6-1.2-1.3c0-0.7,0.6-1.3,1.3-1.2l4.6,0.1
		c0.7,0,1.2,0.6,1.2,1.3C17.3,41.4,16.7,42,16,42z"/>
</g>
<g>
	<path class="st0" d="M14.5,19.3c0,0-0.1,0-0.1,0c-0.7-0.1-1.2-0.7-1.1-1.4c0.1-1.4,0.9-2.7,2-3.6c0,0,0.1-0.1,0.1-0.1
		c1.1-0.7,2.3-1.3,3.6-1.8c0.6-0.3,1.4,0,1.6,0.7c0.3,0.6,0,1.4-0.7,1.6c-1.1,0.5-2.2,1-3.2,1.6c-0.5,0.4-0.9,1.1-1,1.8
		C15.7,18.8,15.2,19.3,14.5,19.3z"/>
</g>
<g>
	<path class="st0" d="M15.4,17.1c-0.6,0-1.1-0.4-1.2-1l-0.6-2.9c-0.1-0.7,0.3-1.3,1-1.5c0.7-0.1,1.3,0.3,1.5,1l0.6,2.9
		c0.1,0.7-0.3,1.3-1,1.5C15.6,17,15.5,17.1,15.4,17.1z"/>
</g>
<g>
	<path class="st0" d="M19.6,27.9c-0.1,0-0.2,0-0.3,0c-0.7-0.2-1.1-0.8-0.9-1.5c0.5-1.9,0.9-4.4,0.8-5c-0.2-1.6,0.1-2.3,0.3-2.6
		c0.4-0.6,1.2-0.7,1.7-0.3c0.5,0.4,0.7,1,0.4,1.6c0,0.1-0.1,0.4,0,1c0.2,1.4-0.6,5-0.8,6C20.6,27.5,20.1,27.9,19.6,27.9z M21.5,20.1
		C21.5,20.1,21.5,20.1,21.5,20.1C21.5,20.1,21.5,20.1,21.5,20.1z M21.5,20.1C21.5,20.1,21.5,20.1,21.5,20.1
		C21.5,20.1,21.5,20.1,21.5,20.1z"/>
</g>
<g>
	<path class="st0" d="M20.6,23.3c-0.4,0-0.8-0.2-1-0.6c-0.4-0.6-0.2-1.3,0.4-1.7l2-1.3c0.6-0.4,1.3-0.2,1.7,0.4
		c0.4,0.6,0.2,1.3-0.4,1.7l-2,1.3C21,23.3,20.8,23.3,20.6,23.3z"/>
</g>
<g>
	<path class="st0" d="M13.2,47.9c-0.1,0-0.3,0-0.4-0.1c-0.8-0.3-1.7-0.4-2.5-0.4c-0.7,0-1.3-0.5-1.3-1.2c0-0.7,0.5-1.3,1.2-1.3
		c1.2,0,2.3,0.1,3.5,0.5c0.7,0.2,1,0.9,0.8,1.6C14.2,47.5,13.7,47.9,13.2,47.9z"/>
</g>
<g>
	<path class="st0" d="M10.5,50.3c-0.1,0-0.2,0-0.3,0c-0.9-0.3-1.9-0.3-2.9-0.1c-0.7,0.1-1.3-0.3-1.5-1s0.3-1.3,1-1.5
		c1.3-0.3,2.7-0.2,4,0.2c0.7,0.2,1,0.9,0.9,1.5C11.5,49.9,11,50.3,10.5,50.3z"/>
</g>
<g>
	<path class="st0" d="M18.3,57.3c-0.5,0-1-0.4-1.2-0.9c0,0-1-3.3-1.7-6.5c-0.5-1.8-0.6-3.8-0.1-5.6c0.2-0.7,0.9-1,1.5-0.9
		c0.7,0.2,1.1,0.9,0.9,1.5c-0.4,1.4-0.4,2.9,0.1,4.3c0.8,3.2,1.7,6.4,1.7,6.5c0.2,0.7-0.2,1.4-0.8,1.5
		C18.5,57.3,18.4,57.3,18.3,57.3z"/>
</g>
<g>
	<path class="st0" d="M13.3,57.5c-0.2,0-0.3,0-0.5-0.1c-0.6-0.2-0.9-0.8-0.8-1.5c0.1-0.5,0.5-0.9,1-1c0.1-0.1,0.2-0.3,0.4-0.5
		c0.8-1.3,1.8-2.5,2.9-3.6c0.5-0.5,1.3-0.5,1.8,0s0.5,1.3,0,1.8c-1,1-1.8,2.1-2.6,3.3C14.8,56.5,14.2,57.5,13.3,57.5z"/>
</g>
<g>
	<path class="st0" d="M10.4,56.6c-0.3,0-0.5-0.1-0.8-0.3c-0.5-0.4-0.6-1.2-0.2-1.7c0.6-0.7,1.3-1.3,2.1-1.8c1-0.8,2.4-0.9,3.6-0.4
		c0.6,0.3,0.9,1,0.7,1.6c-0.3,0.6-1,0.9-1.6,0.7c-0.4-0.2-0.9-0.1-1.2,0.2c0,0-0.1,0.1-0.2,0.1c-0.5,0.3-1,0.7-1.4,1.2
		C11.1,56.5,10.7,56.6,10.4,56.6z"/>
</g>
<g>
	<path class="st0" d="M22.8,56c-0.4,0-0.8-0.2-1-0.5c0,0-1.7-2.5-2.7-3.7c-0.4-0.5-1.3-0.1-1.4-0.1c-0.6,0.3-1.4,0-1.6-0.7
		c-0.3-0.6,0-1.4,0.7-1.6c1-0.4,3-0.7,4.3,0.8c1,1.3,2.7,3.7,2.8,3.8c0.4,0.6,0.3,1.3-0.3,1.7C23.3,55.9,23.1,56,22.8,56z"/>
</g>
<g>
	<path class="st0" d="M20.8,53.1c-0.5,0-0.9-0.3-1.1-0.7c-0.3-0.6,0-1.4,0.6-1.6c1.1-0.5,2.3-0.6,3.4-0.4c0.7,0.1,1.1,0.8,1,1.5
		c-0.1,0.7-0.8,1.1-1.5,1c-0.6-0.1-1.3,0-1.9,0.2C21.1,53,20.9,53.1,20.8,53.1z"/>
</g>
<g>
	<path class="st0" d="M17.3,49.1c0,0-0.1,0-0.1,0c-0.7,0-1.2-0.6-1.2-1.3c0-0.7,0.6-1.2,1.3-1.2c0.8,0,1.6-0.2,2.3-0.7
		c0,0,0.1,0,0.1-0.1c0.8-0.4,1.4-1,2-1.7c0.4-0.5,1.2-0.6,1.8-0.2c0.5,0.4,0.6,1.2,0.2,1.8c-0.7,0.9-1.6,1.7-2.6,2.3
		C19.8,48.8,18.5,49.1,17.3,49.1z"/>
</g>
<g>
	<path class="st0" d="M24,49.9c-0.1,0-0.1,0-0.2,0l-1.6-0.2c-1.2-0.2-2.4-0.6-3.5-1.2c-0.6-0.3-0.8-1.1-0.4-1.7
		c0.4-0.6,1.1-0.8,1.7-0.4c0.8,0.5,1.7,0.8,2.6,0.9l1.6,0.2c0.7,0.1,1.2,0.7,1.1,1.4C25.2,49.4,24.6,49.9,24,49.9z"/>
</g>
<g>
	<path class="st0" d="M26.3,32c-0.4,0-0.7-0.2-1-0.5c-0.4-0.5-0.4-1.3,0.2-1.8c1.9-1.6,3.9-3,6-4.3c0.1,0,0.1-0.1,0.2-0.1
		c2.2-0.9,4.4-1.6,6.7-2.2c0.7-0.2,1.3,0.3,1.5,0.9c0.2,0.7-0.3,1.3-0.9,1.5c-2.1,0.5-4.2,1.2-6.2,2c-2,1.2-3.9,2.5-5.6,4
		C26.9,31.9,26.6,32,26.3,32z"/>
</g>
<g>
	<path class="st0" d="M33.1,26.7c-0.3,0-0.7-0.1-0.9-0.4c-0.5-0.5-0.4-1.3,0.1-1.8c1.4-1.4,3.1-3.1,3.4-3.6c0.3-0.6,1-0.9,1.7-0.6
		c0.6,0.3,0.9,1,0.6,1.6c-0.5,1.1-2.9,3.4-3.9,4.4C33.7,26.6,33.4,26.7,33.1,26.7z"/>
</g>
<g>
	<path class="st0" d="M30.6,28C30.6,28,30.5,28,30.6,28c-0.8-0.1-1.3-0.6-1.2-1.3l0.2-3c0-0.7,0.7-1.2,1.3-1.2
		c0.7,0,1.2,0.6,1.2,1.3l-0.2,3C31.8,27.5,31.2,28,30.6,28z"/>
</g>
<g>
	<path class="st0" d="M25.1,10.7c-0.4,0-0.7-0.2-1-0.5c-0.4-0.5-0.3-1.3,0.2-1.7c1.1-0.8,3-2.6,3.5-3.6c0.8-1.5,1.1-2.1,1.1-2.1
		c0.3-0.6,1-0.9,1.6-0.7c0.6,0.3,0.9,1,0.7,1.6c0,0.1-0.3,0.7-1.2,2.3c-1,1.8-3.9,4.1-4.2,4.4C25.6,10.6,25.4,10.7,25.1,10.7z"/>
</g>
<g>
	<path class="st0" d="M25.7,15.7c-0.3,0-0.6-0.1-0.9-0.4c-0.5-0.5-0.5-1.3,0-1.8l2.9-2.9c0.5-0.5,1.3-0.5,1.8,0
		c0.5,0.5,0.5,1.3,0,1.8l-2.9,2.9C26.3,15.6,26,15.7,25.7,15.7z"/>
</g>
<g>
	<path class="st0" d="M25.5,18.8c-0.1,0-0.3,0-0.4-0.1c-0.3-0.1-0.5-0.2-3.3-3c-0.5-0.5-0.5-1.3,0-1.8c0.5-0.5,1.3-0.5,1.8,0
		c1,1,2.3,2.3,2.6,2.5c0.5,0.3,0.7,0.9,0.5,1.5C26.5,18.4,26,18.8,25.5,18.8z"/>
</g>
<g>
	<path class="st0" d="M25,15.2c-0.2,0-0.4-0.1-0.6-0.2c-0.2-0.1-4-2.3-5.3-5.7C18.4,7.7,18,6,17.7,4.2c-0.1-0.7,0.3-1.3,1-1.4
		c0.7-0.1,1.3,0.3,1.4,1c0.3,1.6,0.7,3.2,1.3,4.7c0.8,2.1,3.3,3.9,4.2,4.4c0.6,0.3,0.8,1.1,0.5,1.7C25.8,14.9,25.4,15.2,25,15.2z"/>
</g>
<g>
	<path class="st0" d="M20.5,10.9c-0.1,0-0.2,0-0.3,0c-1.4-0.4-2.8-0.8-4.2-1.4c-0.8-0.4-1.6-0.8-2.4-1c-0.6-0.2-1-0.9-0.8-1.6
		s0.9-1,1.6-0.8c0.9,0.3,1.8,0.7,2.6,1.1c1.1,0.5,2.4,0.9,3.7,1.2c0.7,0.2,1.1,0.8,0.9,1.5C21.5,10.5,21,10.9,20.5,10.9z"/>
</g>
<g>
	<path class="st0" d="M26.3,21.6c-0.4,0-0.8-0.2-1-0.5c-0.4-0.6-0.3-1.3,0.3-1.7c1.7-1.2,4.4-3.5,4.8-4.8c0.5-1.8,1.4-3.5,2.6-5
		c0.4-0.5,1.2-0.6,1.8-0.1c0.5,0.4,0.6,1.2,0.1,1.8c-1,1.2-1.7,2.6-2.1,4c-0.8,2.6-4.9,5.5-5.7,6.1C26.8,21.5,26.5,21.6,26.3,21.6z"
		/>
</g>
<g>
	<path class="st0" d="M32,14.4c-0.6,0-1.2-0.5-1.2-1.1l-0.4-5c-0.1-0.7,0.5-1.3,1.1-1.3c0.7-0.1,1.3,0.5,1.3,1.1l0.4,5
		C33.3,13.7,32.8,14.3,32,14.4C32,14.4,32,14.4,32,14.4z"/>
</g>
<g>
	<path class="st0" d="M31.1,18.1c-0.5,0-1-0.3-1.2-0.9c-0.2-0.7,0.2-1.4,0.8-1.6c1-0.3,1.9-0.8,2.7-1.5c1.4-1.2,2.7-2.4,2.7-2.4
		c0.5-0.5,1.3-0.5,1.8,0c0.5,0.5,0.5,1.3,0,1.8c-0.1,0.1-1.3,1.3-2.9,2.5C34,17,32.8,17.6,31.5,18C31.4,18.1,31.3,18.1,31.1,18.1z"
		/>
</g>
<g>
	<path class="st0" d="M36.1,17.4c-1,0-2-0.1-3-0.2c-0.7-0.1-1.2-0.7-1.1-1.4c0.1-0.7,0.7-1.2,1.4-1.1c1.4,0.2,2.8,0.2,4.1,0.1
		c1-0.1,2-0.2,3.1-0.5c0.7-0.1,1.3,0.3,1.5,1c0.1,0.7-0.3,1.3-1,1.5c-1.1,0.2-2.2,0.4-3.3,0.5C37.2,17.4,36.6,17.4,36.1,17.4z"/>
</g>
<g>
	<path class="st0" d="M41.2,10.9c-0.2,0-0.3,0-0.5-0.1c-0.6-0.3-0.9-1-0.6-1.6c0.4-0.9,0.7-1.9,0.9-2.8c0.1-0.5,0.1-0.9,0-1.3
		c-0.2-0.7,0.2-1.3,0.9-1.5c0.7-0.2,1.3,0.2,1.5,0.9c0.2,0.8,0.2,1.7,0,2.5c-0.2,1.1-0.6,2.2-1.1,3.3C42.2,10.6,41.7,10.9,41.2,10.9
		z"/>
</g>
<g>
	<path class="st0" d="M46.3,18.5c-0.7,0-1.2-0.5-1.2-1.2c0-0.1-0.1-2.5,0-5c0.1-2.4,0.1-4.8,0.1-4.8c0-0.7,0.6-1.2,1.2-1.2l0,0
		c0.7,0,1.2,0.6,1.2,1.2c0,0,0,2.4-0.1,4.9c-0.1,2.4,0,4.8,0,4.8C47.5,17.9,47,18.5,46.3,18.5C46.3,18.5,46.3,18.5,46.3,18.5z"/>
</g>
<g>
	<path class="st0" d="M49.7,11.5c-0.5,0-0.9-0.3-1.1-0.7c-0.3-0.6-0.1-1.4,0.6-1.7l3.7-1.8c0.6-0.3,1.4-0.1,1.7,0.6
		c0.3,0.6,0.1,1.4-0.6,1.7l-3.7,1.8C50.1,11.5,49.9,11.5,49.7,11.5z"/>
</g>
<g>
	<path class="st0" d="M57.5,13.2c-0.6,0-1.1-0.4-1.2-1L55,5.3c-0.1-0.7,0.3-1.3,1-1.5c0.7-0.1,1.3,0.3,1.5,1l1.3,6.9
		c0.1,0.7-0.3,1.3-1,1.5C57.6,13.2,57.5,13.2,57.5,13.2z"/>
</g>
<g>
	<path class="st0" d="M59.9,8.6c-0.6,0-1.1-0.4-1.2-1l-0.9-4.7c-0.1-0.7,0.3-1.3,1-1.5c0.7-0.1,1.3,0.3,1.5,1l0.9,4.7
		c0.1,0.7-0.3,1.3-1,1.5C60.1,8.6,60,8.6,59.9,8.6z"/>
</g>
<g>
	<path class="st0" d="M60.1,10.5c-0.4,0-0.5-0.2-0.7-0.5c-0.4-0.5-0.4-1.1,0-1.6c0.2-0.2,0.4-0.4,0.7-0.4c0.7-0.3,4-1.8,6.2-2.9
		c0.6-0.3,1.4,0,1.7,0.6c0.3,0.6,0,1.4-0.6,1.7C62.5,9.7,60.9,10.5,60.1,10.5z"/>
</g>
<g>
	<path class="st0" d="M63.6,14.5c-0.7,0-1.2-0.6-1.2-1.2c0-0.2,0-0.4,1.1-3.7c0.2-0.7,0.9-1,1.6-0.8c0.7,0.2,1,0.9,0.8,1.6
		c-0.4,1.3-0.9,2.8-1,3.1C64.7,14,64.2,14.5,63.6,14.5z"/>
</g>
<g>
	<path class="st0" d="M68.3,12.5c-0.2,0-0.4-0.1-0.6-0.2c-0.6-0.3-0.8-1.1-0.5-1.7l1.9-3.3c0.3-0.6,1.1-0.8,1.7-0.5
		c0.6,0.3,0.8,1.1,0.5,1.7l-1.9,3.3C69.2,12.3,68.8,12.5,68.3,12.5z"/>
</g>
<g>
	<path class="st0" d="M66.1,14.6c-0.7,0-1.2-0.5-1.2-1.2c0-0.7,0.5-1.3,1.2-1.3l6-0.4c0.7,0,1.3,0.5,1.3,1.2c0,0.7-0.5,1.3-1.2,1.3
		L66.1,14.6C66.1,14.6,66.1,14.6,66.1,14.6z"/>
</g>
<g>
	<path class="st0" d="M65.1,24c-0.5,0-0.9-0.3-1.1-0.7c-0.3-0.6,0-1.4,0.6-1.6l4.3-1.9c0.6-0.3,1.4,0,1.6,0.6c0.3,0.6,0,1.4-0.6,1.6
		l-4.3,1.9C65.4,23.9,65.3,24,65.1,24z"/>
</g>
<g>
	<path class="st0" d="M61.8,28c-0.6,0-1.2-0.5-1.2-1.1c-0.1-0.7,0.4-1.3,1.1-1.4l7.2-0.7c0.7-0.1,1.3,0.4,1.4,1.1s-0.4,1.3-1.1,1.4
		L61.9,28C61.9,28,61.8,28,61.8,28z"/>
</g>
<g>
	<path class="st0" d="M54.9,29.7c-0.1,0-0.2,0-0.3,0c-0.7-0.2-1.1-0.9-0.9-1.5c0.5-1.8,1.1-3.5,1.9-5.2c0-0.1,0.1-0.1,0.1-0.2
		c0.3-0.4,0.6-0.9,0.7-1.4c0.2-0.7,0.9-1,1.5-0.9c0.7,0.2,1,0.9,0.9,1.5c-0.2,0.8-0.6,1.5-1.1,2.2c-0.7,1.5-1.3,3-1.7,4.6
		C56,29.3,55.5,29.7,54.9,29.7z"/>
</g>
<g>
	<path class="st0" d="M45.7,42.6c-0.4,0-0.8-0.2-1.1-0.6c-0.4-0.6-0.2-1.4,0.4-1.7c1-0.6,1.7-1.5,2-2.5c0.5-1.5,1.2-2.9,2.2-4.1
		c0.4-0.5,1.2-0.6,1.8-0.2c0.5,0.4,0.6,1.2,0.2,1.8c-0.8,1-1.4,2.1-1.8,3.3c-0.5,1.6-1.6,3-3.1,3.9C46.1,42.6,45.9,42.6,45.7,42.6z"
		/>
</g>
<g>
	<path class="st0" d="M58.2,37.6c-1,0-1.9-0.1-2.8-0.4c-0.7-0.2-1-0.9-0.8-1.6c0.2-0.7,0.9-1,1.6-0.8c0.8,0.2,1.5,0.3,2.3,0.3
		c0.8-0.2,1.6-0.5,2.4-0.8c0.6-0.3,1.4,0,1.6,0.7c0.3,0.6,0,1.4-0.7,1.6c-0.9,0.4-1.9,0.7-2.9,1c-0.1,0-0.2,0-0.2,0
		C58.6,37.6,58.4,37.6,58.2,37.6z"/>
</g>
<g>
	<path class="st0" d="M52.4,40c-0.6,0-1.1-0.5-1.2-1.1c-0.1-0.7,0.4-1.3,1.1-1.4l3.9-0.5c0.7-0.1,1.3,0.4,1.4,1.1
		c0.1,0.7-0.4,1.3-1.1,1.4L52.6,40C52.6,40,52.5,40,52.4,40z"/>
</g>
<g>
	<path class="st0" d="M53.7,44.9c-0.3,0-0.6-0.1-0.8-0.3c-0.5-0.5-0.6-1.2-0.1-1.8c0.9-1,1.9-1.9,3.1-2.6c0.1,0,0.1-0.1,0.2-0.1
		c1-0.4,2.1-0.7,3.1-0.8c0.7-0.1,1.3,0.4,1.4,1.1c0.1,0.7-0.4,1.3-1.1,1.4c-0.8,0.1-1.6,0.3-2.4,0.6c-0.9,0.6-1.7,1.3-2.4,2.1
		C54.4,44.7,54.1,44.9,53.7,44.9z"/>
</g>
<g>
	<path class="st0" d="M53.7,48.4c-0.2,0-0.5-0.1-0.7-0.2l-3.9-2.8c-0.6-0.4-0.7-1.2-0.3-1.7c0.4-0.6,1.2-0.7,1.7-0.3l3.9,2.8
		c0.6,0.4,0.7,1.2,0.3,1.7C54.5,48.2,54.1,48.4,53.7,48.4z"/>
</g>
<g>
	<path class="st0" d="M18.7,4.8C18.7,4.8,18.7,4.8,18.7,4.8c-1,0-1.7-1-2.1-1.8c-0.2-0.5,0-1.1,0.4-1.3c0.5-0.2,1.1,0,1.3,0.4
		c0,0.1,0.1,0.1,0.1,0.2c0,0,0-0.1,0-0.1c0.1-0.5,0.6-0.9,1.2-0.8c0.5,0.1,0.9,0.6,0.8,1.2C20.3,3.4,19.9,4.8,18.7,4.8z"/>
</g>
<g>
	<path class="st0" d="M23.9,6.9C23.9,6.9,23.9,6.9,23.9,6.9c-1-0.1-1.6-1-2-1.8c-0.2-0.5,0-1.1,0.5-1.3c0.5-0.2,1.1,0,1.3,0.5
		c0,0,0,0.1,0.1,0.1c0,0,0,0,0-0.1c0.1-0.5,0.6-0.9,1.2-0.8c0.5,0.1,0.9,0.6,0.8,1.2C25.5,5.5,25.1,6.9,23.9,6.9z"/>
</g>
<g>
	<path class="st0" d="M30.3,4.1C30.3,4.1,30.3,4.1,30.3,4.1c-1,0-1.7-1.1-2.1-1.8c-0.2-0.5,0-1.1,0.4-1.3c0.5-0.2,1.1,0,1.3,0.4
		c0,0.1,0.1,0.1,0.1,0.2c0,0,0-0.1,0-0.1c0.1-0.5,0.6-0.9,1.2-0.8c0.5,0.1,0.9,0.6,0.8,1.2C31.9,2.7,31.4,4.1,30.3,4.1z"/>
</g>
<g>
	<path class="st0" d="M42.2,5.4C42.2,5.4,42.2,5.4,42.2,5.4c-1,0-1.7-1.2-2.1-1.8c-0.2-0.5,0-1.1,0.5-1.3c0.5-0.2,1.1,0,1.3,0.5
		c0,0,0.1,0.1,0.1,0.2c0,0,0-0.1,0-0.1c0.1-0.5,0.6-0.9,1.2-0.8c0.5,0.1,0.9,0.6,0.8,1.2C43.8,4,43.4,5.4,42.2,5.4z"/>
</g>
<g>
	<path class="st0" d="M46.3,8.5C46.3,8.5,46.2,8.5,46.3,8.5c-1,0-1.7-1.2-2.1-1.8c-0.2-0.5,0-1.1,0.5-1.3c0.5-0.2,1.1,0,1.3,0.5
		c0,0,0.1,0.1,0.1,0.2c0,0,0-0.1,0-0.1c0.1-0.5,0.6-0.9,1.2-0.8c0.5,0.1,0.9,0.6,0.8,1.2C47.9,7.1,47.5,8.5,46.3,8.5z"/>
</g>
<g>
	<path class="st0" d="M50.6,6.5C50.5,6.5,50.5,6.5,50.6,6.5c-1,0-1.7-1.2-2.1-1.8c-0.2-0.5,0-1.1,0.5-1.3s1.1,0,1.3,0.5
		c0,0.1,0.1,0.1,0.1,0.2c0,0,0-0.1,0-0.1c0.1-0.5,0.6-0.9,1.2-0.8c0.5,0.1,0.9,0.6,0.8,1.2C52.2,5.1,51.7,6.5,50.6,6.5z"/>
</g>
<g>
	<path class="st0" d="M31.5,9.1C31.5,9.1,31.5,9.1,31.5,9.1c-1,0-1.7-1-2.1-1.8c-0.2-0.5,0-1.1,0.4-1.3c0.5-0.2,1.1,0,1.3,0.4
		c0,0.1,0.1,0.1,0.1,0.2c0,0,0-0.1,0-0.1c0.1-0.5,0.6-0.9,1.2-0.8c0.5,0.1,0.9,0.6,0.8,1.2C33.1,7.7,32.7,9.1,31.5,9.1z"/>
</g>
<g>
	<path class="st0" d="M10.2,14.8c-0.6,0-1.3-0.2-1.7-0.4C8,14.1,7.8,13.5,8,13c0.2-0.5,0.8-0.7,1.3-0.5c0.1,0,0.1,0,0.2,0.1
		c0,0,0-0.1,0-0.1c-0.3-0.5-0.1-1.1,0.4-1.4c0.5-0.3,1.1-0.1,1.4,0.4c0.4,0.8,1,2.2,0,2.9C10.9,14.7,10.6,14.8,10.2,14.8z"/>
</g>
<g>
	<path class="st0" d="M14.8,13.4C14.7,13.4,14.7,13.4,14.8,13.4c-1,0-1.7-1-2.1-1.8c-0.2-0.5,0-1.1,0.5-1.3c0.5-0.2,1.1,0,1.3,0.5
		c0,0.1,0.1,0.1,0.1,0.2c0,0,0-0.1,0-0.1c0.1-0.5,0.6-0.9,1.2-0.8c0.5,0.1,0.9,0.6,0.8,1.2C16.4,12,15.9,13.4,14.8,13.4z"/>
</g>
<g>
	<path class="st0" d="M3.9,24c-0.3,0-0.7-0.2-0.9-0.5c-0.3-0.5-0.1-1.1,0.4-1.4c0,0,0.1-0.1,0.1-0.1c0,0-0.1,0-0.1,0
		c-0.5-0.1-0.9-0.6-0.9-1.1C2.7,20.4,3.1,20,3.7,20c0.9,0.1,2.3,0.5,2.4,1.7c0,0.9-0.9,1.7-1.7,2.1C4.2,23.9,4.1,24,3.9,24z"/>
</g>
<g>
	<path class="st0" d="M6,32c-0.3,0-0.7-0.2-0.9-0.5C4.9,31,5,30.4,5.5,30.1c0,0,0.1-0.1,0.1-0.1c0,0-0.1,0-0.1,0
		c-0.5-0.1-0.9-0.6-0.9-1.1C4.7,28.4,5.2,28,5.8,28c0.9,0.1,2.4,0.5,2.4,1.7c0,1-1,1.8-1.7,2.1C6.3,31.9,6.2,32,6,32z"/>
</g>
<g>
	<path class="st0" d="M22.1,15.9c-0.6,0-1.2-0.2-1.7-0.4c-0.5-0.2-0.7-0.8-0.5-1.3c0.2-0.5,0.8-0.7,1.3-0.5c0.1,0,0.1,0,0.2,0.1
		c0,0,0-0.1,0-0.1c-0.3-0.5-0.1-1.1,0.4-1.3c0.5-0.3,1.1-0.1,1.3,0.4c0.4,0.8,1,2.2,0,2.9C22.8,15.8,22.5,15.9,22.1,15.9z"/>
</g>
<g>
	<path class="st0" d="M12,38.7c-0.6,0-1.2-0.2-1.7-0.4c-0.5-0.2-0.7-0.8-0.5-1.3c0.2-0.5,0.8-0.7,1.3-0.5c0.1,0,0.1,0,0.2,0.1
		c0,0,0-0.1,0-0.1c-0.3-0.5-0.1-1.1,0.4-1.3c0.5-0.3,1.1-0.1,1.3,0.4c0.4,0.8,1,2.2,0,2.9C12.7,38.6,12.3,38.7,12,38.7z"/>
</g>
<g>
	<path class="st0" d="M10.1,42.9c-0.3,0-0.7-0.2-0.9-0.5C9,41.9,9.2,41.3,9.6,41c0,0,0.1-0.1,0.1-0.1c0,0-0.1,0-0.1,0
		c-0.5-0.1-0.9-0.6-0.9-1.1c0.1-0.5,0.6-0.9,1.1-0.9c0.9,0.1,2.4,0.5,2.4,1.7c0,0.9-0.9,1.7-1.7,2.1C10.5,42.8,10.3,42.9,10.1,42.9z
		"/>
</g>
<g>
	<path class="st0" d="M5.7,51.3c-0.3,0-0.7-0.2-0.9-0.5c-0.3-0.5-0.1-1.1,0.3-1.4c0,0,0.1,0,0.1-0.1c0,0,0,0,0,0
		c-0.5-0.1-0.9-0.5-0.9-1.1s0.5-0.9,1.1-0.9C7,47.5,7.9,48.1,7.9,49c0,0.9-0.9,1.6-1.7,2.1C6,51.2,5.9,51.3,5.7,51.3z"/>
</g>
<g>
	<path class="st0" d="M8.8,48.3c-0.3,0-0.7-0.2-0.9-0.5c-0.3-0.5-0.1-1.1,0.4-1.4c0,0,0.1,0,0.1-0.1c0,0,0,0-0.1,0
		c-0.5-0.1-0.9-0.6-0.9-1.1s0.6-0.9,1.1-0.9c0.9,0.1,2.4,0.4,2.4,1.7c0,0.9-0.9,1.7-1.7,2.1C9.1,48.2,8.9,48.3,8.8,48.3z"/>
</g>
<g>
	<path class="st0" d="M9,54.8c-0.1,0-0.2,0-0.3,0c-0.5-0.1-0.8-0.7-0.7-1.2c0-0.1,0-0.1,0-0.2c0,0-0.1,0-0.1,0.1
		c-0.4,0.3-1.1,0.2-1.4-0.2c-0.3-0.4-0.2-1.1,0.2-1.4c0.7-0.5,2-1.3,2.9-0.5c0.7,0.6,0.5,1.8,0.3,2.7C9.8,54.6,9.4,54.8,9,54.8z"/>
</g>
<g>
	<path class="st0" d="M13.4,59.1c-0.1,0-0.2,0-0.3,0c-0.5-0.1-0.8-0.7-0.7-1.2c0-0.1,0-0.1,0-0.2c0,0-0.1,0-0.1,0.1
		c-0.4,0.3-1.1,0.2-1.4-0.2c-0.3-0.4-0.2-1.1,0.2-1.4c0.7-0.5,2-1.3,2.9-0.4c0.6,0.6,0.5,1.8,0.3,2.7C14.2,58.8,13.8,59.1,13.4,59.1
		z"/>
</g>
<g>
	<path class="st0" d="M10.3,58.1c-0.1,0-0.2,0-0.3,0c-0.5-0.1-0.8-0.7-0.7-1.2c0-0.1,0-0.1,0-0.2c0,0-0.1,0-0.1,0.1
		c-0.4,0.3-1.1,0.2-1.4-0.2c-0.3-0.4-0.2-1.1,0.2-1.4c0.7-0.5,2-1.3,2.9-0.4c0.6,0.6,0.5,1.8,0.3,2.7C11.1,57.8,10.7,58.1,10.3,58.1
		z"/>
</g>
<g>
	<path class="st0" d="M16.7,36.3c-0.1,0-0.2,0-0.3,0c-0.9-0.2-1.4-1.2-1.7-2.1c-0.2-0.5,0.1-1.1,0.6-1.3c0.5-0.2,1.1,0.1,1.3,0.6
		c0,0,0,0.1,0,0.1c0,0,0,0,0,0c0.2-0.5,0.7-0.8,1.3-0.6c0.5,0.2,0.8,0.7,0.6,1.3C18.3,35,17.7,36.3,16.7,36.3z"/>
</g>
<g>
	<path class="st0" d="M18.2,59c-0.4,0-0.8-0.3-1-0.7c-0.3-0.8-0.5-2.3,0.6-2.9c0.9-0.4,2,0.2,2.6,0.7c0.4,0.3,0.5,0.9,0.2,1.4
		s-0.9,0.5-1.4,0.2c0,0-0.1-0.1-0.2-0.1c0,0,0,0.1,0,0.1c0.2,0.5-0.1,1.1-0.7,1.2C18.4,59,18.3,59,18.2,59z"/>
</g>
<g>
	<path class="st0" d="M22.8,57.5c-0.4,0-0.8-0.3-0.9-0.7c-0.5-1.5-0.3-2.5,0.5-2.9c0.9-0.4,2,0.2,2.6,0.7c0.4,0.3,0.5,0.9,0.2,1.4
		c-0.3,0.4-0.9,0.6-1.4,0.2c0,0-0.1,0-0.1-0.1c0,0,0,0,0,0c0.2,0.5-0.1,1.1-0.6,1.3C23.1,57.5,23,57.5,22.8,57.5z"/>
</g>
<g>
	<path class="st0" d="M53.9,49.9c-0.4,0-0.8-0.3-0.9-0.7c-0.3-0.9-0.6-2.4,0.5-2.9c0.8-0.4,1.9,0.2,2.6,0.7c0.4,0.3,0.5,0.9,0.2,1.4
		s-0.9,0.5-1.4,0.2c0,0-0.1,0-0.1-0.1c0,0,0,0,0,0c0.2,0.5-0.1,1.1-0.6,1.3C54.1,49.9,54,49.9,53.9,49.9z"/>
</g>
<g>
	<path class="st0" d="M20.3,20.3c-1,0-1.7-1.1-2-1.8c-0.2-0.5,0-1.1,0.5-1.3c0.5-0.2,1.1,0,1.3,0.5c0,0,0,0.1,0.1,0.1
		c0,0,0-0.1,0-0.1c0.1-0.5,0.6-0.9,1.2-0.8c0.5,0.1,0.9,0.6,0.8,1.2C22,18.9,21.5,20.3,20.3,20.3z"/>
</g>
<g>
	<path class="st0" d="M30.8,24.4C30.8,24.4,30.8,24.4,30.8,24.4c-1-0.1-1.7-1.2-2.1-1.8c-0.2-0.5,0-1.1,0.5-1.3
		c0.5-0.2,1.1,0,1.3,0.5c0,0.1,0.1,0.1,0.1,0.2c0,0,0-0.1,0-0.1c0.1-0.5,0.6-0.9,1.2-0.8c0.5,0.1,0.9,0.6,0.8,1.2
		C32.5,23,32,24.4,30.8,24.4z"/>
</g>
<g>
	<path class="st0" d="M37.5,8.5c-0.6,0-1.2-0.2-1.7-0.4c-0.5-0.2-0.7-0.8-0.5-1.3c0.2-0.5,0.8-0.7,1.3-0.5c0.1,0,0.1,0,0.2,0.1
		c0,0,0-0.1,0-0.1c-0.3-0.5-0.1-1.1,0.4-1.3c0.5-0.3,1.1-0.1,1.3,0.4c0.4,0.8,1,2.2,0,2.9C38.2,8.4,37.9,8.5,37.5,8.5z"/>
</g>
<g>
	<path class="st0" d="M37.4,22.5c-0.6,0-1.1-0.2-1.4-0.7c-0.5-0.9,0.1-2,0.6-2.7c0.3-0.5,0.9-0.6,1.4-0.3c0.5,0.3,0.6,0.9,0.3,1.4
		c0,0.1-0.1,0.1-0.1,0.2c0,0,0.1,0,0.1,0c0.5-0.2,1.1,0.1,1.3,0.6c0.2,0.5-0.1,1.1-0.6,1.3C38.4,22.3,37.9,22.5,37.4,22.5z"/>
</g>
<g>
	<path class="st0" d="M37.5,13.7c-0.4,0-0.7-0.1-1-0.4c-0.7-0.7-0.4-2-0.2-2.7c0.2-0.5,0.7-0.8,1.3-0.6c0.5,0.2,0.8,0.7,0.6,1.3
		c0,0.1,0,0.1-0.1,0.2c0,0,0.1-0.1,0.1-0.1c0.5-0.3,1.1-0.2,1.4,0.3c0.3,0.5,0.2,1.1-0.3,1.4C39,13.3,38.2,13.7,37.5,13.7z
		 M38.1,12.1L38.1,12.1L38.1,12.1z"/>
</g>
<g>
	<path class="st0" d="M34.4,11.4c-0.6,0-1.2-0.2-1.5-0.7c-0.5-0.9,0.2-2,0.6-2.6c0.3-0.5,0.9-0.6,1.4-0.3c0.5,0.3,0.6,0.9,0.3,1.4
		c0,0.1-0.1,0.1-0.1,0.2c0.1,0,0.1,0,0.1,0c0.5-0.2,1.1,0.1,1.3,0.6c0.2,0.5-0.1,1.1-0.6,1.3C35.5,11.3,34.9,11.4,34.4,11.4z"/>
</g>
<g>
	<path class="st0" d="M54,9.6c-0.6,0-1.1-0.2-1.4-0.7c-0.5-0.9,0.2-2,0.6-2.6C53.4,5.8,54,5.7,54.5,6c0.5,0.3,0.6,0.9,0.3,1.4
		c0,0.1-0.1,0.1-0.1,0.2c0,0,0.1,0,0.1,0c0.5-0.2,1.1,0.1,1.3,0.6c0.2,0.5-0.1,1.1-0.6,1.3C55,9.5,54.5,9.6,54,9.6z"/>
</g>
<g>
	<path class="st0" d="M50.3,35.6c-0.3,0-0.5-0.1-0.8-0.2c-0.8-0.6-0.8-1.9-0.7-2.6c0.1-0.5,0.6-0.9,1.1-0.9c0.5,0.1,0.9,0.6,0.9,1.1
		c0,0.1,0,0.1,0,0.2c0,0,0,0,0.1-0.1c0.4-0.4,1-0.4,1.4,0c0.4,0.4,0.4,1,0,1.4C51.8,34.9,51,35.6,50.3,35.6z M50.8,33.9L50.8,33.9
		L50.8,33.9z"/>
</g>
<g>
	<path class="st0" d="M39.9,25.8c-0.8,0-1.6-0.2-1.9-1c-0.4-1,0.5-2,1-2.6c0.4-0.4,1-0.4,1.4,0c0.4,0.4,0.4,1,0,1.4
		c0,0-0.1,0.1-0.1,0.1c0,0,0.1,0,0.1,0c0.6-0.1,1.1,0.3,1.1,0.8c0.1,0.5-0.3,1.1-0.8,1.1C40.5,25.8,40.2,25.8,39.9,25.8z"/>
</g>
<g>
	<path class="st0" d="M62.5,36.7c-0.8,0-1.6-0.2-1.9-1c-0.4-1,0.5-2,1-2.6c0.4-0.4,1-0.4,1.4,0c0.4,0.4,0.4,1,0,1.4
		c0,0-0.1,0.1-0.1,0.1c0,0,0.1,0,0.1,0c0.6-0.1,1.1,0.3,1.1,0.8c0.1,0.5-0.3,1.1-0.8,1.1C63.1,36.7,62.8,36.7,62.5,36.7z"/>
</g>
<g>
	<path class="st0" d="M60.3,41.9c-0.8,0-1.6-0.2-1.9-1c-0.4-1,0.5-2,1-2.6c0.4-0.4,1-0.4,1.4,0c0.4,0.4,0.4,1,0,1.4
		c0,0-0.1,0.1-0.1,0.1c0,0,0.1,0,0.1,0c0.6-0.1,1.1,0.3,1.1,0.8c0.1,0.5-0.3,1.1-0.8,1.1C60.9,41.8,60.6,41.9,60.3,41.9z"/>
</g>
<g>
	<path class="st0" d="M70.5,28.2c-0.1,0-0.3,0-0.4-0.1c-0.8-0.4-2.1-1.2-1.7-2.3c0.3-0.9,1.5-1.3,2.3-1.5c0.5-0.1,1.1,0.2,1.2,0.8
		s-0.2,1.1-0.8,1.2c0,0-0.1,0-0.2,0c0,0,0.1,0,0.1,0c0.5,0.2,0.7,0.8,0.5,1.3C71.3,28,70.9,28.2,70.5,28.2z"/>
</g>
<g>
	<path class="st0" d="M70.5,22.2c-0.8,0-1.6-0.2-1.9-1c-0.4-1,0.5-2,1-2.6c0.4-0.4,1-0.4,1.4,0c0.4,0.4,0.4,1,0,1.4
		c0,0-0.1,0.1-0.1,0.1c0,0,0.1,0,0.1,0c0.6-0.1,1.1,0.3,1.1,0.8c0.1,0.5-0.3,1.1-0.8,1.1C71.1,22.2,70.8,22.2,70.5,22.2z"/>
</g>
<g>
	<path class="st0" d="M57.8,40.1c-0.1,0-0.2,0-0.3-0.1c-1.5-0.5-2.2-1.3-2-2.1c0.2-0.9,1.3-1.4,2.1-1.7c0.5-0.2,1.1,0.1,1.2,0.7
		c0.2,0.5-0.1,1.1-0.7,1.2c0,0-0.1,0-0.1,0c0,0,0,0,0,0c0.5,0.2,0.8,0.7,0.6,1.3C58.6,39.9,58.2,40.1,57.8,40.1z"/>
</g>
<g>
	<path class="st0" d="M57.2,35.1c-0.3,0-0.5-0.1-0.8-0.2c-0.8-0.5-0.8-1.7-0.7-2.6c0.1-0.5,0.6-0.9,1.1-0.9c0.5,0.1,0.9,0.6,0.9,1.1
		c0,0.1,0,0.1,0,0.2c0,0,0.1-0.1,0.1-0.1c0.4-0.4,1-0.4,1.4,0c0.4,0.4,0.4,1,0,1.4C58.8,34.4,58,35.1,57.2,35.1z M57.8,33.4
		L57.8,33.4L57.8,33.4z"/>
</g>
<g>
	<path class="st0" d="M57.8,22.4c-0.3,0-0.5-0.1-0.8-0.3c-0.8-0.6-0.7-1.9-0.7-2.6c0.1-0.5,0.6-0.9,1.1-0.9c0.5,0.1,0.9,0.6,0.9,1.1
		c0,0.1,0,0.1,0,0.2c0,0,0.1-0.1,0.1-0.1c0.4-0.4,1-0.4,1.4,0c0.4,0.4,0.4,1,0,1.4C59.3,21.7,58.6,22.4,57.8,22.4z M58.3,20.7
		L58.3,20.7L58.3,20.7z"/>
</g>
<g>
	<path class="st0" d="M66.1,20c-0.3,0-0.5-0.1-0.8-0.2c-0.8-0.5-0.8-1.7-0.7-2.6c0.1-0.5,0.6-0.9,1.1-0.9c0.5,0.1,0.9,0.6,0.9,1.1
		c0,0.1,0,0.1,0,0.2c0,0,0,0,0.1-0.1c0.4-0.4,1-0.4,1.4,0c0.4,0.4,0.4,1,0,1.4C67.6,19.3,66.9,20,66.1,20z M66.7,18.3L66.7,18.3
		L66.7,18.3z"/>
</g>
<g>
	<path class="st0" d="M73.4,15c-0.1,0-0.3,0-0.4-0.1c-0.8-0.4-2.1-1.2-1.7-2.3c0.3-0.9,1.4-1.3,2.3-1.5c0.5-0.1,1.1,0.2,1.2,0.8
		c0.1,0.5-0.2,1.1-0.8,1.2c-0.1,0-0.1,0-0.2,0c0,0,0.1,0,0.1,0c0.5,0.2,0.7,0.8,0.5,1.3C74.2,14.7,73.8,15,73.4,15z"/>
</g>
<g>
	<path class="st0" d="M75.3,10.7c-0.8,0-1.6-0.2-1.9-1c-0.4-1,0.5-2,1-2.6c0.4-0.4,1-0.4,1.4,0c0.4,0.4,0.4,1,0,1.4
		c0,0-0.1,0.1-0.1,0.1c0,0,0.1,0,0.1,0c0.6-0.1,1.1,0.3,1.1,0.8c0.1,0.5-0.3,1.1-0.8,1.1C75.9,10.6,75.6,10.7,75.3,10.7z"/>
</g>
<g>
	<path class="st0" d="M70.6,8.8c-0.3,0-0.5-0.1-0.8-0.2C69,8,69.1,6.6,69.1,5.9c0.1-0.5,0.6-0.9,1.1-0.9c0.5,0.1,0.9,0.6,0.9,1.1
		c0,0.1,0,0.1,0,0.2c0,0,0.1-0.1,0.1-0.1c0.4-0.4,1-0.4,1.4,0s0.4,1,0,1.4C72.1,8.1,71.3,8.8,70.6,8.8z M71.1,7.1L71.1,7.1L71.1,7.1
		z"/>
</g>
<g>
	<path class="st0" d="M64.9,10.9c-0.3,0-0.5-0.1-0.8-0.2c-0.8-0.6-0.8-1.9-0.7-2.6c0.1-0.5,0.6-0.9,1.1-0.9c0.5,0.1,0.9,0.6,0.9,1.1
		c0,0.1,0,0.1,0,0.2c0,0,0,0,0.1-0.1c0.4-0.4,1-0.4,1.4,0c0.4,0.4,0.4,1,0,1.4C66.4,10.3,65.7,10.9,64.9,10.9z M65.4,9.3L65.4,9.3
		L65.4,9.3z"/>
</g>
<g>
	<path class="st0" d="M68.1,7.3c-0.8,0-1.6-0.2-1.9-1c-0.4-1,0.5-2,1-2.6c0.4-0.4,1-0.4,1.4,0c0.4,0.4,0.4,1,0,1.4l0,0
		c0,0-0.1,0.1-0.1,0.1c0,0,0.1,0,0.1,0c0.6-0.1,1.1,0.3,1.1,0.8c0.1,0.5-0.3,1.1-0.8,1.1C68.7,7.3,68.4,7.3,68.1,7.3z"/>
</g>
<g>
	<path class="st0" d="M63.1,4.2c-0.3,0-0.5-0.1-0.8-0.2c-0.8-0.5-0.8-1.7-0.7-2.6c0.1-0.5,0.6-0.9,1.1-0.9c0.5,0.1,0.9,0.6,0.9,1.1
		c0,0.1,0,0.1,0,0.2c0,0,0.1-0.1,0.1-0.1c0.4-0.4,1-0.4,1.4,0c0.4,0.4,0.4,1,0,1.4C64.6,3.6,63.9,4.2,63.1,4.2z M63.7,2.6L63.7,2.6
		L63.7,2.6z"/>
</g>
<g>
	<path class="st0" d="M59,3.4C58.9,3.4,58.9,3.4,59,3.4c-1,0-1.7-1-2.1-1.8c-0.2-0.5,0-1.1,0.4-1.3c0.5-0.2,1.1,0,1.3,0.4
		c0,0.1,0.1,0.1,0.1,0.2c0,0,0-0.1,0-0.1C58.9,0.3,59.4-0.1,60,0c0.5,0.1,0.9,0.6,0.8,1.2C60.6,2,60.1,3.4,59,3.4z"/>
</g>
<g>
	<path class="st0" d="M56.1,5.9C56,5.9,56,5.9,56.1,5.9C55,5.9,54.3,4.8,54,4.1c-0.2-0.5,0-1.1,0.5-1.3c0.5-0.2,1.1,0,1.3,0.5
		c0,0.1,0.1,0.1,0.1,0.2c0,0,0-0.1,0-0.1c0.1-0.5,0.6-0.9,1.2-0.8c0.5,0.1,0.9,0.6,0.8,1.2C57.7,4.5,57.2,5.9,56.1,5.9z"/>
</g>
<g>
	<path class="st0" d="M59.9,46.6c-0.1,0-0.2,0-0.3-0.1c-1.5-0.5-2.2-1.3-2-2.2c0.2-0.9,1.3-1.4,2.1-1.7c0.5-0.2,1.1,0.1,1.2,0.7
		c0.2,0.5-0.1,1.1-0.7,1.2c0,0-0.1,0-0.1,0c0,0,0,0,0,0c0.5,0.2,0.8,0.7,0.6,1.3C60.7,46.3,60.3,46.6,59.9,46.6z"/>
</g>
<g>
	<path class="st0" d="M25.4,50.5c-0.1,0-0.2,0-0.3-0.1c-1.5-0.5-2.2-1.3-2-2.1c0.2-0.9,1.3-1.4,2.1-1.7c0.5-0.2,1.1,0.1,1.2,0.7
		c0.2,0.5-0.1,1.1-0.7,1.2c0,0-0.1,0-0.1,0c0,0,0,0,0,0c0.5,0.2,0.8,0.7,0.6,1.3C26.2,50.3,25.8,50.5,25.4,50.5z"/>
</g>
<g>
	<path class="st0" d="M24.9,53.7c-0.1,0-0.2,0-0.3-0.1c-0.8-0.3-2.2-1-2-2.2c0.2-1,1.4-1.5,2.1-1.7c0.5-0.2,1.1,0.1,1.2,0.7
		c0.2,0.5-0.1,1.1-0.7,1.2c0,0-0.1,0-0.1,0c0,0,0.1,0,0.1,0c0.5,0.2,0.8,0.8,0.6,1.3C25.7,53.4,25.3,53.7,24.9,53.7z"/>
</g>
<g>
	<path class="st0" d="M23.3,46.3c-0.9,0-1.5-0.3-1.8-1c-0.3-1,0.4-2,0.9-2.5c0.4-0.4,1-0.4,1.4-0.1c0.4,0.4,0.4,1,0.1,1.4
		c0,0-0.1,0.1-0.1,0.1c0,0,0.1,0,0.1,0c0.5-0.1,1.1,0.2,1.2,0.8c0.1,0.5-0.2,1.1-0.8,1.2C24,46.2,23.7,46.3,23.3,46.3z"/>
</g>
</svg>
