<?xml version="1.0" encoding="utf-8"?>
<!-- Generator: Adobe Illustrator 22.0.1, SVG Export Plug-In . SVG Version: 6.00 Build 0)  -->
<svg version="1.1" id="parc" xmlns="http://www.w3.org/2000/svg" xmlns:xlink="http://www.w3.org/1999/xlink" x="0px" y="0px"
	 viewBox="0 0 73.3 73.5" style="enable-background:new 0 0 73.3 73.5;" xml:space="preserve">
<style type="text/css">
	.st0{fill:#808285;}
</style>
<title>1-Parc</title>
<g>
	<path class="st0" d="M59.3,72.8h-2.5V64H28.2v8.8h-2.5V64l-1.9,0c-0.2,0-0.4,0-0.6-0.1c-1.5-0.4-2.4-2-2-3.6L22,57
		c0.2-1.2,1.3-2.2,2.6-2.2l3.6,0v-0.9l-1.3,0c-1.6-0.3-2.8-1.5-3.1-3.1c-0.2-1,0-2,0.6-2.8s1.4-1.4,2.4-1.6l0.2,0l-0.1,0
		c-1.8-0.2-3.2-1.6-3.4-3.4c-0.1-1,0.2-2,0.8-2.8c0.6-0.8,1.5-1.3,2.5-1.4l0.1,0l30.3,0c1.8,0.2,3.2,1.6,3.4,3.4
		c0.2,2.1-1.3,4-3.4,4.2l-0.1,0l0.2,0c1.6,0.3,2.8,1.5,3.1,3.1c0.4,2.1-1,4-3.1,4.4l-0.2,0l-1,0v0.8H60c1.4,0.1,2.5,1,2.7,2.3
		l0.7,3.3c0,0.1,0.1,0.3,0.1,0.5c0.1,1.6-1.1,3-2.7,3.1l-1.5,0V72.8z M28.2,61.5l32.5,0c0.1,0,0.3-0.2,0.3-0.4l0-0.1l-0.8-3.4
		c0-0.2-0.1-0.3-0.3-0.3h-2.5v0.1H28.3v-0.1h-3.6c-0.1,0-0.2,0.1-0.2,0.2l-0.8,3.4c-0.1,0.3,0,0.5,0.3,0.5L28.2,61.5z M30.8,54.8
		h23.2v-0.9H30.8V54.8z M30.8,51.4l26.5,0c0.6-0.2,1.1-0.8,1-1.5c-0.1-0.5-0.5-0.9-1-1H27.4c-0.3,0.1-0.6,0.3-0.7,0.5
		c-0.2,0.3-0.3,0.6-0.2,1c0.1,0.5,0.5,0.9,1,1L30.8,51.4z M29.5,46.4h25.7H29.5z M29,43.9h28.3c0.3,0,0.6-0.2,0.8-0.5
		c0.2-0.3,0.3-0.6,0.3-0.9c-0.1-0.6-0.5-1-1.1-1.1h-30c-0.7,0.1-1.2,0.7-1.1,1.4c0.1,0.6,0.5,1,1.1,1.1H29z"/>
</g>
<g>
	<polygon class="st0" points="17.6,72.1 15.1,72.1 15.1,65.4 0,65.4 7.6,50.2 3.2,50.2 10.1,36.4 5,36.4 23.2,0 41.4,36.4 
		34.2,36.4 34.2,33.9 37.4,33.9 23.2,5.6 9,33.9 14.1,33.9 7.3,47.7 11.7,47.7 4,62.9 17.6,62.9 	"/>
</g>
<g>
	<path class="st0" d="M72.5,26.8H62.3l-0.9-14.7h11.9L72.5,26.8z M64.7,24.3h5.5l0.6-9.7h-6.6L64.7,24.3z"/>
</g>
<g>
	<rect x="66.2" y="27.1" class="st0" width="2.5" height="42.9"/>
</g>
<g>
	<rect x="66.2" y="9.4" class="st0" width="2.5" height="2.7"/>
</g>
<g>
	<rect x="63.5" y="71" class="st0" width="7.8" height="2.5"/>
</g>
</svg>
