<?xml version="1.0" encoding="utf-8"?>
<!-- Generator: Adobe Illustrator 22.0.1, SVG Export Plug-In . SVG Version: 6.00 Build 0)  -->
<svg version="1.1" id="Poissons" xmlns="http://www.w3.org/2000/svg" xmlns:xlink="http://www.w3.org/1999/xlink" x="0px" y="0px"
	 viewBox="0 0 77.3 69.5" style="enable-background:new 0 0 77.3 69.5;" xml:space="preserve">
<style type="text/css">
	.st0{fill:#808184;}
</style>
<title>2-Poissons</title>
<g>
	<path class="st0" d="M44.1,69.5c-13.8,0-36.4-25.4-36.4-34.7C7.7,25.4,30.2,0,44.1,0c13.7,0,33.3,25.9,33.3,34.7
		C77.4,43.5,57.7,69.5,44.1,69.5z M44.1,2.3c-12.1,0-34,24.1-34,32.4c0,8.3,21.9,32.4,34,32.4C56.2,67.1,75,42.3,75,34.7
		C75,27.2,56.2,2.3,44.1,2.3z"/>
</g>
<g>
	<path class="st0" d="M45.7,60.5c-11.3,0-22.9-9.9-29.8-15.8c-2.3-1.9-4.8-4.1-5.5-4.2c-1.3,0-3.1,2.4-4.3,3.9C4.8,46,4,47,3,47
		c-0.5,0-1-0.2-1.3-0.6c-0.7-0.9-0.5-2.2-0.1-4.6c0.3-2,0.8-4.4,0.8-7.1c0-3-0.9-6.2-1.6-8.5c-0.7-2.4-1.1-3.6-0.4-4.5
		c0.3-0.4,0.7-0.6,1.2-0.6c1,0,1.7,0.8,3.4,2.9c1.4,1.7,3.8,4.6,5.1,4.6c0.6-0.1,2.9-2.3,5-4.1C21.4,18.7,32,9,43.2,9
		c16,0,32.9,16.7,32.9,25.7C76.1,43.2,62,60.5,45.7,60.5z M10.3,38.1c1.3,0,3,1.4,7,4.8c6.7,5.7,17.9,15.2,28.3,15.2
		c14.8,0,28.1-15.9,28.1-23.4c0-3.7-4-9.6-9.7-14.4c-6.7-5.7-14.3-8.9-20.9-8.9c-10.3,0-20.5,9.4-26.5,14.9C13,29.6,11.5,31,10.1,31
		c-2.4,0-4.8-2.9-6.9-5.4c-0.1-0.1-0.2-0.2-0.2-0.3C3,25.4,3,25.5,3,25.6c0.7,2.4,1.7,5.7,1.7,9.1c0,2.9-0.5,5.6-0.8,7.5
		c-0.1,0.4-0.2,0.9-0.2,1.3C3.9,43.3,4,43.1,4.2,43C5.8,40.8,7.9,38.1,10.3,38.1z"/>
</g>
<g>
	<path class="st0" d="M49.3,39.3c-0.5,0-0.9-0.3-1.1-0.7c-0.8-1.7-1.2-3.4-1.3-5.3c0-0.3,0.1-0.7,0.4-0.9c0.3-0.2,0.6-0.3,0.9-0.3
		c2.6,0.3,5,1.4,6.9,3.1c0.3,0.2,0.4,0.6,0.4,0.9c0,0.4-0.2,0.7-0.4,0.9C53.5,38.4,51.5,39.1,49.3,39.3
		C49.4,39.3,49.3,39.3,49.3,39.3z M49.5,34.7c0.1,0.7,0.3,1.4,0.6,2.1c0.8-0.1,1.6-0.4,2.4-0.8C51.5,35.5,50.5,35,49.5,34.7z"/>
</g>
<g>
	<path class="st0" d="M65.6,36.4c-1.8,0-3.3-2.1-3.3-4.7c0-2.7,1.4-4.7,3.3-4.7c1.8,0,3.3,2.1,3.3,4.7
		C68.8,34.3,67.4,36.4,65.6,36.4z M65.6,28.7c-0.7,0-1.5,1.3-1.5,2.9c0,1.7,0.8,2.9,1.5,2.9c0.7,0,1.5-1.3,1.5-2.9
		C67,30,66.3,28.7,65.6,28.7z"/>
</g>
<g>
	<path class="st0" d="M64.5,51.1c-3.8,0-8.2-6.5-8.2-14.8c0-3.1,0.9-6.2,2.5-8.8c0.3-0.6,1.1-0.7,1.6-0.4c0.6,0.3,0.7,1.1,0.4,1.6
		c-1.4,2.3-2.1,4.9-2.1,7.6c0,7.8,4,12.5,5.8,12.5c0.6,0,1.2,0.5,1.2,1.2S65.1,51.1,64.5,51.1z"/>
</g>
<g>
	<path class="st0" d="M67.7,43.2h-0.2c-1.2,0-2.2-1.2-2.4-2.8c-0.1-0.6,0.4-1.2,1.1-1.3c0.7-0.1,1.2,0.4,1.3,1.1
		c0,0.3,0.1,0.5,0.2,0.6c3.4-0.9,6.8-4.8,7.1-5.3l1.8,1.5C75.9,38,72,42.3,68,43.2C67.9,43.2,67.8,43.2,67.7,43.2z"/>
</g>
<g>
	<path class="st0" d="M41.4,35.2H17.1c-0.6,0-1.2-0.5-1.2-1.2s0.5-1.2,1.2-1.2h24.3c0.6,0,1.2,0.5,1.2,1.2S42,35.2,41.4,35.2z"/>
</g>
</svg>
