<?xml version="1.0" encoding="utf-8"?>
<!-- Generator: Adobe Illustrator 22.0.1, SVG Export Plug-In . SVG Version: 6.00 Build 0)  -->
<svg version="1.1" id="protégé" xmlns="http://www.w3.org/2000/svg" xmlns:xlink="http://www.w3.org/1999/xlink" x="0px" y="0px"
	 viewBox="0 0 72.5 72.5" style="enable-background:new 0 0 72.5 72.5;" xml:space="preserve">
<style type="text/css">
	.st0{fill:#808285;}
</style>
<title>1-Protege</title>
<g>
	<path class="st0" d="M51.4,72.5H21.1c-0.7,0-1.2-0.6-1.2-1.2v-9.9L1.4,53.3c-0.4-0.2-0.7-0.6-0.7-1.1L0,31.8
		c-0.1-2.1,1.5-3.8,3.5-3.9c2-0.2,3.9,1.3,4.1,3.3l1.7,12.6c0.4,0.1,0.8,0.3,1.1,0.4c0-0.1,0.1-0.2,0.1-0.4l0.5-1.2
		c0.4-0.9,1.1-1.5,1.9-1.8c0.8-0.3,1.7-0.3,2.5,0.1l5.1,2.2c2.2-1.4,4.8-1.9,7.4-1.5c1.6-1.7,3.3-2.9,5.1-3.5
		c-1.3-1.9-3.9-5.7-4.6-6.8c-0.2,0-0.4,0-0.6,0c-2.6-0.1-4.9-1.4-6.5-3.4c-0.1-0.1-0.1-0.1-0.2-0.2c-2.2-3.2-1.6-7.5-0.2-9
		c0.1-0.1,0.2-0.2,0.3-0.2c0.1-0.2,0.3-0.3,0.5-0.4c1.9-0.7,6,0.2,8.2,3.5c0,0,0,0,0,0c1.1,1.6,1.6,3.4,1.5,5.3
		c0,1.1-0.3,2.2-0.9,3.2c0.5,0.7,1.5,2.3,3.8,5.6l0-14c-3-1.1-6.5-5-6.5-10.3c0-6.3,6.1-10.5,7.3-11.1c0.2-0.1,0.4-0.1,0.6-0.1
		C36,0,36.4,0,36.7,0.1C37.9,0.7,44,5.1,44,11.3c0,2.8-1,5.5-2.8,7.7c-1.1,1.4-2.7,2.4-4.5,2.9l0.1,15.8c2.5,0.3,4.9,1.6,7.1,4
		c2.7-0.4,5.4,0.1,7.7,1.6l5.5-2.3c1.6-0.7,3.6,0,4.3,1.6l0.5,1.3c0,0.1,0.1,0.2,0.1,0.3c0.3-0.1,0.7-0.3,1.1-0.4l1.7-12.6
		c0.2-2,2-3.5,4-3.4c2.1,0.1,3.7,2,3.6,4.1l-0.7,20.3c0,0.5-0.3,0.9-0.7,1.1l-18.4,8.1v9.9C52.6,71.9,52.1,72.5,51.4,72.5z M37.3,70
		h12.9v-9.5c0-0.5,0.3-0.9,0.7-1.1l18.4-8.1L70,31.7c0-0.8-0.5-1.4-1.2-1.4c-0.7-0.1-1.3,0.5-1.4,1.2l-1.8,13.4
		c-0.1,0.5-0.4,0.9-0.8,1c-0.9,0.3-1.7,0.6-2.4,0.9c-0.5,0.2-0.9,0.4-1.3,0.5c0,0-0.1,0-0.1,0l-14.1,6.4l-1-2.3l13.9-6.3
		c0-0.1,0-0.2,0-0.3l-0.5-1.3c-0.1-0.3-0.6-0.5-1-0.3l-6.7,2.8l0,0l-8.9,3.9c-2.6,1-4.6,3.2-5.2,5.8c0,0,0,0,0,0V70z M22.4,70h12.4
		l0-14.4c-0.6-2.6-2.5-4.7-5-5.7l-9.1-4l0,0l-6.4-2.8c-0.2-0.1-0.4-0.1-0.6,0c-0.2,0.1-0.3,0.2-0.4,0.4l-0.5,1.2
		c-0.1,0.1-0.1,0.2-0.1,0.3l13.6,6.1l-1,2.3l-14.1-6.4l0-0.1L10.9,47c-0.9-0.3-1.9-0.7-3.2-1.2c-0.4-0.2-0.8-0.5-0.8-1L5.1,31.5
		c-0.1-0.7-0.7-1.2-1.4-1.1c0,0-0.1,0-0.1,0c-0.7,0-1.2,0.6-1.2,1.3l0.7,19.7l18.5,8.1c0.5,0.2,0.7,0.6,0.7,1.1V70z M23.5,44.4
		l7.4,3.2c2.2,0.9,4.1,2.5,5.3,4.5c1.2-2.1,3.2-3.7,5.5-4.5l7.1-3.1c-1.5-0.5-3.2-0.7-4.8-0.3c-0.5,0.1-0.9-0.1-1.2-0.4
		c-2.1-2.5-4.3-3.8-6.7-3.8s-4.5,1.2-6.6,3.7c-0.3,0.4-0.8,0.5-1.3,0.4C26.5,43.8,24.9,43.9,23.5,44.4z M23.1,26.1
		c0,0,0.1,0.1,0.1,0.2c0.8,1.1,2,2,3.3,2.3l-4.3-6.2C22.1,23.4,22.3,24.8,23.1,26.1z M24.7,20.7l4.3,6.2c0,0,0,0,0,0
		c0.1-1.4-0.3-2.7-1.1-3.9C27,21.7,25.7,21,24.7,20.7z M37.4,3.7V19c0.7-0.4,1.4-0.9,1.9-1.6c1.5-1.7,2.2-3.9,2.2-6.1c0,0,0,0,0,0
		C41.5,8,39.2,5.2,37.4,3.7z M34.4,3.8c-1.8,1.5-4.1,4.2-4.1,7.6c0,3.9,2.2,6.6,4.1,7.6V3.8z M44,11.3L44,11.3L44,11.3z"/>
</g>
</svg>
