<?xml version="1.0" encoding="utf-8"?>
<!-- Generator: Adobe Illustrator 22.0.1, SVG Export Plug-In . SVG Version: 6.00 Build 0)  -->
<svg version="1.1" id="ville" xmlns="http://www.w3.org/2000/svg" xmlns:xlink="http://www.w3.org/1999/xlink" x="0px" y="0px"
	 viewBox="0 0 72.5 71.6" style="enable-background:new 0 0 72.5 71.6;" xml:space="preserve">
<style type="text/css">
	.st0{fill:#808285;}
</style>
<title>1-Ville</title>
<g>
	<rect y="47.4" class="st0" width="2.5" height="23.8"/>
</g>
<g>
	<rect x="14.3" y="43.3" class="st0" width="2.5" height="27.9"/>
</g>
<g>
	<rect x="10.7" y="36" transform="matrix(0.8213 -0.5705 0.5705 0.8213 -21.9724 14.3675)" class="st0" width="2.5" height="12.5"/>
</g>
<g>
	<rect x="-1.4" y="41" transform="matrix(0.5696 -0.8219 0.8219 0.5696 -32.6628 22.1474)" class="st0" width="12.5" height="2.5"/>
</g>
<g>
	<rect x="28.5" y="43.3" class="st0" width="2.5" height="27.9"/>
</g>
<g>
	<rect x="25" y="31.9" transform="matrix(0.8216 -0.5701 0.5701 0.8216 -17.102 21.764)" class="st0" width="2.5" height="12.5"/>
</g>
<g>
	<rect x="12.8" y="37" transform="matrix(0.5696 -0.8219 0.8219 0.5696 -23.1874 32.131)" class="st0" width="12.5" height="2.5"/>
</g>
<g>
	<rect x="42.8" y="47.4" class="st0" width="2.5" height="23.8"/>
</g>
<g>
	<rect x="39.2" y="40.3" transform="matrix(0.822 -0.5695 0.5695 0.822 -19.3183 31.3493)" class="st0" width="2.5" height="12.5"/>
</g>
<g>
	
		<rect x="27.1" y="45.3" transform="matrix(0.5696 -0.8219 0.8219 0.5696 -23.9248 47.4627)" class="st0" width="12.5" height="2.5"/>
</g>
<g>
	<rect x="57.1" y="48.5" class="st0" width="2.5" height="22.7"/>
</g>
<g>
	
		<rect x="53.5" y="37.7" transform="matrix(0.8217 -0.5699 0.5699 0.8217 -15.2737 39.0372)" class="st0" width="2.5" height="12.5"/>
</g>
<g>
	
		<rect x="41.4" y="42.7" transform="matrix(0.5705 -0.8213 0.8213 0.5705 -15.6264 57.9807)" class="st0" width="12.5" height="2.5"/>
</g>
<g>
	<path class="st0" d="M11.6,55.4H5.1V48h6.5V55.4z M7.6,52.9h1.5v-2.4H7.6V52.9z"/>
</g>
<g>
	<path class="st0" d="M54.4,55.4H48V48h6.5V55.4z M50.5,52.9h1.5v-2.4h-1.5V52.9z"/>
</g>
<g>
	<path class="st0" d="M16.4,20.8H10v-7.4h6.5V20.8z M12.5,18.2h1.5v-2.4h-1.5V18.2z"/>
</g>
<g>
	<path class="st0" d="M16.4,31.5H10v-7.4h6.5V31.5z M12.5,29h1.5v-2.4h-1.5V29z"/>
</g>
<g>
	<path class="st0" d="M25.5,55.4h-6.5V48h6.5V55.4z M21.6,52.9H23v-2.4h-1.5V52.9z"/>
</g>
<g>
	<path class="st0" d="M40.2,66.2h-6.5v-7.4h6.5V66.2z M36.2,63.7h1.5v-2.4h-1.5V63.7z"/>
</g>
<g>
	<path class="st0" d="M11.6,65.5H5.1v-7.4h6.5V65.5z M7.6,63h1.5v-2.4H7.6V63z"/>
</g>
<g>
	<rect x="3.6" y="37.1" class="st0" width="2.5" height="5.1"/>
</g>
<g>
	<rect x="18" y="33.1" class="st0" width="2.5" height="4.9"/>
</g>
<g>
	<rect x="39.1" y="41.4" class="st0" width="2.5" height="5"/>
</g>
<g>
	<rect x="46.4" y="38.8" class="st0" width="2.5" height="5.1"/>
</g>
<g>
	<path class="st0" d="M23.7,20.8h-6.5v-7.4h6.5V20.8z M19.7,18.2h1.5v-2.4h-1.5V18.2z"/>
</g>
<g>
	<path class="st0" d="M23.7,31.5h-6.5v-7.4h6.5V31.5z M19.7,29h1.5v-2.4h-1.5V29z"/>
</g>
<g>
	<path class="st0" d="M31,20.8h-6.5v-7.4H31V20.8z M27,18.2h1.5v-2.4H27V18.2z"/>
</g>
<g>
	<path class="st0" d="M31,31.5h-6.5v-7.4H31V31.5z M27,29h1.5v-2.4H27V29z"/>
</g>
<g>
	<rect x="3.6" y="69.1" class="st0" width="66.5" height="2.5"/>
</g>
<g>
	<polygon class="st0" points="34.8,41 32.3,41 32.3,10.9 9,10.9 9,35.2 6.5,35.2 6.5,8.4 34.8,8.4 	"/>
</g>
<g>
	<polygon class="st0" points="72.5,70.7 70,70.7 70,2.5 37.4,2.5 37.4,39.8 34.9,39.8 34.9,0 72.5,0 	"/>
</g>
<g>
	<path class="st0" d="M45.6,14.6h-6.5V7.2h6.5V14.6z M41.6,12.1h1.5V9.7h-1.5V12.1z"/>
</g>
<g>
	<path class="st0" d="M45.6,25.4h-6.5V18h6.5V25.4z M41.6,22.9h1.5v-2.4h-1.5V22.9z"/>
</g>
<g>
	<path class="st0" d="M52.8,14.6h-6.5V7.2h6.5V14.6z M48.9,12.1h1.5V9.7h-1.5V12.1z"/>
</g>
<g>
	<path class="st0" d="M52.8,25.4h-6.5V18h6.5V25.4z M48.9,22.9h1.5v-2.4h-1.5V22.9z"/>
</g>
<g>
	<path class="st0" d="M60.1,14.6h-6.5V7.2h6.5V14.6z M56.2,12.1h1.5V9.7h-1.5V12.1z"/>
</g>
<g>
	<path class="st0" d="M60.1,25.4h-6.5V18h6.5V25.4z M56.2,22.9h1.5v-2.4h-1.5V22.9z"/>
</g>
<g>
	<path class="st0" d="M45.4,36.8H39v-7.4h6.5V36.8z M41.5,34.3h1.5v-2.4h-1.5V34.3z"/>
</g>
<g>
	<path class="st0" d="M67.5,14.7H61V7.3h6.5V14.7z M63.5,12.2H65V9.8h-1.5V12.2z"/>
</g>
<g>
	<path class="st0" d="M52.7,36.8h-6.5v-7.4h6.5V36.8z M48.8,34.3h1.5v-2.4h-1.5V34.3z"/>
</g>
<g>
	<path class="st0" d="M67.5,25.5H61v-7.4h6.5V25.5z M63.5,23H65v-2.4h-1.5V23z"/>
</g>
<g>
	<path class="st0" d="M60,36.8h-6.5v-7.4H60V36.8z M56,34.3h1.5v-2.4H56V34.3z"/>
</g>
<g>
	<path class="st0" d="M67.5,37H61v-7.4h6.5V37z M63.5,34.5H65v-2.4h-1.5V34.5z"/>
</g>
<g>
	<path class="st0" d="M67.3,47.6h-6.5v-7.4h6.5V47.6z M63.3,45.1h1.5v-2.4h-1.5V45.1z"/>
</g>
<g>
	<path class="st0" d="M67.3,58.5h-6.5v-7.4h6.5V58.5z M63.3,56h1.5v-2.4h-1.5V56z"/>
</g>
</svg>
