<?xml version="1.0" encoding="utf-8"?>
<!-- Generator: Adobe Illustrator 22.0.1, SVG Export Plug-In . SVG Version: 6.00 Build 0)  -->
<svg version="1.1" id="Arachnides" xmlns="http://www.w3.org/2000/svg" xmlns:xlink="http://www.w3.org/1999/xlink" x="0px" y="0px"
	 viewBox="0 0 73.9 77.5" style="enable-background:new 0 0 73.9 77.5;" xml:space="preserve">
<style type="text/css">
	.st0{fill:#808184;}
</style>
<title>2-Arachnides</title>
<g>
	<path class="st0" d="M36.9,36.4c-0.7,0-1.2-0.6-1.2-1.2V1.2c0-0.7,0.6-1.2,1.2-1.2s1.3,0.6,1.3,1.2v33.9
		C38.2,35.9,37.6,36.4,36.9,36.4z"/>
</g>
<g>
	<path class="st0" d="M36.9,59.9c-1.8,0-9-4.7-9-10.8c-0.1-3.3,1.3-6.5,3.7-8.8c0.5-0.5,1.3-0.4,1.8,0.1c0.5,0.5,0.4,1.3-0.1,1.8
		c-1.9,1.8-3,4.3-2.9,6.9c0,4.2,5.3,7.9,6.5,8.3c1.2-0.4,6.5-4.1,6.5-8.3c0.1-2.6-1-5.1-2.8-6.9c-0.5-0.5-0.5-1.3,0-1.8
		c0.5-0.5,1.3-0.5,1.8,0c2.4,2.3,3.7,5.4,3.6,8.7C45.9,55.2,38.7,59.9,36.9,59.9z M37,57.4L37,57.4L37,57.4z"/>
</g>
<g>
	<path class="st0" d="M42.4,43.2c-0.5,0-0.9-0.3-1.1-0.7c-0.3-0.6,0-1.4,0.6-1.7c7.5-3.4,13.7-10.6,15.4-12.7l-7.4-17.7
		c-0.3-0.6,0-1.4,0.7-1.6c0.6-0.3,1.4,0,1.6,0.7l7.9,19l-0.4,0.6c-0.3,0.4-7.4,9.8-16.8,14C42.7,43.2,42.6,43.2,42.4,43.2z"/>
</g>
<g>
	<path class="st0" d="M43.8,45.5c-0.6,0-1.1-0.4-1.2-1.1c-0.1-0.7,0.4-1.3,1.1-1.4c12.1-1.8,22.5-10.7,25-12.9l-1.9-5.8
		c-0.2-0.7,0.1-1.4,0.8-1.6c0.7-0.2,1.4,0.1,1.6,0.8l2.4,7.3l-0.5,0.5c-0.5,0.5-12.3,12-26.9,14.1C43.9,45.5,43.8,45.5,43.8,45.5z"
		/>
</g>
<g>
	<path class="st0" d="M70,67.1c-0.1,0-0.3,0-0.4-0.1c-0.6-0.2-1-1-0.7-1.6l2.2-5.8c-1.8-2.2-10.1-11-25.8-11c-0.1,0-0.1,0-0.2,0
		c-0.7,0-1.2-0.6-1.2-1.2c0-0.7,0.6-1.3,1.2-1.3c0.1,0,0.1,0,0.2,0c19.3,0,27.9,12,28.3,12.5l0.4,0.5l-2.7,7.1
		C71,66.8,70.5,67.1,70,67.1z"/>
</g>
<g>
	<path class="st0" d="M51.9,77.5c-0.1,0-0.3,0-0.4-0.1c-0.6-0.2-1-1-0.7-1.6l6.6-17.5c-0.9-1.4-4.3-5.7-12.6-7.7
		c-0.7-0.2-1.1-0.8-0.9-1.5c0.2-0.7,0.8-1.1,1.5-0.9c11.2,2.7,14.4,9.2,14.6,9.5l0.2,0.5l-7,18.6C52.9,77.2,52.4,77.5,51.9,77.5z"/>
</g>
<g>
	<path class="st0" d="M31.4,43.1c-0.2,0-0.3,0-0.5-0.1c-9.4-4.2-16.4-13.5-16.7-13.9l-0.4-0.6l7.9-19c0.3-0.6,1-0.9,1.6-0.7
		c0.6,0.3,0.9,1,0.7,1.6l-7.4,17.7c1.6,2,7.8,9.2,15.3,12.6c0.6,0.3,0.9,1,0.6,1.7C32.3,42.8,31.8,43.1,31.4,43.1z"/>
</g>
<g>
	<path class="st0" d="M30.1,45.5c-0.1,0-0.1,0-0.2,0C15.3,43.4,3.5,31.8,3,31.4l-0.5-0.5l2.4-7.3c0.2-0.7,0.9-1,1.6-0.8
		c0.7,0.2,1,0.9,0.8,1.6l-1.9,5.8c2.5,2.3,12.9,11.2,25,12.9c0.7,0.1,1.2,0.7,1.1,1.4C31.2,45.1,30.7,45.5,30.1,45.5z"/>
</g>
<g>
	<path class="st0" d="M3.9,67.1c-0.5,0-1-0.3-1.2-0.8L0,59.2l0.4-0.5c0.4-0.5,9-12.5,28.3-12.5c0.1,0,0.1,0,0.2,0
		c0.7,0,1.2,0.6,1.2,1.3c0,0.7-0.6,1.2-1.2,1.2c-0.1,0-0.1,0-0.2,0c-9.3,0-16,3.1-19.9,5.7c-3.2,2.1-5.2,4.3-6,5.3L5,65.4
		c0.2,0.6-0.1,1.4-0.7,1.6C4.2,67.1,4,67.1,3.9,67.1z"/>
</g>
<g>
	<path class="st0" d="M22,77.5c-0.5,0-1-0.3-1.2-0.8l-7-18.6l0.2-0.5c0.1-0.3,3.4-6.8,14.6-9.5c0.7-0.2,1.3,0.3,1.5,0.9
		c0.2,0.7-0.3,1.3-0.9,1.5c-8.4,2-11.8,6.3-12.6,7.7l6.6,17.5c0.2,0.6-0.1,1.4-0.7,1.6C22.3,77.5,22.1,77.5,22,77.5z"/>
</g>
<g>
	<path class="st0" d="M36.9,42.9c-1.6,0-3-0.2-4.1-0.5c-2.2-0.6-2.6-1.7-2.6-2.6c0-3.1,3-5.6,6.8-5.6c3.7,0,6.7,2.5,6.7,5.6
		C43.7,42.7,38.5,42.9,36.9,42.9z M32.7,39.7c0.4,0.3,1.9,0.7,4.2,0.7s3.8-0.5,4.2-0.7c-0.1-1.7-2-3-4.2-3
		C34.7,36.7,32.8,38,32.7,39.7z"/>
</g>
<g>
	<path class="st0" d="M32.7,41.2c-0.4,0-0.9,0-1.4-0.1c-0.7,0-1.2-0.6-1.2-1.2s0.6-1.2,1.3-1.2c0.1,0,0.2,0,0.3,0
		c1.5,0.2,2.3-0.1,2.6-0.4c0.3-0.3,0.3-0.9,0.1-1.8c-0.2-0.2-0.3-0.5-0.3-0.9c0-0.7,0.6-1.2,1.2-1.2h1.1l0.3,0.9
		c0.6,2,0.5,3.5-0.4,4.6C35.4,40.7,34.2,41.2,32.7,41.2z"/>
</g>
<g>
	<path class="st0" d="M41.1,41.2c-1.6,0-2.8-0.5-3.5-1.3c-0.9-1.1-1-2.6-0.4-4.6l0.3-0.9h1.1c0.7,0,1.2,0.6,1.2,1.2
		c0,0.3-0.1,0.6-0.3,0.9c-0.2,0.8-0.2,1.4,0.1,1.7c0.3,0.3,1.1,0.6,2.6,0.4l0.3,0c0.7,0,1.2,0.6,1.2,1.2c0,0.6-0.5,1.2-1.1,1.2
		C42,41.1,41.6,41.2,41.1,41.2z"/>
</g>
<g>
	<path class="st0" d="M38.4,36.9c-0.3,0-0.7-0.1-0.9-0.4c-0.5-0.5-0.4-1.3,0.1-1.8c0,0,0.1-0.1,0.1-0.2c0,0,0,0,0,0
		c-0.6-0.4-0.7-1.2-0.2-1.8c0.4-0.6,1.2-0.7,1.8-0.2c0.9,0.6,1.1,1.4,1.1,1.9c0,1.2-0.8,2-1,2.2C39,36.8,38.7,36.9,38.4,36.9z
		 M37.8,34.6L37.8,34.6L37.8,34.6z"/>
</g>
<g>
	<path class="st0" d="M35.5,36.9c-0.3,0-0.6-0.1-0.8-0.3c-0.2-0.2-1-1-1-2.2c0-0.5,0.2-1.3,1.1-1.9c0.5-0.4,1.3-0.3,1.8,0.2
		c0.4,0.5,0.3,1.3-0.2,1.8c0,0,0,0,0,0c0,0.1,0.1,0.1,0.1,0.2c0.5,0.5,0.5,1.3,0.1,1.8C36.1,36.8,35.8,36.9,35.5,36.9z"/>
</g>
</svg>
