<?xml version="1.0" encoding="utf-8"?>
<!-- Generator: Adobe Illustrator 22.0.1, SVG Export Plug-In . SVG Version: 6.00 Build 0)  -->
<svg version="1.1" id="Calque_1" xmlns="http://www.w3.org/2000/svg" xmlns:xlink="http://www.w3.org/1999/xlink" x="0px" y="0px"
	 viewBox="0 0 54.1 76.2" style="enable-background:new 0 0 54.1 76.2;" xml:space="preserve">
<style type="text/css">
	.st0{fill:#C43635;}
</style>
<title>iconeArticle</title>
<g>
	<path class="st0" d="M4,76.2c-2.2,0-4-1.8-4-4V4.7c0-2.2,1.8-4,4-4h30.2v2.5H4c-0.8,0-1.5,0.7-1.5,1.5v67.5c0,0.8,0.7,1.5,1.5,1.5
		h45.3c0.8,0,1.5-0.7,1.5-1.5V19.9h2.5v52.4c0,2.2-1.8,4-4,4H4z"/>
</g>
<g>
	<path class="st0" d="M54.1,20.1L36.9,20c-1.5,0-2.8-1.2-2.8-2.7V0L54.1,20.1z"/>
</g>
<g>
	<rect x="12.2" y="15.4" class="st0" width="14.4" height="2.5"/>
</g>
<g>
	<rect x="12.2" y="29.1" class="st0" width="28.9" height="2.5"/>
</g>
<g>
	<rect x="12.2" y="37.1" class="st0" width="28.9" height="2.5"/>
</g>
<g>
	<rect x="12.2" y="45" class="st0" width="28.9" height="2.5"/>
</g>
<g>
	<rect x="12.2" y="53" class="st0" width="14.4" height="2.5"/>
</g>
</svg>
