<svg id="Coraux" xmlns="http://www.w3.org/2000/svg" viewBox="0 0 68.31 68.31"><defs><style>.cls-1{fill:#808184;}</style></defs><title>2-Coraux</title><path class="cls-1" d="M57.92,74.71a5,5,0,0,1-3.59-1.55L40.08,59,25.84,73.16a5,5,0,0,1-3.59,1.55A5.41,5.41,0,0,1,17.49,67l8.57-18.66L8.66,38.49a5.37,5.37,0,0,1-2.54-6.14,5.11,5.11,0,0,1,5.74-3.94l19.53,2.73,3.55-20.31a5.2,5.2,0,0,1,10.28,0l3.56,20.31L68.3,28.41a5.11,5.11,0,0,1,5.75,3.94,5.39,5.39,0,0,1-2.54,6.14L54.1,48.31,62.67,67a5.4,5.4,0,0,1-4.75,7.74ZM40.08,55.46a1.49,1.49,0,0,1,1,.43L56.38,71.11a2.25,2.25,0,0,0,3.53-.47A2.48,2.48,0,0,0,60,68.18L50.9,48.3a1.46,1.46,0,0,1,.61-1.87L70.08,36a2.44,2.44,0,0,0,1.15-2.86,2.28,2.28,0,0,0-2.53-1.8L47.79,34.22A1.45,1.45,0,0,1,46.16,33l-3.8-21.69a2.3,2.3,0,0,0-4.56,0L34,33a1.46,1.46,0,0,1-1.63,1.19L11.46,31.29a2.28,2.28,0,0,0-2.53,1.8A2.44,2.44,0,0,0,10.09,36L28.65,46.43a1.46,1.46,0,0,1,.61,1.87L20.13,68.18a2.48,2.48,0,0,0,.12,2.46,2.25,2.25,0,0,0,3.53.47L39.06,55.89A1.45,1.45,0,0,1,40.08,55.46Z" transform="translate(-5.93 -6.4)"/></svg>