<svg id="EteGris" xmlns="http://www.w3.org/2000/svg" viewBox="0 0 75 75"><defs><style>.cls-1{fill:#808285;}</style></defs><title>3-ete</title><path class="cls-1" d="M78.18,41.22V38.58H67.9a27.16,27.16,0,0,0-7.05-17l7.27-7.28-1.86-1.86L59,19.73a27.11,27.11,0,0,0-17-7V2.4H39.36V12.68a27.11,27.11,0,0,0-17,7.05l-7.28-7.28-1.86,1.86,7.27,7.28a27.22,27.22,0,0,0-7,17H3.18v2.64H13.45a27.22,27.22,0,0,0,7.05,17l-7.27,7.28,1.86,1.86,7.28-7.28a27.11,27.11,0,0,0,17,7.05V77.4H42V67.12a27.11,27.11,0,0,0,17-7.05l7.27,7.28,1.86-1.86-7.27-7.28a27.16,27.16,0,0,0,7.05-17Zm-37.5,23.3A24.62,24.62,0,1,1,65.3,39.9,24.64,24.64,0,0,1,40.68,64.52Z" transform="translate(-3.18 -2.4)"/></svg>