<svg id="Gastéropodes" xmlns="http://www.w3.org/2000/svg" viewBox="0 0 75 69.37"><defs><style>.cls-1{fill:#808184;}</style></defs><title>2-Gasteropodes</title><path class="cls-1" d="M11.64,9.17,31.76,26.08a19.65,19.65,0,0,0,6,25.91A15,15,0,0,0,49.33,54.2,15.26,15.26,0,0,0,59,47.4a13,13,0,0,0,1.76-9.62,12.69,12.69,0,0,0-5.41-8.08A10,10,0,0,0,49.8,28a10.18,10.18,0,0,0-8.58,4.75,8.75,8.75,0,0,0,2.46,11.91,6.77,6.77,0,0,0,3.78,1.15,7,7,0,0,0,1.44-.15,6.93,6.93,0,0,0,4.39-3.08A1.16,1.16,0,0,0,53,41a1.07,1.07,0,0,0-.61-.19,1.1,1.1,0,0,0-.94.52,4.63,4.63,0,0,1-6.51,1.41A6.41,6.41,0,0,1,43.11,34,7.93,7.93,0,0,1,49.8,30.3a7.76,7.76,0,0,1,4.34,1.33,10.38,10.38,0,0,1,4.43,6.62,10.57,10.57,0,0,1-1.44,7.89,13,13,0,0,1-11,6.09A12.78,12.78,0,0,1,39,50.06a17.32,17.32,0,0,1-4.86-23.59,20.92,20.92,0,0,1,13.31-9.33,20.47,20.47,0,0,1,15.87,3A27.14,27.14,0,0,1,74.86,37.4a27.66,27.66,0,0,1-3.74,20.52A33.34,33.34,0,0,1,42.91,73.54,32.82,32.82,0,0,1,24.65,68,43,43,0,0,1,6.37,40.63,43.86,43.86,0,0,1,11.64,9.17m0-2.5a1.84,1.84,0,0,0-.41,0A2.5,2.5,0,0,0,9.49,7.89,46.47,46.47,0,0,0,3.92,41.14,45.47,45.47,0,0,0,23.26,70a35.2,35.2,0,0,0,27.18,5.2,35.84,35.84,0,0,0,22.78-16,30.11,30.11,0,0,0,4.09-22.37,29.61,29.61,0,0,0-12.58-18.8,23.14,23.14,0,0,0-12.86-3.93A23.45,23.45,0,0,0,33,23.81L13.25,7.26a2.52,2.52,0,0,0-1.61-.59Z" transform="translate(-2.95 -6.67)"/></svg>