<?xml version="1.0" encoding="utf-8"?>
<!-- Generator: Adobe Illustrator 22.0.1, SVG Export Plug-In . SVG Version: 6.00 Build 0)  -->
<svg version="1.1" id="Calque_1" xmlns="http://www.w3.org/2000/svg" xmlns:xlink="http://www.w3.org/1999/xlink" x="0px" y="0px"
	 viewBox="0 0 43.7 70.5" style="enable-background:new 0 0 43.7 70.5;" xml:space="preserve">
<style type="text/css">
	.st0{fill:#C43635;}
</style>
<title>IconeLieu</title>
<g>
	<path class="st0" d="M21.9,62c-0.9,0-1.8-0.4-2.4-1.3c-0.4-0.6-0.9-1.2-1.4-2c-0.5-0.6-1-1.3-1.5-2.1C10.3,48.3-0.3,34.1,0,21.8
		C0,9.8,9.8,0,21.9,0c12.1,0,21.9,9.8,21.9,21.9C44,34.1,33.5,48.2,27.2,56.7c-1.3,1.7-2.2,3-3,4c-0.2,0.3-0.5,0.5-0.7,0.7
		C23,61.8,22.4,62,21.9,62z M21.9,2.3c-10.8,0-19.6,8.8-19.6,19.6C2,33.3,12.3,47.1,18.4,55.4c0.5,0.8,1,1.4,1.5,2
		c0.5,0.7,1,1.4,1.5,2l0,0c0.2,0.3,0.6,0.3,0.8,0.2c0.1,0,0.1-0.1,0.2-0.2c0.8-1.1,1.7-2.4,3-4c6.1-8.3,16.3-22.1,16.1-33.5
		C41.4,11.1,32.6,2.3,21.9,2.3z"/>
</g>
<g>
	<path class="st0" d="M21.9,32.5c-6.1,0-11.1-5-11.1-11.1v0c0-6.1,5-11.1,11.1-11.1s11.1,5,11.1,11.1S28,32.5,21.9,32.5z M13.1,21.4
		c0,4.8,3.9,8.8,8.8,8.8c4.8,0,8.8-3.9,8.8-8.8s-3.9-8.8-8.8-8.8C17,12.6,13.1,16.6,13.1,21.4L13.1,21.4z"/>
</g>
<g>
	<path class="st0" d="M21.1,70.5c-4.8,0-9.5-0.9-14-2.7c-4.6-2-7.2-4.9-7.2-8.2C0,56.1,2.9,53,8.3,51l0.8,2.2
		c-4.4,1.7-6.8,4-6.8,6.5c0,2.3,2,4.5,5.7,6.1c4.4,1.7,9,2.6,13.8,2.5c4.8,0.1,9.4-0.8,13.9-2.5c3.6-1.6,5.7-3.8,5.7-6
		c0-2.5-2.5-4.9-6.8-6.5l0.8-2.2c5.3,2,8.3,5.1,8.3,8.6c0,3.3-2.5,6.2-7.1,8.2c-4.7,1.9-9.7,2.8-14.8,2.7
		C21.6,70.5,21.4,70.5,21.1,70.5z"/>
</g>
</svg>
