<?xml version="1.0" encoding="utf-8"?>
<!-- Generator: Adobe Illustrator 22.0.1, SVG Export Plug-In . SVG Version: 6.00 Build 0)  -->
<svg version="1.1" id="Méduse" xmlns="http://www.w3.org/2000/svg" xmlns:xlink="http://www.w3.org/1999/xlink" x="0px" y="0px"
	 viewBox="0 0 49.9 77.5" style="enable-background:new 0 0 49.9 77.5;" xml:space="preserve">
<style type="text/css">
	.st0{fill:#808184;}
</style>
<title>2-Meduses</title>
<g>
	<path class="st0" d="M26,77.5c-0.9,0-1.8-0.4-2.5-1c-4-4-4-10.6,0-14.6c1.8-1.8,1.8-4.8,0-6.6c-4-4-4-10.5,0-14.5
		c1.8-1.8,1.8-4.8,0-6.6c-0.5-0.5-0.5-1.3,0-1.8c0.5-0.5,1.3-0.5,1.8,0c2.7,2.8,2.7,7.3,0,10.1c-3,3.1-3,8,0,11.1
		c2.7,2.9,2.7,7.3,0,10.1c-3,3.1-3,8,0,11.1c0.2,0.2,0.5,0.3,0.8,0.3c0.7,0,1.3,0.5,1.3,1.2S26.7,77.5,26,77.5
		C26,77.5,26,77.5,26,77.5z"/>
</g>
<g>
	<path class="st0" d="M13.1,77.5c-0.9,0-1.8-0.4-2.5-1c-4-4-4-10.6,0-14.6c1.8-1.8,1.8-4.8,0-6.6c-4-4-4-10.5,0-14.5
		c1.8-1.8,1.8-4.8,0-6.6c-0.5-0.5-0.5-1.3,0-1.8c0.5-0.5,1.3-0.5,1.8,0c2.7,2.8,2.7,7.3,0,10.1c-3,3.1-3,8,0,11.1
		c2.7,2.9,2.7,7.3,0,10.1c-3,3.1-3,8,0,11.1c0.2,0.2,0.5,0.3,0.8,0.3c0.7,0,1.3,0.5,1.3,1.2S13.8,77.5,13.1,77.5
		C13.1,77.5,13.1,77.5,13.1,77.5z"/>
</g>
<g>
	<path class="st0" d="M9.9,20.1c-0.7,0-1.2-0.6-1.2-1.2c0-6.5,6.4-11.8,14.2-11.8c0.7,0,1.2,0.6,1.2,1.2s-0.6,1.2-1.2,1.2
		c-6.4,0-11.7,4.2-11.7,9.3C11.1,19.6,10.6,20.1,9.9,20.1z"/>
</g>
<g>
	<path class="st0" d="M38.9,77.5c-0.9,0-1.8-0.4-2.5-1c-4-4-4-10.6,0-14.6c1.8-1.8,1.8-4.8,0-6.6c-4-4-4-10.5,0-14.5
		c1.8-1.8,1.8-4.8,0-6.6c-0.5-0.5-0.5-1.3,0-1.8c0.5-0.5,1.3-0.5,1.8,0c2.7,2.8,2.7,7.3,0,10.1c-3,3.1-3,8,0,11.1
		c2.7,2.9,2.7,7.3,0,10.1c-3,3.1-3,8,0,11.1c0.2,0.2,0.5,0.3,0.8,0.3c0.7,0,1.3,0.5,1.3,1.2S39.7,77.5,38.9,77.5
		C39,77.5,38.9,77.5,38.9,77.5z"/>
</g>
<g>
	<path class="st0" d="M42.3,30.8H7.7c-4.3,0-7.7-2.9-7.7-6.5v-3.5C0,9.3,11.2,0,24.9,0c13.7,0,24.9,9.3,24.9,20.7v7.1
		c0,0.7-0.6,1.2-1.2,1.2s-1.2-0.6-1.2-1.2v-7.1c0-10-10.1-18.2-22.4-18.2c-12.4,0-22.4,8.2-22.4,18.2v3.5c0,2.2,2.3,4,5.2,4h34.6
		c0.7,0,1.2,0.6,1.2,1.2S43,30.8,42.3,30.8z"/>
</g>
</svg>
