<?xml version="1.0" encoding="utf-8"?>
<!-- Generator: Adobe Illustrator 22.0.1, SVG Export Plug-In . SVG Version: 6.00 Build 0)  -->
<svg version="1.1" id="Calque_1" xmlns="http://www.w3.org/2000/svg" xmlns:xlink="http://www.w3.org/1999/xlink" x="0px" y="0px"
	 viewBox="0 0 77.2 77.2" style="enable-background:new 0 0 77.2 77.2;" xml:space="preserve">
<style type="text/css">
	.st0{fill:#808080;}
</style>
<title>IconeModifier</title>
<g>
	<path class="st0" d="M28.1,77.1l-9.5-3.9L17.2,70l1.5-4.3c-0.2-0.6-0.3-1-0.5-1.6c-1.9-1.5-3.6-3.2-5.1-5.1l-1.6-0.5l-4.4,1.4
		L4,58.5L0,49l0.1-0.4c0.3-0.7,0.4-1.2,0.7-1.8l0.4-1.1l4.1-2l0.8-1.5c-0.3-2.4-0.3-4.8,0-7.2l-0.8-1.5l-4.1-2l-0.1-0.4
		c-0.3-0.7-0.4-1.2-0.6-1.7L0,28.1l3.9-9.5l3.2-1.5l4.4,1.5l1.6-0.5c1.5-1.9,3.2-3.6,5.1-5.1l0.5-1.6l-1.5-4.4l1.5-3.2l9.5-3.9
		l3.3,1.2l2,4.1L35,6.1c2.4-0.3,4.8-0.3,7.2,0l1.5-0.8l2-4.1L49,0l9.4,3.9l0.5,1c0.3,0.6,0.5,1.1,0.8,1.8l0.2,0.3l-1.4,4.4l0.5,1.6
		c1.9,1.5,3.6,3.2,5.1,5.1l1.6,0.5l4.4-1.5l3.2,1.5l3.9,9.5l-1.3,3.4l-4.1,2c-0.3,0.5-0.5,0.9-0.8,1.4c0.3,2.4,0.3,4.8,0,7.2
		l0.8,1.5l4.1,2l1.3,3.3l-3.9,9.5L70,59.9l-4.3-1.5L64.1,59c-1.5,1.9-3.2,3.6-5.1,5.1c-0.1,0.3-0.2,0.6-0.3,1l-0.2,0.7l1.3,4.3
		l-0.2,0.3c-0.2,0.4-0.3,0.8-0.5,1.1c-0.2,0.4-0.4,0.8-0.6,1.4l-0.2,0.4l-9.5,3.9l-3.3-1.3l-2-4.1L42.1,71c-2.4,0.3-4.8,0.3-7.2,0
		l-1.4,0.8l-2,4.1L28.1,77.1z M20.2,71.7l8,3.3l1.8-0.7l2-3.9l2.6-1.4l0.3,0c2.4,0.3,4.9,0.3,7.3,0l0.3,0l2.6,1.4l2,3.9l1.8,0.7
		l8-3.3c0.2-0.4,0.3-0.7,0.5-1c0.1-0.2,0.2-0.5,0.3-0.7l-1.3-4.2l0.4-1.3c0.1-0.4,0.2-0.8,0.4-1.2l0.1-0.3l0.2-0.2
		c1.9-1.5,3.7-3.2,5.2-5.2l0.2-0.2l2.8-0.9l4.2,1.4l1.8-0.8l3.3-8l-0.7-1.8l-3.9-2l-1.4-2.6l0-0.3c0.3-2.4,0.3-4.9,0-7.3l0-0.3
		l0.1-0.3c0.4-0.8,0.7-1.3,1.1-2l0.2-0.3l3.9-2l0.8-1.9l-3.3-8l-1.8-0.8l-4.2,1.4l-2.8-0.9l-0.2-0.2c-1.5-1.9-3.3-3.7-5.2-5.2
		l-0.2-0.2l-0.9-2.8l1.4-4.2c-0.2-0.5-0.4-1-0.7-1.4L57,5.5l-8-3.3l-1.8,0.7l-2,4l-2.6,1.4l-0.3,0c-2.4-0.3-4.9-0.3-7.3,0l-0.3,0
		L32,6.8l-2-3.9l-1.8-0.7l-8.1,3.3l-0.8,1.8l1.4,4.2l-0.9,2.8l-0.2,0.2c-1.9,1.5-3.7,3.3-5.2,5.2l-0.2,0.2l-2.8,0.9l-4.2-1.4
		l-1.8,0.8l-3.3,8l0.2,0.5c0.2,0.5,0.3,0.9,0.5,1.4l4,2l1.4,2.6l0,0.3c-0.3,2.4-0.3,4.9,0,7.3l0,0.3l-1.4,2.7l-3.9,2l-0.1,0.4
		C2.5,48,2.4,48.4,2.2,49l3.3,8l1.8,0.8l4.2-1.4l2.8,0.9l0.2,0.2c1.5,1.9,3.3,3.7,5.2,5.2l0.2,0.2l0.1,0.3c0.2,0.8,0.4,1.4,0.7,2.2
		l0.1,0.3l-1.4,4.2L20.2,71.7z"/>
</g>
<g>
	<path class="st0" d="M38.5,62.8c-13.5,0-24.4-11-24.4-24.4c0-13.5,11-24.4,24.4-24.4S63,24.9,63,38.4C63,51.8,52,62.8,38.5,62.8z
		 M38.5,16C26.2,16,16.1,26,16.1,38.4s10.1,22.4,22.4,22.4S61,50.7,61,38.4S50.9,16,38.5,16z"/>
</g>
</svg>
