<?xml version="1.0" encoding="UTF-8"?>
<svg width="62px" height="59px" viewBox="0 0 62 59" version="1.1" xmlns="http://www.w3.org/2000/svg" xmlns:xlink="http://www.w3.org/1999/xlink">
    <!-- Generator: Sketch 42 (36781) - http://www.bohemiancoding.com/sketch -->
    <title>niveauInities</title>
    <desc>Created with Sketch.</desc>
    <defs></defs>
    <g id="Page-1" stroke="none" stroke-width="1" fill="none" fill-rule="evenodd">
        <g id="niveauInities" fill-rule="nonzero">
            <path d="M19.3,58.4 L17,58.4 L17,24.4 L27.9,24.4 C30.4,24.4 31.8,22.1 32.4,20.6 L7,20.6 C4.4,20.7 2.3,22.8 2.4,25.5 L2.4,36.5 C2.5,38.5 4.1,40.1 6.1,40.2 L6,42.5 C2.8,42.3 0.3,39.7 0.1,36.5 L0.1,25.4 C0.1,23.5 0.7,21.8 2,20.4 C3.3,19 5,18.3 6.9,18.2 L7.2,18.2 L35.4,18.2 L35.1,19.6 C35,19.9 33.5,26.6 27.9,26.6 L19.3,26.6 L19.3,58.4 L19.3,58.4 Z" id="Shape" fill="#808285"></path>
            <path d="M11.8,17 L11.5,17 C10,16.9 8.5,16.3 7.5,15.1 C6.5,13.9 6,12.5 6,10.9 L6,8.5 L6,8 C6.2,4.8 8.9,2.4 12.1,2.5 L12.6,2.5 C14.2,2.6 15.6,3.2 16.6,4.4 C17.6,5.6 18.2,7 18.1,8.6 L18.1,11 L18.1,11.5 C18,14.7 15.3,17.2 12.1,17 L11.8,17 Z M11.9,4.8 C10,4.8 8.5,6.3 8.4,8.1 L8.4,8.4 L8.4,10.9 C8.3,12.9 9.8,14.5 11.8,14.6 L12.1,14.6 L12.2,14.6 L12.3,14.6 C13.2,14.6 14.1,14.3 14.8,13.7 C15.5,13.1 15.9,12.2 15.9,11.3 L15.9,11 L15.9,8.5 C15.9,7.5 15.6,6.6 15,5.9 C14.4,5.2 13.5,4.8 12.6,4.8 L12.3,4.8 L12.2,4.8 L12.1,4.8 C12,4.8 11.9,4.8 11.9,4.8 Z" id="Shape" fill="#808285"></path>
            <rect id="Rectangle-path" fill="#808285" x="4.9" y="28" width="2.3" height="30.4"></rect>
            <rect id="Rectangle-path" fill="#808285" x="11" y="40.2" width="2.3" height="18.3"></rect>
            <g id="Group" transform="translate(41.000000, 5.000000)">
                <path d="M1.5,2.3 L1.5,12 C6.4,10.1 11.6,11.1 16.1,14.4 L12.3,8.3 L16.1,4.7 C11.6,1.4 6.4,0.5 1.5,2.3 Z" id="Shape" fill="#A93938"></path>
                <path d="M20.2,18.8 L15.5,15.4 C11.2,12.2 6.4,11.4 1.9,13.1 L0.3,13.7 L0.3,1.5 L1,1.2 C6.2,-0.8 11.8,0.2 16.7,3.8 L18,4.6 L13.9,8.5 L20.2,18.8 Z M6.6,9.9 C8.7,9.9 10.8,10.3 12.9,11.2 L11,8.2 L14.4,4.9 C10.6,2.5 6.5,1.9 2.7,3.1 L2.7,10.4 C4,10.1 5.3,9.9 6.6,9.9 Z" id="Shape" fill="#808285"></path>
            </g>
            <g id="Group" transform="translate(28.000000, 1.000000)">
                <path d="M1.2,2.7 L1.2,12.5 C4.9,10.9 10.9,10.8 14.6,12.5 L14.6,2.7 C10.9,1 4.8,1 1.2,2.7 Z" id="Shape" fill="#A93938"></path>
                <path d="M15.7,14.2 L14.1,13.5 C10.8,12 5.1,12 1.6,13.5 L0,14.2 L0,1.9 L0.7,1.6 C4.6,-0.2 11,-0.2 15,1.6 L15.7,1.9 L15.7,14.2 Z M2.3,3.4 L2.3,10.8 C5.7,9.8 10.1,9.8 13.4,10.8 L13.4,3.4 C10.2,2.3 5.5,2.3 2.3,3.4 Z" id="Shape" fill="#808285"></path>
            </g>
            <rect id="Rectangle-path" fill="#808285" x="28" y="0" width="2.3" height="19.5"></rect>
            <rect id="Rectangle-path" fill="#808285" x="28" y="25.6" width="2.3" height="32.9"></rect>
        </g>
    </g>
</svg>