<?xml version="1.0" encoding="utf-8"?>
<!-- Generator: Adobe Illustrator 22.0.1, SVG Export Plug-In . SVG Version: 6.00 Build 0)  -->
<svg version="1.1" id="Calque_1" xmlns="http://www.w3.org/2000/svg" xmlns:xlink="http://www.w3.org/1999/xlink" x="0px" y="0px"
	 viewBox="0 0 54 56.8" style="enable-background:new 0 0 54 56.8;" xml:space="preserve">
<style type="text/css">
	.st0{fill:#1C4B5F;}
</style>
<title>IconeObservatoire</title>
<g>
	<path class="st0" d="M26.5,29.9c-0.2,0-0.3,0-0.5-0.1l-19-10.9c-0.4-0.3-0.6-0.8-0.3-1.3C7,17.1,7.5,17,8,17.2l18.2,10.5l5.7-9.9
		L13.7,7.3c-0.4-0.3-0.6-0.8-0.3-1.3s0.8-0.6,1.3-0.3l19,11c0.2,0.1,0.4,0.3,0.4,0.6c0.1,0.2,0,0.5-0.1,0.7l-6.6,11.5
		C27.1,29.8,26.8,29.9,26.5,29.9z"/>
</g>
<g>
	<path class="st0" d="M45,37.6c-0.2,0-0.3,0-0.5-0.1l-17.2-10c-0.4-0.3-0.6-0.8-0.3-1.3c0.3-0.4,0.8-0.6,1.3-0.3l16.4,9.5l3.1-5.4
		l-16.4-9.5c-0.4-0.3-0.6-0.8-0.3-1.3c0.3-0.4,0.8-0.6,1.3-0.3l17.2,10c0.2,0.1,0.4,0.3,0.4,0.6s0,0.5-0.1,0.7l-4,7
		c-0.1,0.2-0.3,0.4-0.6,0.4C45.2,37.6,45.1,37.6,45,37.6z"/>
</g>
<g>
	<path class="st0" d="M50.9,38.9c-0.2,0-0.3,0-0.5-0.1l-5-2.9c-0.4-0.3-0.6-0.8-0.3-1.3c0.3-0.4,0.8-0.6,1.3-0.3l4.1,2.4l1.3-2.2
		l-4.2-2.4c-0.4-0.3-0.6-0.8-0.3-1.3c0.3-0.4,0.8-0.6,1.3-0.3l5,2.9c0.2,0.1,0.4,0.3,0.4,0.6s0,0.5-0.1,0.7l-2.2,3.8
		C51.5,38.7,51.2,38.9,50.9,38.9z"/>
</g>
<g>
	<path class="st0" d="M6,21.7c-0.2,0-0.3,0-0.5-0.1l-5-2.9c-0.4-0.3-0.6-0.8-0.3-1.3L9.9,0.5C10,0.2,10.2,0.1,10.5,0
		C10.7,0,11,0,11.2,0.1l5,2.9c0.4,0.3,0.6,0.8,0.3,1.3L6.8,21.2c-0.1,0.2-0.3,0.4-0.6,0.4C6.1,21.7,6,21.7,6,21.7z M2.2,17.5l3.4,2
		l8.9-15.3l-3.4-2L2.2,17.5z"/>
</g>
<g>
	<path class="st0" d="M28.5,34.7c-2,0-3.7-1.7-3.7-3.7c0-2,1.7-3.7,3.7-3.7c2,0,3.7,1.7,3.7,3.7C32.2,33,30.5,34.7,28.5,34.7z
		 M28.5,29.1c-1,0-1.8,0.8-1.8,1.8s0.8,1.8,1.8,1.8c1,0,1.8-0.8,1.8-1.8S29.5,29.1,28.5,29.1z"/>
</g>
<g>
	<path class="st0" d="M28.5,56.8c-0.5,0-0.9-0.4-0.9-0.9V33.7c0-0.5,0.4-0.9,0.9-0.9s0.9,0.4,0.9,0.9v22.2
		C29.4,56.4,29,56.8,28.5,56.8z"/>
</g>
<g>
	<path class="st0" d="M17.1,56.1c-0.1,0-0.3,0-0.4-0.1c-0.5-0.2-0.6-0.8-0.4-1.2l10.5-21.5c0.2-0.5,0.8-0.6,1.2-0.4
		c0.5,0.2,0.6,0.8,0.4,1.2L17.9,55.6C17.7,55.9,17.4,56.1,17.1,56.1z"/>
</g>
<g>
	<path class="st0" d="M39.9,56.1c-0.3,0-0.7-0.2-0.8-0.5L28.5,34.1c-0.2-0.5,0-1,0.4-1.2c0.5-0.2,1,0,1.2,0.4l10.5,21.5
		c0.2,0.5,0,1-0.4,1.2C40.2,56.1,40,56.1,39.9,56.1z"/>
</g>
</svg>
