<?xml version="1.0" encoding="utf-8"?>
<!-- Generator: Adobe Illustrator 22.0.1, SVG Export Plug-In . SVG Version: 6.00 Build 0)  -->
<svg version="1.1" id="Oiseaux" xmlns="http://www.w3.org/2000/svg" xmlns:xlink="http://www.w3.org/1999/xlink" x="0px" y="0px"
	 viewBox="0 0 77.5 68.1" style="enable-background:new 0 0 77.5 68.1;" xml:space="preserve">
<style type="text/css">
	.st0{fill:#4C4C4C;}
</style>
<title>2-Oiseaux</title>
<g>
	<path class="st0" d="M57.4,68.1c-0.8,0-1.5-0.3-2.1-0.8l-7.7-7.5c-5.8-1.1-11.2-3.3-16.1-6.5C28.8,53.7,26,54,23.1,54
		c-6.6,0-12-1.6-16.1-4.8C3,46,0.5,41.2,0,36c-0.1-0.9,0.3-1.7,0.9-2.3c0.6-0.6,1.5-0.9,2.3-0.8c2.6,0.3,7.9-0.3,11.2-0.7
		c-0.9-2.1-1.6-4.3-2.2-6.5c-0.4-1.1-0.6-2.4-0.8-3.6l-5.5-3.8c-0.8-0.6-1.3-1.5-1.3-2.5c0.1-1.6,1.4-2.9,3-2.8l4.1,0
		c0.8-2.9,2.6-5.4,5.1-7.1c3.4-2.2,7.6-2.8,11.5-1.7c5.6,1.4,11.9,6,18.5,13.6c8.7-6.9,14-12.4,15.5-16c0.2-0.4,0.4-0.7,0.7-1
		C63.7,0.3,64.4,0,65.2,0c0.8,0,1.5,0.3,2.1,0.9c0.1,0.1,13.1,13.5,8.1,26c-2.5,6.3-8.3,10.5-13,13.1c0.2,0.3,0.3,0.6,0.5,0.9
		l12.6,3.9c0.9,0.3,1.6,0.9,1.9,1.7c0,0,0,0,0,0c0.3,0.9,0.2,1.8-0.3,2.6c0,0-0.1,0.1-0.1,0.1c-2,3.1-9.3,13.6-18.2,18.5
		C58.4,67.9,57.9,68.1,57.4,68.1C57.4,68.1,57.4,68.1,57.4,68.1z M31.8,50.7c0.2,0,0.5,0.1,0.7,0.2c4.9,3.2,10.2,5.4,16,6.5
		c0.2,0,0.5,0.2,0.6,0.3l8,7.7c0.1,0.1,0.2,0.1,0.3,0.1c0,0,0,0,0,0c0.1,0,0.1,0,0.2-0.1c8.6-4.7,15.9-15.6,17.3-17.7
		c0,0,0.1-0.1,0.1-0.1c0.1-0.1,0.1-0.2,0-0.4c0-0.1-0.1-0.2-0.3-0.2l-13.1-4c-0.3-0.1-0.6-0.3-0.7-0.6c-0.4-0.7-0.8-1.5-1.3-2.2
		l-0.1-0.2c-0.2-0.3-0.2-0.7-0.1-1s0.3-0.6,0.6-0.8c4.6-2.3,10.5-6.3,13-12.4C77.5,15,65.6,2.8,65.5,2.6c-0.1-0.1-0.2-0.1-0.3-0.1
		c-0.1,0-0.2,0-0.3,0.1c0,0-0.1,0.1-0.1,0.2C63,6.9,57.3,12.9,47.6,20.5c-0.5,0.4-1.3,0.3-1.7-0.2C39.2,12.6,33.1,7.9,27.7,6.6
		c-3.2-0.9-6.7-0.4-9.5,1.4c-2.2,1.5-3.8,3.8-4.3,6.5c-0.1,0.6-0.6,1-1.2,1H7.6c-0.3,0-0.5,0.2-0.5,0.4c0,0.2,0.1,0.3,0.2,0.4
		l5.9,4.1c0.3,0.2,0.5,0.5,0.5,0.9c0.2,1.3,0.5,2.6,0.8,3.9c0.7,2.7,1.6,5.2,2.7,7.6c0.2,0.4,0.2,0.8,0,1.1
		c-0.2,0.4-0.5,0.6-0.9,0.6C12.8,35,6.2,35.7,3,35.4c-0.1,0-0.3,0-0.3,0.1c-0.1,0.1-0.1,0.2-0.1,0.3c0.4,4.4,2.7,8.6,6.2,11.4
		c3.6,2.8,8.5,4.3,14.5,4.3c2.8,0,5.7-0.3,8.4-0.8C31.6,50.7,31.7,50.7,31.8,50.7z"/>
</g>
<g>
	<path class="st0" d="M22.9,11.7c-1.2,0-2.1,0.9-2.1,2.1c0,1.2,0.9,2.1,2.1,2.1C24,16,25,15,25,13.9c0,0,0,0,0,0
		C25,12.7,24.1,11.7,22.9,11.7z"/>
</g>
</svg>
