<?xml version="1.0" encoding="utf-8"?>
<!-- Generator: Adobe Illustrator 22.0.1, SVG Export Plug-In . SVG Version: 6.00 Build 0)  -->
<svg version="1.1" id="paysages" xmlns="http://www.w3.org/2000/svg" xmlns:xlink="http://www.w3.org/1999/xlink" x="0px" y="0px"
	 viewBox="0 0 70.6 71.2" style="enable-background:new 0 0 70.6 71.2;" xml:space="preserve">
<style type="text/css">
	.st0{fill:#808285;}
</style>
<title>1-Paysages</title>
<g>
	<polygon class="st0" points="29.2,45.9 17.3,20.5 4.9,45.7 2.7,44.6 17.4,14.7 31.5,44.8 	"/>
</g>
<g>
	<polygon class="st0" points="43.6,50.2 38.6,40.7 36.2,43.5 30.1,33.7 27.5,37.1 25.5,35.6 30.3,29.3 36.5,39.3 39.1,36.4 
		45.9,49.1 	"/>
</g>
<g>
	<path class="st0" d="M50.1,20.8c-1.5,0-3-0.5-4.2-1.6c-1.3-1.1-2.1-2.7-2.2-4.4c0-0.3,0-0.6,0-0.9c-0.1-3.6,2.7-6.7,6.4-6.8l0.1,0
		l0.1,0c3.6,0.2,6.5,3.2,6.4,6.8c0.1,1.7-0.4,3.3-1.5,4.6c-1.1,1.3-2.7,2.1-4.4,2.2C50.4,20.8,50.2,20.8,50.1,20.8z M50.1,9.6
		c-2.3,0.1-4,2.1-3.9,4.3l0,0.1l0,0.1c0,0.2,0,0.4,0,0.6c0.1,1,0.6,2,1.4,2.7c0.8,0.7,1.8,1,2.9,0.9c1-0.1,2-0.6,2.7-1.4
		c0.7-0.8,1-1.8,0.9-2.9l0-0.1l0-0.1C54.1,11.6,52.3,9.7,50.1,9.6z"/>
</g>
<g>
	<rect x="48.9" class="st0" width="2.5" height="4"/>
</g>
<g>
	<rect x="41.1" y="3.5" transform="matrix(0.7379 -0.6749 0.6749 0.7379 7.446 30.0148)" class="st0" width="2.5" height="3.8"/>
</g>
<g>
	<rect x="37.3" y="12.6" class="st0" width="3.6" height="2.5"/>
</g>
<g>
	<rect x="40.4" y="21.1" transform="matrix(0.6762 -0.7367 0.7367 0.6762 -2.8032 38.3723)" class="st0" width="3.8" height="2.5"/>
</g>
<g>
	<rect x="48.8" y="24" class="st0" width="2.5" height="3.9"/>
</g>
<g>
	
		<rect x="56.6" y="20.6" transform="matrix(0.7369 -0.676 0.676 0.7369 -4.929694e-04 45.0085)" class="st0" width="2.5" height="3.8"/>
</g>
<g>
	<rect x="59.3" y="12.8" class="st0" width="3.6" height="2.5"/>
</g>
<g>
	<rect x="56" y="4.3" transform="matrix(0.6746 -0.7382 0.7382 0.6746 14.759 44.5788)" class="st0" width="3.8" height="2.5"/>
</g>
<g>
	<rect x="1.9" y="68.8" class="st0" width="68.7" height="2.5"/>
</g>
<g>
	<path class="st0" d="M68.2,63c-0.1-0.1-7.2-11.9-19.8-11.9c-6.5,0-11.5,3.3-16.4,6.4c-4.8,3.1-9.4,6.1-14.8,5.3l0.4-2.5
		c4.5,0.7,8.5-1.9,13.1-4.9c4.9-3.2,10.5-6.8,17.7-6.8c14,0,21.6,12.6,21.9,13.1L68.2,63z"/>
</g>
<g>
	<path class="st0" d="M1.2,52.4L0,50.2c0.6-0.3,13.9-7.5,22.3-6.8c5.1,0.5,9.9,2.7,13.5,6.2L34,51.5c-3.2-3.2-7.5-5.1-12-5.5
		C14.4,45.3,1.3,52.4,1.2,52.4z"/>
</g>
</svg>
