<?xml version="1.0" encoding="utf-8"?>
<!-- Generator: Adobe Illustrator 22.0.1, SVG Export Plug-In . SVG Version: 6.00 Build 0)  -->
<svg version="1.1" id="PetitMam" xmlns="http://www.w3.org/2000/svg" xmlns:xlink="http://www.w3.org/1999/xlink" x="0px" y="0px"
	 viewBox="0 0 65.7 77.5" style="enable-background:new 0 0 65.7 77.5;" xml:space="preserve">
<style type="text/css">
	.st0{fill:#808184;}
</style>
<title>2-PetitMam</title>
<g>
	<path class="st0" d="M52.5,22.6c0.9-0.3,1.4-1.3,1.1-2.2c-0.3-0.9-1.3-1.4-2.2-1.1c-0.9,0.3-1.4,1.3-1.1,2.2
		C50.6,22.4,51.6,22.9,52.5,22.6C52.5,22.6,52.5,22.6,52.5,22.6z"/>
</g>
<g>
	<path class="st0" d="M53.4,33.5c-0.1,0-0.2,0-0.3,0c-3.4,0.1-6.8-0.7-9.9-2c-0.1,0-0.2-0.1-0.4-0.2c-0.7-0.4-1.2-1.1-1.4-1.8
		c-0.2-0.8-0.1-1.6,0.3-2.3c0.8-1.4,2.7-1.9,4.1-1.1c0.6,0.3,0.8,1.1,0.5,1.7c-0.3,0.6-1.1,0.8-1.7,0.5c-0.2-0.1-0.6-0.1-0.7,0.2
		c-0.1,0.2-0.1,0.3-0.1,0.4s0.1,0.2,0.2,0.3c0,0,0.1,0,0.1,0c2.8,1.2,5.8,1.8,8.9,1.8c0,0,0,0,0.1,0c3.5,0.1,6.9-0.8,9.9-2.5
		c0.1-0.1,0.2-0.2,0.2-0.4c-0.2-7-4.6-13.3-8.8-16.6L53.7,11c-0.7-0.5-1.4-0.9-2.2-1.2c-0.4-0.2-0.7-0.5-0.8-1
		c-0.2-1.6-0.7-3.2-1.4-4.7c-0.3-0.7-0.8-1.2-1.5-1.4c-0.6-0.2-1.3-0.2-2,0C45.2,3,44.8,3.5,44.5,4c-0.9,1.8-1.5,3.7-1.6,5.7
		c0,0.4-0.2,0.7-0.5,0.9c-2.1,1.5-3.7,3.6-4.4,6.1c-0.9,2.6-2.9,4.8-5.4,6c-0.1,0.1-0.2,0.2-0.2,0.3c0,0.1,0,0.2,0,0.4
		c0.1,0.2,0.2,0.2,0.3,0.2c0.1,0,0.2,0,0.4,0c0.6-0.3,1.4-0.1,1.7,0.5s0.1,1.4-0.5,1.7c-0.7,0.4-1.5,0.4-2.3,0.2
		c-0.8-0.2-1.4-0.8-1.8-1.5c-0.4-0.7-0.4-1.5-0.2-2.3c0.2-0.8,0.8-1.4,1.5-1.8c2-0.9,3.4-2.5,4.1-4.5c0.9-2.7,2.6-5.2,4.9-7
		c0.2-2.1,0.8-4.1,1.8-6c0.5-1.1,1.4-2,2.6-2.5c1.2-0.5,2.6-0.6,3.9-0.1C50,0.8,51,1.8,51.5,3c0.7,1.5,1.3,3,1.6,4.7
		c0.7,0.3,1.4,0.7,2.1,1.2l0.7,0.5c4.7,3.6,9.6,10.7,9.8,18.5c0,1.1-0.5,2.1-1.5,2.7C60.9,32.5,57.2,33.5,53.4,33.5z"/>
</g>
<g>
	<path class="st0" d="M21.8,46.5c-0.4,0-0.7-0.2-1-0.5c-0.4-0.5-0.3-1.3,0.2-1.8c2.8-2.3,6.3-3.7,9.9-4.1l-3.7-3.7
		c-0.5-0.5-0.5-1.3,0-1.8c0.5-0.5,1.3-0.5,1.8,0l8,7.9h-3c-0.2,0-0.4,0-0.6,0c-0.1,0-0.3,0-0.5,0c-3.7,0-7.3,1.3-10.2,3.6
		C22.4,46.4,22.1,46.5,21.8,46.5z"/>
</g>
<g>
	<path class="st0" d="M57.6,77.5c-0.1,0-0.2,0-0.3,0l-29.8,0c-0.1,0-0.1,0-0.2,0c-9.1,0-17.6-4.5-22.7-12.1
		C0.6,59.3-0.9,52,0.6,44.8C2,37.7,6.1,31.5,12.2,27.4L26.5,18c2.1-1.4,3.4-3.8,3.4-6.3c0-2-0.8-3.9-2.2-5.3
		c-1.4-1.4-3.3-2.2-5.3-2.2c-4.1,0-7.5,3.4-7.5,7.6c0,0.3,0.2,0.5,0.5,0.5s0.5-0.2,0.5-0.5c0-3.6,2.9-6.5,6.5-6.5c0,0,0,0,0,0
		c0.7,0,1.2,0.6,1.2,1.3c0,0.7-0.6,1.2-1.2,1.2c0,0,0,0,0,0c-2.2,0-4,1.8-4,4c0,1.7-1.3,3-3,3s-3-1.3-3-3c0-2.7,1-5.2,2.9-7.1
		c1.9-1.9,4.4-3,7.1-3c0,0,0,0,0,0c2.7,0,5.2,1,7.1,2.9c1.9,1.9,3,4.4,3,7.1c0,3.4-1.7,6.5-4.5,8.4l-14.3,9.4
		C8,33.2,4.3,38.8,3,45.3c-1.3,6.5,0,13.2,3.7,18.7c4.6,6.9,12.3,11,20.7,11c0,0,0.1,0,0.1,0h29.8c2.2,0.1,4.1-1.6,4.2-3.8
		c0.1-2.2-1.6-4.1-3.8-4.2c-0.1,0-0.2,0-0.3,0L47,67l0.8-1.8c2.9-6.5,1.1-14.1-4.3-18.7l-3.2-2.7l9.9,1.2c1.1,0.1,2.1,0.6,2.9,1.4
		l2.2,2.1c0.1,0.1,0.3,0.2,0.5,0.1c0.2-0.1,0.3-0.3,0.3-0.5V43c0-2.2-1.6-4.1-3.8-4.4l-4.5-0.7c-1.6-0.3-3-1.1-4-2.3
		c-0.4-0.5-0.4-1.3,0.2-1.8s1.3-0.4,1.8,0.2c0.6,0.8,1.5,1.3,2.5,1.4l4.5,0.7c3.4,0.5,5.9,3.4,5.9,6.9v5.3c0,1.2-0.7,2.3-1.9,2.8
		c-0.3,0.1-0.7,0.2-1.1,0.2c-0.8,0-1.6-0.3-2.1-0.9l-2.2-2.1c-0.4-0.4-0.9-0.6-1.5-0.7l-2.2-0.3c3.8,4.8,5,11.3,3.1,17.2h6.7
		c0.1,0,0.3,0,0.5,0c1.7,0.1,3.3,0.8,4.5,2.1s1.8,2.9,1.7,4.7C64,74.8,61.1,77.5,57.6,77.5z"/>
</g>
</svg>
