<?xml version="1.0" encoding="utf-8"?>
<!-- Generator: Adobe Illustrator 22.0.1, SVG Export Plug-In . SVG Version: 6.00 Build 0)  -->
<svg version="1.1" id="Plantes" xmlns="http://www.w3.org/2000/svg" xmlns:xlink="http://www.w3.org/1999/xlink" x="0px" y="0px"
	 viewBox="0 0 77.5 77.5" style="enable-background:new 0 0 77.5 77.5;" xml:space="preserve">
<style type="text/css">
	.st0{fill:#808184;}
</style>
<title>2-Plantes</title>
<g>
	<path class="st0" d="M35.6,66.8c-0.3,0-0.5-0.1-0.8-0.3c-0.6-0.4-0.7-1.2-0.2-1.8l0.5-0.7c2.3-3,3.5-4.7,7.6-6.5
		c0.1-0.1,0.3-0.2,0.4-0.3c7.3-2.7,14.8-2.4,20.9-2.1c0.7,0,1.3,0.6,1.2,1.3c0,0.7-0.5,1.2-1.3,1.2c-5.8-0.2-13-0.5-19.7,1.9
		c-0.1,0.1-0.2,0.2-0.3,0.2c-3.7,1.6-4.7,2.9-6.9,5.8l-0.5,0.7C36.4,66.7,36,66.8,35.6,66.8z"/>
</g>
<g>
	<path class="st0" d="M54.2,70.5c-3,0-5.7-0.8-7.8-2.5c-2.7-2.1-4.2-5.4-4.1-9.3c0-0.3,0.1-0.6,0.4-0.8c-0.2-0.3-0.3-0.6-0.3-1
		c0.4-3,1.8-5.2,4.1-6.7c3.6-2.3,9.2-2.4,15.8-0.5c1.3,0.4,2.5,1,4,1.6c2.6,1.2,5.8,2.7,10.1,3.4c0.5,0.1,0.9,0.5,1,1.1
		s-0.2,1.1-0.7,1.3c-4.1,1.9-6.8,4.5-9.2,6.8c-2.6,2.5-5.1,4.8-8.7,5.8C57.3,70.2,55.7,70.5,54.2,70.5z M44.5,57.9
		c0.2,0.2,0.3,0.5,0.3,0.8c-0.1,3,1.1,5.6,3.2,7.2c2.6,2,6.2,2.5,10.3,1.4c3-0.8,5.1-2.8,7.6-5.2c1.9-1.8,4-3.9,6.9-5.6
		c-3.1-0.8-5.5-1.9-7.5-2.9c-1.4-0.6-2.6-1.2-3.7-1.5c-6-1.8-10.9-1.7-13.8,0.2c-1.7,1.1-2.7,2.7-3,4.9
		C44.8,57.5,44.7,57.8,44.5,57.9z"/>
</g>
<g>
	<path class="st0" d="M36,74.2c-0.6,0-1.2-0.5-1.2-1.2c-0.4-4.6-2.7-8.8-5.8-10.7c-2.6,2.5-6.4,5.2-10.8,5.1
		c-3.2-0.1-6.2-1.6-8.9-4.7c-2.8-3.2-3.7-6.5-4.6-10c-0.9-3.3-1.8-7-4.5-11.4c-0.3-0.5-0.2-1.1,0.1-1.5c0.4-0.4,0.9-0.5,1.4-0.3
		c4.3,1.9,8,1.8,11.2,1.8c2.1,0,3.9-0.1,5.5,0.4c5.4,1.6,9.1,4.3,11,7.9c1.6,3,1.9,6.6,0.8,10.5c4.3,2.6,6.6,8.1,7,12.7
		c0.1,0.7-0.5,1.3-1.1,1.3C36.1,74.2,36.1,74.2,36,74.2z M3.9,43c1.7,3.5,2.5,6.4,3.2,9.1c0.9,3.5,1.7,6.3,4.1,9
		c2.2,2.5,4.6,3.8,7.1,3.8c3.5,0.1,6.8-2.3,8.8-4.2c-4.4-4.8-10-8.6-16.1-10.8c-0.6-0.2-1-1-0.7-1.6c0.2-0.6,1-1,1.6-0.7
		c6.2,2.3,11.8,5.9,16.3,10.7c0.4-2.3,0.4-4.9-0.9-7.4c-1.6-3-4.8-5.2-9.5-6.7c-1.3-0.4-2.9-0.4-4.7-0.3C10.4,43.9,7.4,44,3.9,43z"
		/>
</g>
<g>
	<path class="st0" d="M36.8,77.5c-0.5,0-1-0.3-1.2-0.9C33,68.2,32.9,50.2,36,41.2c-3.8,1.3-8.1,1.4-10.7-1.2
		c-3.8-3.8-4.2-9.8-1.1-14.1c-4.1-3.1-5.5-8.6-3.2-13.3c1.2-2.6,3.4-4.5,6.1-5.4c2.2-0.8,4.6-0.8,6.9,0c1.7-5,6.8-8,12.1-7
		c5.1,1,8.7,5.5,8.7,10.6c2.3,0.1,4.5,0.9,6.4,2.3c2.2,1.8,3.6,4.3,4,7.2c0.6,5.1-2.6,9.8-7.3,11.4c1.5,4.9-0.6,10.2-5.2,12.7
		c-4.1,2.1-10.3-0.9-13.7-3.7c-3.1,7.2-3.7,26-0.8,35.1c0.2,0.7-0.2,1.4-0.8,1.6C37.1,77.5,37,77.5,36.8,77.5z M38.5,37.5
		c0.3,0,0.7,0.1,0.9,0.4c2.7,2.9,8.9,5.9,12,4.3c3.9-2.1,5.5-6.8,3.6-10.8c-0.2-0.4-0.2-0.8,0.1-1.2c0.2-0.3,0.6-0.6,1-0.6
		c4.1-0.8,7-4.8,6.5-9c-0.5-4.5-4.6-7.8-9.1-7.3c-0.4,0-0.7-0.1-1-0.3c-0.3-0.2-0.4-0.6-0.4-0.9c0-0.1,0-0.2,0-0.3
		c0.6-4.3-2.2-8.4-6.5-9.2c-4.4-0.9-8.7,2.1-9.6,6.5c-0.1,0.6-0.6,1-1.2,1c-0.2,0-0.4,0-0.6-0.1c-2-1-4.2-1.1-6.3-0.4
		c-2.1,0.7-3.7,2.2-4.7,4.1c-1.9,4-0.4,8.7,3.4,10.9c0.3,0.2,0.6,0.5,0.6,0.9c0.1,0.4-0.1,0.8-0.3,1.1c-3.2,3.3-3.1,8.5,0.1,11.7
		c2.6,2.5,7.8,1.1,10.7-0.6C37.9,37.6,38.2,37.5,38.5,37.5z"/>
</g>
<g>
	<path class="st0" d="M42,34.7c-0.5,0-1,0-1.5-0.1c-2.8-0.4-5.3-1.9-7.1-4.2c-1.7-2.3-2.5-5.1-2.1-7.9c0.9-5.9,6.3-10,12.1-9.1l0,0
		c2.8,0.4,5.3,1.9,7.1,4.2s2.5,5.1,2.1,7.9c-0.4,2.8-1.9,5.3-4.2,7.1C46.5,34,44.3,34.7,42,34.7z M41.9,15.8c-4,0-7.5,3-8.1,7
		c-0.3,2.2,0.3,4.4,1.6,6.2c1.3,1.8,3.3,2.9,5.4,3.2c2.2,0.3,4.3-0.3,6.1-1.6c1.8-1.3,2.9-3.3,3.2-5.4c0.3-2.2-0.3-4.3-1.6-6.1
		c-1.3-1.8-3.3-2.9-5.4-3.2l0,0C42.7,15.8,42.3,15.8,41.9,15.8z"/>
</g>
</svg>
