<?xml version="1.0" encoding="utf-8"?>
<!-- Generator: Adobe Illustrator 22.0.1, SVG Export Plug-In . SVG Version: 6.00 Build 0)  -->
<svg version="1.1" id="Reptiles" xmlns="http://www.w3.org/2000/svg" xmlns:xlink="http://www.w3.org/1999/xlink" x="0px" y="0px"
	 viewBox="0 0 76.2 76.2" style="enable-background:new 0 0 76.2 76.2;" xml:space="preserve">
<style type="text/css">
	.st0{fill:#9B9B9B;}
</style>
<title>2-Reptiles</title>
<g>
	<path class="st0" d="M63.9,12.3c-0.3,0-0.5-0.1-0.7-0.2c-0.5-0.4-0.6-1.2-0.2-1.7l0.1-0.2c0.4-0.5,1.1-0.6,1.6-0.3c0,0,0,0,0.1,0.1
		c0.5,0.4,0.6,1.2,0.2,1.7l-0.1,0.2C64.6,12.1,64.3,12.3,63.9,12.3z"/>
</g>
<g>
	<path class="st0" d="M68.2,15.7c-0.3,0-0.5-0.1-0.7-0.2c-0.5-0.4-0.6-1.2-0.2-1.7l0.1-0.2c0.4-0.5,1.1-0.6,1.6-0.3c0,0,0,0,0.1,0
		c0.5,0.4,0.6,1.2,0.2,1.7l-0.1,0.2C68.9,15.5,68.6,15.7,68.2,15.7z"/>
</g>
<g>
	<path class="st0" d="M70.6,7.6c-0.3,0-0.5-0.1-0.7-0.2c-0.5-0.4-0.6-1.2-0.2-1.7l1.5-2.2c0.4-0.5,1.1-0.6,1.6-0.3c0,0,0,0,0.1,0
		c0.5,0.4,0.6,1.2,0.2,1.7l-1.5,2.2C71.3,7.4,71,7.6,70.6,7.6z"/>
</g>
<g>
	<path class="st0" d="M72.5,5c-0.6,0-1.1-0.4-1.2-1l-0.5-2.5c-0.1-0.7,0.3-1.3,0.9-1.4c0.6-0.1,1.2,0.3,1.4,0.9c0,0,0,0,0,0.1
		l0.3,1.4L75,2.4c0.7,0,1.2,0.5,1.3,1.2c0,0.7-0.5,1.2-1.2,1.3L72.5,5L72.5,5z"/>
</g>
<g>
	<path class="st0" d="M23.6,57.8c-0.3,0-0.5-0.1-0.8-0.3l-17.7-14c-5.7-4.6-6.8-12.8-2.5-18.8c2-2.8,5-4.6,8.4-5.1
		c3.4-0.3,6.8,0.7,9.4,2.8l35.8,28.3c0.5,0.4,0.6,1.2,0.2,1.8c-0.4,0.5-1.2,0.6-1.8,0.2L18.9,24.5c-2.1-1.7-4.8-2.6-7.5-2.3
		c-2.7,0.3-5.1,1.8-6.7,4c-3.5,4.9-2.6,11.6,2,15.4l17.7,14c0.5,0.4,0.6,1.2,0.2,1.8C24.4,57.6,24,57.8,23.6,57.8z"/>
</g>
<g>
	<path class="st0" d="M32.3,76.3c-2.2-0.1-4.4-0.7-6.2-1.8c-1.7-0.9-3.4-2.1-4.9-3.3c-1.1-0.9-2.2-1.7-3.4-2.4
		c-2.4-1.4-5-0.1-6.1,0.7c-1.1,0.8-1.9,1.9-2.5,3c-0.4,1.2-1.6,1.9-2.8,1.6c-1.3-0.3-2.1-1.5-1.9-2.8l0.1-0.7
		c0.4-2.7,0.7-4.5,3.8-8.8c1.9-2.7,5-4.2,8.4-4.1c2.5,0.1,4.4,0.3,8.1,2.8c1.1,0.7,2.1,1.5,3.1,2.4l0.5,0.4c0.3,0.2,0.6,0.5,0.9,0.7
		c0.3,0.3,0.7,0.4,1,0.4c0.1,0,0.2,0,0.2-0.1c0.1-0.1,0.1-0.1,0.1-0.2c0-0.2-0.3-0.6-0.7-1l-7-5.5c-0.5-0.4-0.6-1.2-0.2-1.8
		c0.4-0.5,1.2-0.6,1.8-0.2l7,5.5c0.9,0.7,1.5,1.6,1.7,2.6c0.1,0.8-0.1,1.5-0.5,2.1c-0.5,0.7-1.3,1.1-2.2,1.2c-1,0-1.9-0.3-2.6-1
		c-0.3-0.2-0.6-0.5-0.9-0.8l-0.5-0.4c-1-0.8-1.9-1.6-2.9-2.3c-3.2-2.2-4.7-2.3-6.8-2.4c-2.5-0.1-4.8,1-6.2,3c-2.8,3.8-3,5.1-3.4,7.7
		l0,0.2c0.7-1.5,1.8-2.7,3.1-3.7c1.5-1.2,5.3-3.1,8.9-0.9c1.3,0.8,2.5,1.7,3.7,2.6c1.4,1.2,2.9,2.2,4.5,3.1c1.6,0.9,3.3,1.4,5.1,1.5
		c1.3,0,2.6-0.5,3.7-1.3c1.4-1,2.5-2.4,3.3-3.9c1.5-2.6,1.7-5.7,0.5-8.3c-0.7-1.5-1.8-2.9-3.1-4l-0.3-0.2c-0.5-0.5-4.7-3.9-6.3-5.1
		c-0.1-0.1-0.2-0.2-0.3-0.3L11.9,36.4c-1.4-0.9-1.9-2.7-1.1-4.2c0-0.1,0.1-0.1,0.1-0.2c0.5-0.7,1.3-1,2.1-1c0.8,0,1.6,0.3,2.3,0.8
		L50,59.2c2.2,1.7,4.9,2.5,7.7,2.1c2.7-0.4,5.2-1.9,6.8-4.2c2.3-3.1,3.2-5.9,2.9-8.4c-0.3-2.5-1.9-4.8-4.7-7l-10.3-8.2
		c-0.1,0-0.3-0.1-0.4-0.2L37.1,21.5c-1.2-1-1.4-2.7-0.5-3.9c0.9-1.2,2.6-1.5,3.8-0.6c0,0,0.1,0.1,0.1,0.1l6.5,5.2
		c1.6,1.3,3.2,2.5,4.8,3.6c2.5,1.7,5.9,2.9,10.6-3l0.2-0.2c0.2-0.3,0.4-0.5,0.6-0.8c0.2-0.2,0.4-0.3,0.7-0.4
		c5.6-0.8,6.6-1.4,6.7-1.5c0.9-0.6,1.4-1.5,1.6-2.6c0.1-0.7-0.2-3.7-1.4-10.4c-0.2,0-0.4-0.1-0.6-0.2c-0.2-0.1-0.3-0.3-0.4-0.6
		C61.9,7,60.3,7.5,60,7.6c-1,0.5-1.7,1.3-1.9,2.3c0,0.1-0.4,1.4,0.5,7.6c0.1,0.4-0.1,0.9-0.4,1.1c-0.3,0.2-0.6,0.4-1,0.5
		c-1.4,0.2-2.7-0.8-3.7-1.7L52.9,17l-7.6-6c-2.2-1.7-5-2.5-7.7-2.2c-2.8,0.4-5.3,1.9-6.9,4.1c-1.7,2.4-2.4,5.3-1.9,8.2
		c0.4,2.9,1.8,5.5,4.1,7.3l24.8,19.6c0.1,0,0.2,0.1,0.3,0.2c0.1,0.1,0.2,0.2,0.3,0.3c1.1,1.1,1.1,2.2-0.1,3.6
		c-0.9,1.2-2.2,1.3-3.9,0.4c-0.6-0.4-0.8-1.1-0.4-1.7c0.4-0.6,1.1-0.8,1.7-0.4c0.3,0.2,0.5,0.2,0.6,0.3c0,0,0,0,0,0
		c0.1-0.1,0.2-0.3,0.2-0.3c0,0,0,0,0,0c0,0-0.1,0-0.1-0.1l-25-19.8c-2.8-2.2-4.5-5.4-5-8.9c-0.6-3.5,0.3-7.1,2.3-10
		c2-2.8,5.2-4.7,8.6-5.2C40.7,6,44.2,7,46.9,9.1l8.1,6.4c0.2,0.2,0.5,0.4,0.8,0.7c-0.7-5.5-0.3-6.6-0.2-7c0.5-1.6,1.6-2.9,3.1-3.7
		c0.8-0.4,2.8-1,12-1.8c0.3,0,0.7,0.1,0.9,0.3c0.1,0.1,0.3,0.3,0.3,0.5c0.2,0,0.3,0.1,0.5,0.2c0.3,0.2,0.5,0.5,0.5,0.8
		c2.1,10.9,1.8,12.1,1.7,12.6c-0.3,1.6-1.2,3-2.6,4c-0.4,0.3-1.3,0.9-7.4,1.8c-0.1,0.1-0.1,0.1-0.2,0.2l-0.2,0.3
		c-4.5,5.6-9.2,6.8-14,3.5c-1.7-1.1-3.3-2.4-5-3.7L38.9,19c-0.1-0.1-0.2-0.1-0.3,0c-0.1,0.1-0.1,0.3,0.1,0.5l14.7,11.7
		c0.2,0.1,0.3,0.2,0.5,0.3l10.4,8.2c3.4,2.6,5.3,5.5,5.7,8.6c0.4,3.2-0.7,6.6-3.3,10.2c-2,2.8-5.1,4.7-8.5,5.2
		c-3.4,0.5-6.9-0.4-9.6-2.6L13.7,33.7c-0.2-0.2-0.5-0.3-0.8-0.3l0,0c-0.1,0.3,0.1,0.7,0.4,0.9c0,0,0.1,0,0.1,0.1l18.2,14.3
		c0.1,0.1,0.3,0.2,0.4,0.4c1.6,1.2,5.7,4.5,6.3,5.1l0.2,0.2c1.5,1.3,2.9,3,3.8,4.8c1.5,3.5,1.2,7.4-0.6,10.6c-1,1.8-2.3,3.4-4,4.6
		C36.1,75.6,34.2,76.3,32.3,76.3z M52.3,33.5L52.3,33.5L52.3,33.5z"/>
</g>
</svg>
