<?xml version="1.0" encoding="utf-8"?>
<!-- Generator: Adobe Illustrator 22.0.1, SVG Export Plug-In . SVG Version: 6.00 Build 0)  -->
<svg version="1.1" id="Calque_1" xmlns="http://www.w3.org/2000/svg" xmlns:xlink="http://www.w3.org/1999/xlink" x="0px" y="0px"
	 viewBox="0 0 54.3 70.3" style="enable-background:new 0 0 54.3 70.3;" xml:space="preserve">
<style type="text/css">
	.st0{fill:#DB8D34;}
</style>
<title>IconeThemeJaune</title>
<g>
	<path class="st0" d="M16.3,31.7c-0.7,0-1.4-0.3-1.9-0.7l-3-3l1.6-1.6l3,3c0,0,0.1,0.1,0.3,0.1c0,0,0,0,0,0c0.1,0,0.2-0.1,0.3-0.1
		l5.2-6.6l1.8,1.4l-5.2,6.6c-0.5,0.6-1.2,1-1.9,1L16.3,31.7C16.3,31.7,16.3,31.7,16.3,31.7z"/>
</g>
<g>
	<rect x="27.5" y="26.5" class="st0" width="14.2" height="2.3"/>
</g>
<g>
	<path class="st0" d="M51.6,70.3h-49c-1.5,0-2.7-1.2-2.7-2.7V5.7C-0.1,4.3,1.1,3,2.6,3l0,0l7,0v2.3H2.7c-0.2,0-0.3,0.1-0.3,0.1
		S2.2,5.6,2.2,5.7l0,61.9c0,0.2,0.2,0.4,0.4,0.4h49c0.2,0,0.4-0.2,0.4-0.4V5.7c0-0.2-0.2-0.4-0.4-0.4h-6.9V3h6.9
		c1.5,0,2.7,1.2,2.7,2.7v62C54.3,69.1,53.1,70.3,51.6,70.3z"/>
</g>
<g>
	<path class="st0" d="M34.2,15.5C34.2,15.5,34.2,15.5,34.2,15.5h-14c-4.2,0-7.6-3.4-7.6-7.6V2.7c0-1.5,1.2-2.7,2.7-2.7h23.9
		c0,0,0,0,0,0c1.4,0,2.6,1.2,2.6,2.7v5.2c0,2-0.8,3.9-2.2,5.4C38.1,14.7,36.2,15.5,34.2,15.5z M15.3,2.3c-0.2,0-0.4,0.2-0.4,0.4v5.2
		c0,2.9,2.4,5.3,5.3,5.3h14c1.4,0,2.7-0.5,3.7-1.5c1-1,1.6-2.3,1.6-3.7V2.7c0-0.2-0.2-0.4-0.4-0.4l-0.1,0H15.3z"/>
</g>
<g>
	<path class="st0" d="M16.4,46h-0.1c-0.7,0-1.4-0.3-1.9-0.8l-3-3l1.6-1.6l3,3c0.1,0.1,0.2,0.1,0.3,0.1c0.1,0,0.2-0.1,0.3-0.1
		l5.2-6.6l1.8,1.4L18.4,45C17.9,45.6,17.2,45.9,16.4,46L16.4,46z"/>
</g>
<g>
	<rect x="27.5" y="40.8" class="st0" width="14.2" height="2.3"/>
</g>
<g>
	<path class="st0" d="M16.5,60.4h-0.1c-0.7,0-1.4-0.3-1.9-0.8l-2.9-2.9l1.6-1.6l2.9,2.9c0.1,0.1,0.2,0.1,0.3,0.1
		c0.1,0,0.2-0.1,0.3-0.1l5.2-6.6l1.8,1.4l-5.2,6.6C18.1,60,17.3,60.4,16.5,60.4L16.5,60.4z"/>
</g>
<g>
	<rect x="27.7" y="55.2" class="st0" width="14.2" height="2.3"/>
</g>
</svg>
