<svg id="Calque_1" data-name="Calque 1" xmlns="http://www.w3.org/2000/svg" viewBox="0 0 75 75"><defs><style>.cls-1{fill:#37a7df;}.cls-2{fill:#fff;}</style></defs><title>5-Twitter</title><rect class="cls-1" width="75" height="75"/><path class="cls-2" d="M65.21,24.22a20.4,20.4,0,0,1-5.89,1.62,10.25,10.25,0,0,0,4.51-5.68,20.36,20.36,0,0,1-6.51,2.49,10.27,10.27,0,0,0-17.75,7A10,10,0,0,0,39.84,32,29.1,29.1,0,0,1,18.7,21.29,10.28,10.28,0,0,0,21.87,35a10.21,10.21,0,0,1-4.65-1.29v.13a10.27,10.27,0,0,0,8.23,10.06,10.47,10.47,0,0,1-2.7.36,10.19,10.19,0,0,1-1.93-.18,10.26,10.26,0,0,0,9.58,7.12,20.58,20.58,0,0,1-12.74,4.39,21.76,21.76,0,0,1-2.44-.14,29,29,0,0,0,15.72,4.61c18.87,0,29.19-15.63,29.19-29.19,0-.44,0-.88,0-1.33A20.65,20.65,0,0,0,65.21,24.22Z" transform="translate(-2.72 -2.23)"/></svg>