<svg id="cllimatique" xmlns="http://www.w3.org/2000/svg" viewBox="0 0 70 70"><defs><style>.cls-1{fill:#808285;}</style></defs><title>1-Climatique</title><path class="cls-1" d="M40.35,13.68a1.12,1.12,0,0,0-1.13,1.1V17a1.13,1.13,0,0,0,2.26,0V14.78A1.11,1.11,0,0,0,40.35,13.68Z" transform="translate(-4.22 -4.93)"/><path class="cls-1" d="M40.35,4.93A1.12,1.12,0,0,0,39.22,6V10.4a1.13,1.13,0,0,0,2.26,0V6A1.11,1.11,0,0,0,40.35,4.93Z" transform="translate(-4.22 -4.93)"/><path class="cls-1" d="M27.52,20.59a1.17,1.17,0,0,0,1.54.4,1.09,1.09,0,0,0,.42-1.5L27.22,15.7a1.16,1.16,0,0,0-1.55-.4,1.08,1.08,0,0,0-.41,1.5Z" transform="translate(-4.22 -4.93)"/><path class="cls-1" d="M23,13a1.14,1.14,0,0,0,1,.55,1.18,1.18,0,0,0,.57-.15A1.07,1.07,0,0,0,25,11.92L23.83,10a1.15,1.15,0,0,0-1.54-.4,1.07,1.07,0,0,0-.42,1.49Z" transform="translate(-4.22 -4.93)"/><path class="cls-1" d="M17.77,39.93a1.11,1.11,0,0,0-1.13-1.09H12.13a1.1,1.1,0,1,0,0,2.19h4.51A1.11,1.11,0,0,0,17.77,39.93Z" transform="translate(-4.22 -4.93)"/><path class="cls-1" d="M7.61,38.84H5.35a1.1,1.1,0,1,0,0,2.19H7.61a1.1,1.1,0,1,0,0-2.19Z" transform="translate(-4.22 -4.93)"/><path class="cls-1" d="M29.06,58.88a1.13,1.13,0,0,0-1.54.4l-2.26,3.78a1.08,1.08,0,0,0,.41,1.5,1.18,1.18,0,0,0,.57.15,1.14,1.14,0,0,0,1-.55l2.26-3.79A1.07,1.07,0,0,0,29.06,58.88Z" transform="translate(-4.22 -4.93)"/><path class="cls-1" d="M24.55,66.45a1.17,1.17,0,0,0-1.55.4l-1.13,1.9a1.07,1.07,0,0,0,.42,1.49,1.14,1.14,0,0,0,1.54-.4L25,68A1.08,1.08,0,0,0,24.55,66.45Z" transform="translate(-4.22 -4.93)"/><path class="cls-1" d="M17.3,28.3l1.95,1.09a1.18,1.18,0,0,0,.57.15,1.14,1.14,0,0,0,1-.55,1.07,1.07,0,0,0-.42-1.49l-1.95-1.09a1.13,1.13,0,0,0-1.54.4A1.06,1.06,0,0,0,17.3,28.3Z" transform="translate(-4.22 -4.93)"/><path class="cls-1" d="M9.48,23.93l3.91,2.18a1.14,1.14,0,0,0,1.54-.4,1.07,1.07,0,0,0-.41-1.49L10.61,22a1.17,1.17,0,0,0-1.55.4A1.09,1.09,0,0,0,9.48,23.93Z" transform="translate(-4.22 -4.93)"/><path class="cls-1" d="M19.25,50.47,17.3,51.56a1.07,1.07,0,0,0-.41,1.5,1.11,1.11,0,0,0,1,.54,1.15,1.15,0,0,0,.57-.14l1.95-1.1a1.07,1.07,0,0,0,.42-1.49A1.16,1.16,0,0,0,19.25,50.47Z" transform="translate(-4.22 -4.93)"/><path class="cls-1" d="M13.39,53.75,9.48,55.94a1.07,1.07,0,0,0-.42,1.49A1.14,1.14,0,0,0,10,58a1.18,1.18,0,0,0,.57-.15l3.91-2.19a1.07,1.07,0,0,0,.41-1.49A1.15,1.15,0,0,0,13.39,53.75Z" transform="translate(-4.22 -4.93)"/><path class="cls-1" d="M40.35,61.81a1.11,1.11,0,0,0-1.13,1.09v2.19a1.13,1.13,0,0,0,2.26,0V62.9A1.11,1.11,0,0,0,40.35,61.81Z" transform="translate(-4.22 -4.93)"/><path class="cls-1" d="M40.35,68.37a1.11,1.11,0,0,0-1.13,1.09v4.38a1.13,1.13,0,0,0,2.26,0V69.46A1.11,1.11,0,0,0,40.35,68.37Z" transform="translate(-4.22 -4.93)"/><path class="cls-1" d="M40.35,24.62a15.58,15.58,0,0,0-15.8,15.31,1.13,1.13,0,0,0,2.25,0A13.35,13.35,0,0,1,40.35,26.81a1.1,1.1,0,1,0,0-2.19Z" transform="translate(-4.22 -4.93)"/><path class="cls-1" d="M61.8,59.35V10.4a5.65,5.65,0,0,0-11.29,0v49a8.67,8.67,0,0,0-3.38,6.83,9,9,0,0,0,18.06,0A8.65,8.65,0,0,0,61.8,59.35ZM56.16,72.74a6.68,6.68,0,0,1-6.78-6.56,6.51,6.51,0,0,1,2.91-5.38,1.1,1.1,0,0,0,.48-.9V10.4a3.39,3.39,0,0,1,6.78,0V59.9a1.1,1.1,0,0,0,.48.9,6.5,6.5,0,0,1,2.9,5.38A6.68,6.68,0,0,1,56.16,72.74Z" transform="translate(-4.22 -4.93)"/><path class="cls-1" d="M57.29,63.09V14.78a1.13,1.13,0,0,0-2.26,0V63.09a3.3,3.3,0,0,0-2.26,3.09,3.39,3.39,0,0,0,6.78,0A3.3,3.3,0,0,0,57.29,63.09Z" transform="translate(-4.22 -4.93)"/><path class="cls-1" d="M73.09,13.68h-7.9a1.1,1.1,0,1,0,0,2.19h7.9a1.1,1.1,0,1,0,0-2.19Z" transform="translate(-4.22 -4.93)"/><path class="cls-1" d="M67.45,18.06H65.19a1.09,1.09,0,1,0,0,2.18h2.26a1.09,1.09,0,1,0,0-2.18Z" transform="translate(-4.22 -4.93)"/><path class="cls-1" d="M67.45,22.43H65.19a1.1,1.1,0,1,0,0,2.19h2.26a1.1,1.1,0,1,0,0-2.19Z" transform="translate(-4.22 -4.93)"/><path class="cls-1" d="M67.45,26.81H65.19a1.09,1.09,0,1,0,0,2.18h2.26a1.09,1.09,0,1,0,0-2.18Z" transform="translate(-4.22 -4.93)"/><path class="cls-1" d="M67.45,31.18H65.19a1.1,1.1,0,1,0,0,2.19h2.26a1.1,1.1,0,1,0,0-2.19Z" transform="translate(-4.22 -4.93)"/><path class="cls-1" d="M67.45,35.56H65.19a1.09,1.09,0,1,0,0,2.18h2.26a1.09,1.09,0,1,0,0-2.18Z" transform="translate(-4.22 -4.93)"/><path class="cls-1" d="M67.45,39.93H65.19a1.1,1.1,0,1,0,0,2.19h2.26a1.1,1.1,0,1,0,0-2.19Z" transform="translate(-4.22 -4.93)"/><path class="cls-1" d="M67.45,44.31H65.19a1.09,1.09,0,1,0,0,2.18h2.26a1.09,1.09,0,1,0,0-2.18Z" transform="translate(-4.22 -4.93)"/><path class="cls-1" d="M67.45,48.68H65.19a1.1,1.1,0,1,0,0,2.19h2.26a1.1,1.1,0,1,0,0-2.19Z" transform="translate(-4.22 -4.93)"/><path class="cls-1" d="M67.45,53.06H65.19a1.09,1.09,0,1,0,0,2.18h2.26a1.09,1.09,0,1,0,0-2.18Z" transform="translate(-4.22 -4.93)"/><path class="cls-1" d="M40.35,20.24C29.15,20.24,20,29.08,20,39.93s9.12,19.69,20.32,19.69a1.1,1.1,0,1,0,0-2.19c-10,0-18.06-7.85-18.06-17.5s8.1-17.5,18.06-17.5a1.1,1.1,0,1,0,0-2.19Z" transform="translate(-4.22 -4.93)"/></svg>