<?xml version="1.0" encoding="utf-8"?>
<!-- Generator: Adobe Illustrator 22.0.1, SVG Export Plug-In . SVG Version: 6.00 Build 0)  -->
<svg version="1.1" id="Crustacés" xmlns="http://www.w3.org/2000/svg" xmlns:xlink="http://www.w3.org/1999/xlink" x="0px" y="0px"
	 viewBox="0 0 77.5 77.5" style="enable-background:new 0 0 77.5 77.5;" xml:space="preserve">
<style type="text/css">
	.st0{fill:#808184;}
</style>
<title>2-Crustaces</title>
<g>
	<path class="st0" d="M38.9,77.5c-6.9,0-13.3-3.2-18.2-9l-5.3-6.3c-4.2-5.3-4.2-12.8,0-18.1L19,40c5.2-6.4,12.3-9.9,19.9-9.9
		c7.5,0,14.6,3.5,19.9,9.8c1.1,1,10.1,9.3,3.7,22c0,0.1-0.1,0.2-0.2,0.2l-5.2,6.3C52.3,74.3,45.8,77.5,38.9,77.5z M38.9,32.6
		c-6.9,0-13.3,3.2-18,9l-3.5,4.1c-3.4,4.4-3.4,10.5,0,14.9l5.2,6.2C27,72.1,32.8,75,38.9,75c6.1,0,11.9-2.9,16.3-8.1l5.2-6.2
		c5.8-11.6-2.8-18.6-3.2-18.9c-0.1-0.1-0.1-0.1-0.2-0.2C52.1,35.8,45.7,32.6,38.9,32.6z M61.4,61.4L61.4,61.4L61.4,61.4z"/>
</g>
<g>
	<path class="st0" d="M38.9,71.8c-6.7,0-12.9-3.1-17.6-8.7l-4.5-5.4c-0.4-0.5-0.4-1.3,0.2-1.8c0.5-0.4,1.3-0.4,1.8,0.2l4.5,5.4
		c4.2,5,9.8,7.8,15.7,7.8c5.9,0,11.5-2.8,15.7-7.8l4.5-5.4c0.4-0.5,1.2-0.6,1.8-0.2c0.5,0.4,0.6,1.2,0.2,1.8l-4.5,5.4
		C51.8,68.8,45.6,71.8,38.9,71.8z"/>
</g>
<g>
	<path class="st0" d="M12.9,25.7c-2.9,0-5.6-1.8-7.2-4.8C3.9,17.5,3.6,13.6,5,10C7.2,3.8,12.8,1.2,17,0c0.5-0.1,1,0,1.3,0.4
		c0.3,0.4,0.4,0.9,0.1,1.4c-1.6,3-3.5,7.4-3,11.6c0,0.2,0.1,0.3,0.2,0.4c2.6-1.3,5.1-3,7.3-4.8c0.4-0.3,1-0.4,1.5-0.1
		c0.5,0.3,0.7,0.8,0.6,1.4c-1.5,6.1-3.7,10.5-6.5,13.1C17,24.7,15,25.6,12.9,25.7C12.9,25.7,12.9,25.7,12.9,25.7z M14.9,3.4
		c-3,1.3-6.1,3.5-7.6,7.5c-1.1,2.9-0.9,6.1,0.6,8.8c1.2,2.2,3.1,3.5,5,3.5c1.4-0.1,2.8-0.7,3.8-1.7c1.9-1.7,3.5-4.5,4.8-8.3
		c-1.6,1.1-3.2,2-4.9,2.9c-0.8,0.4-1.8,0.3-2.5-0.2c-0.7-0.5-1.1-1.3-1.2-2.2C12.5,10.1,13.6,6.4,14.9,3.4z"/>
</g>
<g>
	<path class="st0" d="M65,25.7c-2.2-0.1-4.1-1-5.6-2.4c-2.8-2.5-5-6.9-6.5-13c-0.1-0.5,0.1-1.1,0.6-1.4c0.5-0.3,1-0.2,1.5,0.1
		c2.3,1.9,4.8,3.6,7.4,4.9c0-0.1,0.1-0.2,0.1-0.3c0.4-4.2-1.4-8.7-3-11.7c-0.2-0.4-0.2-1,0.1-1.4c0.3-0.4,0.8-0.6,1.3-0.4
		c4.2,1.1,9.8,3.8,12.1,10c1.3,3.5,1.1,7.5-0.7,10.8C70.5,23.9,67.8,25.7,65,25.7z M56.3,13.2c1.3,3.8,2.9,6.6,4.7,8.2
		c1.1,1.1,2.5,1.7,4,1.8c1.9,0,3.7-1.3,4.9-3.5c1.5-2.7,1.7-5.9,0.6-8.8c-1.5-4-4.6-6.2-7.6-7.5c1.3,3,2.4,6.7,2,10.3
		c-0.1,0.8-0.5,1.6-1.2,2.1c-0.7,0.5-1.7,0.6-2.5,0.2C59.5,15.2,57.9,14.2,56.3,13.2z"/>
</g>
<g>
	<path class="st0" d="M15.8,43.4c-0.1,0-0.3,0-0.4-0.1c-3.5-1.2-6.2-3.9-7.5-7.4c-1.5-3.7-1.7-8-0.7-11.9c0.2-0.7,0.9-1.1,1.5-0.9
		c0.7,0.2,1.1,0.9,0.9,1.5c-0.9,3.4-0.7,7.1,0.6,10.3c1,2.8,3.2,4.9,6,5.9c0.7,0.2,1,0.9,0.8,1.6C16.8,43,16.3,43.4,15.8,43.4z"/>
</g>
<g>
	<path class="st0" d="M62,43.4c-0.5,0-1-0.3-1.2-0.8c-0.2-0.7,0.1-1.4,0.8-1.6c2.8-1,4.9-3.1,6-5.9c1.3-3.3,1.5-7,0.6-10.3
		c-0.2-0.7,0.2-1.4,0.9-1.5c0.7-0.2,1.4,0.2,1.5,0.9c1.1,3.9,0.8,8.1-0.7,11.9c-1.3,3.4-4,6.1-7.4,7.3C62.3,43.3,62.2,43.4,62,43.4z
		"/>
</g>
<g>
	<path class="st0" d="M2.1,50.8c-0.4,0-0.8-0.2-1-0.5c-0.4-0.6-0.3-1.3,0.3-1.7c3.4-2.4,7.7-3.4,11.8-2.5c0.7,0.1,1.1,0.8,1,1.5
		c-0.1,0.7-0.8,1.1-1.5,1c-3.4-0.7-7,0-9.8,2.1C2.6,50.8,2.4,50.8,2.1,50.8z"/>
</g>
<g>
	<path class="st0" d="M1.2,62.8c-0.2,0-0.5-0.1-0.7-0.2c-0.6-0.4-0.7-1.2-0.3-1.7c2.8-4,7.7-6,12.6-5.2c0.7,0.1,1.1,0.8,1,1.4
		c-0.1,0.7-0.8,1.1-1.4,1c-3.9-0.7-7.8,1-10.1,4.2C2,62.6,1.6,62.8,1.2,62.8z"/>
</g>
<g>
	<path class="st0" d="M6.1,71c-0.2,0-0.5-0.1-0.7-0.2c-0.6-0.4-0.7-1.2-0.4-1.7c2.5-3.9,6.6-6.5,11.2-7.2c0.7-0.1,1.3,0.4,1.4,1.1
		c0.1,0.7-0.4,1.3-1.1,1.4c-3.9,0.6-7.3,2.8-9.5,6.1C7,70.8,6.6,71,6.1,71z"/>
</g>
<g>
	<path class="st0" d="M75.3,50.8c-0.2,0-0.5-0.1-0.7-0.2c-3-2-6.7-2.8-10.2-2.1c-0.7,0.1-1.3-0.3-1.5-1c-0.1-0.7,0.3-1.3,1-1.5
		c4.2-0.9,8.6,0,12.1,2.5c0.6,0.4,0.7,1.2,0.3,1.7C76.1,50.7,75.7,50.8,75.3,50.8z"/>
</g>
<g>
	<path class="st0" d="M76.3,62.8c-0.4,0-0.8-0.2-1-0.5c-2.5-3.3-6.5-4.9-10.5-4.2c-0.7,0.1-1.3-0.3-1.4-1s0.3-1.3,1-1.4
		c5-0.9,9.9,1.1,12.9,5.1c0.4,0.6,0.3,1.3-0.3,1.7C76.8,62.7,76.5,62.8,76.3,62.8z"/>
</g>
<g>
	<path class="st0" d="M71.9,71c-0.4,0-0.8-0.2-1-0.5c-2.3-3.3-5.9-5.6-9.9-6.1c-0.7-0.1-1.2-0.7-1.1-1.4c0.1-0.7,0.7-1.2,1.4-1.1
		c4.7,0.7,8.9,3.3,11.6,7.2c0.4,0.6,0.2,1.3-0.3,1.7C72.4,70.9,72.2,71,71.9,71z"/>
</g>
</svg>
