<svg id="danger" xmlns="http://www.w3.org/2000/svg" viewBox="0 0 70 70"><defs><style>.cls-1{opacity:0.89;}.cls-2{fill:#808285;}</style></defs><title>1-Danger</title><g class="cls-1"><path class="cls-2" d="M39.51,8.47,71,39.93,39.51,71.4,8.05,39.93,39.51,8.47m0-3.54-35,35,35,35,35-35-35-35Z" transform="translate(-4.51 -4.93)"/></g><g class="cls-1"><path class="cls-2" d="M41.43,22.3,40.36,42.73h-1.6L37.69,22.3h3.74M39.54,52.2a2.25,2.25,0,0,1,1.6.45,2,2,0,0,1,.42,1.48,1.84,1.84,0,0,1-.45,1.46c-.12.12-.47.46-1.57.46a2.38,2.38,0,0,1-1.65-.45c-.11-.11-.43-.42-.43-1.47a2.23,2.23,0,0,1,.39-1.5,2.68,2.68,0,0,1,1.69-.43m4.52-32.4h-9l1.33,25.43h6.35L44.06,19.8ZM39.54,49.7a4.76,4.76,0,0,0-3.41,1.12A4.38,4.38,0,0,0,35,54.13a4.35,4.35,0,0,0,1.19,3.27,4.69,4.69,0,0,0,3.39,1.15,4.53,4.53,0,0,0,3.33-1.18,5.08,5.08,0,0,0,0-6.52,4.62,4.62,0,0,0-3.34-1.15Z" transform="translate(-4.51 -4.93)"/></g></svg>