<?xml version="1.0" encoding="utf-8"?>
<!-- Generator: Adobe Illustrator 22.0.1, SVG Export Plug-In . SVG Version: 6.00 Build 0)  -->
<svg version="1.1" id="GrandMam" xmlns="http://www.w3.org/2000/svg" xmlns:xlink="http://www.w3.org/1999/xlink" x="0px" y="0px"
	 viewBox="0 0 70.4 77.5" style="enable-background:new 0 0 70.4 77.5;" xml:space="preserve">
<style type="text/css">
	.st0{fill:#808184;}
</style>
<title>2-GrandMam</title>
<g>
	<path class="st0" d="M32.7,33.7c-0.2,0-0.4-0.1-0.6-0.2c-10.5-6.4-14.8-14.8-16.6-20.8c-1.9-6.5-1.3-11.4-1.2-11.6
		C14.3,0.4,15-0.1,15.6,0c0.7,0.1,1.2,0.7,1.1,1.4l0,0C16.6,2.2,14.6,20,33.4,31.4c0.6,0.4,0.8,1.1,0.4,1.7
		C33.5,33.5,33.1,33.7,32.7,33.7z"/>
</g>
<g>
	<path class="st0" d="M26.6,29.2c-0.7,0-1.2-0.6-1.2-1.2s0.6-1.2,1.2-1.2C57,26.7,62.1,2.1,62.3,1c0.1-0.7,0.8-1.1,1.5-1
		c0.7,0.1,1.1,0.8,1,1.5C64.7,1.8,59.1,29.2,26.6,29.2z"/>
</g>
<g>
	<path class="st0" d="M44.4,25.7c-0.1,0-0.2,0-0.2,0c-6.1-1.1-10.5-5.8-12.6-13.5c-1.5-5.6-1.3-10.8-1.3-11c0-0.7,0.6-1.2,1.3-1.2
		c0.7,0,1.2,0.6,1.2,1.3c0,0.2-0.7,19.6,11.8,21.9c0.7,0.1,1.1,0.8,1,1.5C45.5,25.3,45,25.7,44.4,25.7z"/>
</g>
<g>
	<path class="st0" d="M57,14.2c-2.2,0-4.1-0.7-5.7-2C47,8.6,46.5,1.6,46.5,1.3c0-0.7,0.5-1.3,1.2-1.3C48.3,0,48.9,0.5,49,1.2
		c0,0.1,0.5,6.2,3.9,9.1c1.4,1.2,3.1,1.6,5.2,1.3c0.7-0.1,1.3,0.4,1.4,1.1s-0.4,1.3-1.1,1.4C57.9,14.1,57.4,14.2,57,14.2z"/>
</g>
<g>
	<path class="st0" d="M43.6,77.5c-0.2,0-0.3,0-0.5-0.1c-6.5-2.7-10.8-9.3-10.6-16.4c0-11.2,9.7-13.5,16.8-15.2c1-0.2,2-0.5,3-0.7
		c7.2-1.9,14.8-4.4,15.6-9.1l-16.4-0.3c-0.3,0-0.6-0.1-0.8-0.3c0,0-2.9-2.5-9.6-3.1c-4.1-0.3-8.1,0.9-11.3,3.5
		c-0.4,0.3-0.9,0.4-1.3,0.2l-15.3-7.5c-0.2,1.3-0.2,3.3,1,5.1c1.8,2.6,6,4,12.1,4c0.6,0,1.1,0.4,1.2,1c0.1,0.6-0.1,1.1-0.7,1.4
		C26.6,39.9,6.5,49.9,2.5,76.2c-0.1,0.7-0.7,1.2-1.4,1c-0.7-0.1-1.2-0.7-1-1.4c3.2-20.9,15.8-31.9,22.1-36.2
		c-4.8-0.6-8.2-2.2-10.1-4.9c-2.7-3.9-1-8.5-1-8.7c0.1-0.3,0.4-0.6,0.7-0.7c0.3-0.1,0.7-0.1,1,0l16,7.9c3.6-2.7,8-3.9,12.5-3.5
		c6.2,0.6,9.6,2.6,10.7,3.4l17.2,0.3c0.6,0,1.2,0.5,1.2,1.2c0.5,7.9-10.7,11-17.4,12.8c-1,0.3-2,0.5-3,0.8C42.6,50,35,51.8,35,61
		c-0.2,6.1,3.5,11.7,9.1,14.1c0.6,0.3,0.9,1,0.7,1.6C44.6,77.2,44.1,77.5,43.6,77.5z"/>
</g>
<g>
	<path class="st0" d="M40.2,38.5C40.2,38.5,40.2,38.5,40.2,38.5c-1.3-0.1-2.4-0.6-3.3-1.4c-0.2-0.2-0.4-0.6-0.4-0.9s0.1-0.7,0.4-0.9
		c0.9-0.8,2-1.3,3.2-1.4c0.1,0,0.1,0,0.2,0c1.2,0.1,2.3,0.6,3.2,1.4c0.2,0.2,0.4,0.6,0.4,0.9c0,0.3-0.1,0.7-0.4,0.9
		C42.6,37.9,41.5,38.4,40.2,38.5C40.3,38.5,40.3,38.5,40.2,38.5z"/>
</g>
</svg>
