<?xml version="1.0" encoding="utf-8"?>
<!-- Generator: Adobe Illustrator 22.0.1, SVG Export Plug-In . SVG Version: 6.00 Build 0)  -->
<svg version="1.1" id="Calque_1" xmlns="http://www.w3.org/2000/svg" xmlns:xlink="http://www.w3.org/1999/xlink" x="0px" y="0px"
	 viewBox="0 0 55 55" style="enable-background:new 0 0 55 55;" xml:space="preserve">
<style type="text/css">
	.st0{fill:#1E4C5F;}
</style>
<title>IconeLoupe</title>
<g>
	<path class="st0" d="M48.5,55L48.5,55c-0.4,0-0.8-0.2-1.1-0.4L35.1,42.2c-3.5,2.3-7.7,3.6-12.2,3.6C10.3,45.8,0,35.5,0,22.9
		S10.3,0,22.9,0s22.9,10.3,22.9,22.9c0,4.5-1.3,8.6-3.5,12.2l12.3,12.4c0.6,0.6,0.6,1.5,0,2.1l-5,5C49.3,54.8,48.9,55,48.5,55z
		 M37.8,40.6l10.7,10.8l2.9-2.9L40.7,37.8L37.8,40.6z M22.9,3C11.9,3,3,11.9,3,22.9s8.9,19.9,19.9,19.9s19.9-8.9,19.9-19.9
		S33.8,3,22.9,3z M38.2,23h-1.5c0-7.7-6.3-14-14-14c0,0,0,0,0,0c-0.8,0-1.5-0.7-1.5-1.5c0-0.8,0.7-1.5,1.5-1.5c0,0,0,0,0,0
		c9.3,0,16.9,7.6,17,16.9L38.2,23z"/>
</g>
</svg>
