<?xml version="1.0" encoding="utf-8"?>
<!-- Generator: Adobe Illustrator 22.0.1, SVG Export Plug-In . SVG Version: 6.00 Build 0)  -->
<svg version="1.1" id="Calque_1" xmlns="http://www.w3.org/2000/svg" xmlns:xlink="http://www.w3.org/1999/xlink" x="0px" y="0px"
	 viewBox="0 0 74.2 76.2" style="enable-background:new 0 0 74.2 76.2;" xml:space="preserve">
<style type="text/css">
	.st0{fill:#808285;}
</style>
<title>5-IconeMembres</title>
<g>
	<path class="st0" d="M47,53l-0.1-2.5c2.9-0.1,5.2-2.4,5.3-5.4l0-14.6c0-4.3-9.7-6.9-15-6.9c-5.9,0-15.1,3-15.1,6.9v14.6
		c0.1,2.8,2.4,5.1,5.3,5.3L27.3,53c-4.2-0.2-7.5-3.5-7.7-7.7l0-14.7c0-6.6,11.6-9.4,17.6-9.4s17.5,2.8,17.5,9.4v14.6
		C54.5,49.5,51.2,52.8,47,53z"/>
</g>
<g>
	<path class="st0" d="M66.5,56.3v-2.5c2.6,0,5.3-1.3,5.3-3.6V35.5c0-4.3-8.8-6.9-13.5-6.9c-0.5,0-1,0-1.5,0.1l-0.2-2.5
		c0.6-0.1,1.2-0.1,1.8-0.1c5.4,0,15.9,2.8,15.9,9.4v14.7C74.2,54.1,70.2,56.3,66.5,56.3z"/>
</g>
<g>
	<path class="st0" d="M37.4,18.8c-0.1,0-0.2,0-0.3,0c-0.2,0-0.4,0-0.6,0c-4.1-0.2-7.3-3.7-7.2-7.8l0-3.2c0-0.2,0-0.4,0-0.6
		C29.5,3,33-0.2,37.1,0c0.2,0,0.4,0,0.6,0c2,0.1,3.8,1,5.2,2.4s2,3.4,2,5.4l0,3.2c0,0.2,0,0.4,0,0.6c-0.1,2-1,3.8-2.4,5.2
		C41.1,18.1,39.3,18.8,37.4,18.8z M37.1,16.3L37.1,16.3c1.4,0.1,2.7-0.4,3.7-1.3c1-0.9,1.6-2.1,1.6-3.5c0-0.1,0-0.3,0-0.4l0-3.3
		c0.1-1.4-0.4-2.7-1.3-3.7c-0.9-1-2.1-1.6-3.5-1.6c-0.1,0-0.3,0-0.4,0l-0.1,0l-0.1,0c-2.8-0.1-5.1,2-5.2,4.8c0,0.1,0,0.3,0,0.4
		l0,3.3c-0.1,2.8,2,5.1,4.8,5.3C36.8,16.3,36.9,16.3,37.1,16.3L37.1,16.3z"/>
</g>
<g>
	<rect x="65.2" y="38.8" class="st0" width="2.5" height="37.5"/>
</g>
<g>
	<rect x="45.7" y="33.9" class="st0" width="2.5" height="42.4"/>
</g>
<g>
	<rect x="26.1" y="33.9" class="st0" width="2.5" height="42.4"/>
</g>
<g>
	<rect x="35.9" y="50.2" class="st0" width="2.5" height="26.1"/>
</g>
<g>
	<path class="st0" d="M58,23.7c-0.1,0-0.2,0-0.3,0c-4.1-0.2-7.4-3.7-7.2-7.8l0-3.2C50.7,8.6,54,5.3,58,5.1c2.1-0.1,4.1,0.7,5.6,2.1
		c1.5,1.4,2.4,3.3,2.5,5.4l0,3.3c0,0.2,0,0.4,0,0.6c-0.2,4.1-3.6,7.4-7.8,7.2C58.2,23.7,58.1,23.7,58,23.7z M58.3,7.6
		c-0.1,0-0.1,0-0.2,0c-2.7,0.1-5,2.3-5.1,5.1l0,3.2c-0.1,2.8,2,5.2,4.8,5.3c0.1,0,0.3,0,0.4,0l0.1,0l0.1,0c2.8,0.1,5.1-2,5.2-4.8
		c0-0.1,0-0.3,0-0.4l0-3.3c-0.1-1.4-0.7-2.7-1.7-3.6C60.9,8.1,59.7,7.6,58.3,7.6z"/>
</g>
<g>
	<path class="st0" d="M7.8,56.3C4,56.3,0,54.1,0,50.2V35.5c0-6.6,10.5-9.4,15.9-9.4c0.6,0,1.2,0,1.8,0.1l-0.3,2.5
		c-0.5-0.1-1-0.1-1.5-0.1c-4.7,0-13.4,2.6-13.4,6.9v14.7c0,2.4,2.7,3.6,5.3,3.6V56.3z"/>
</g>
<g>
	<rect x="6.5" y="38.8" class="st0" width="2.5" height="37.5"/>
</g>
<g>
	<path class="st0" d="M16.2,23.7c-0.1,0-0.2,0-0.3,0c-2,0.1-3.9-0.6-5.3-2c-1.5-1.4-2.3-3.2-2.4-5.2c0-0.2,0-0.4,0-0.6l0-3.2
		c-0.2-4.1,3-7.6,7.2-7.8c0.2,0,0.4,0,0.6,0c4.1-0.1,7.6,3.1,7.8,7.2c0,0.2,0,0.4,0,0.6l0,3.2c0.2,4.1-3,7.6-7.2,7.8
		C16.4,23.7,16.3,23.7,16.2,23.7z M15.9,21.2L15.9,21.2c0.2,0,0.4,0,0.5,0c2.8-0.1,4.9-2.5,4.8-5.2l0-3.3c0-0.2,0-0.3,0-0.5
		c-0.1-2.8-2.5-4.9-5.2-4.8l-0.1,0l-0.1,0c-0.1,0-0.3,0-0.4,0c-2.8,0.1-4.9,2.5-4.8,5.2l0,3.3c0,0.2,0,0.3,0,0.5
		c0.1,1.3,0.6,2.6,1.6,3.5C13.3,20.8,14.5,21.3,15.9,21.2L15.9,21.2z"/>
</g>
</svg>
