<?xml version="1.0" encoding="utf-8"?>
<!-- Generator: Adobe Illustrator 22.0.1, SVG Export Plug-In . SVG Version: 6.00 Build 0)  -->
<svg version="1.1" id="Mer" xmlns="http://www.w3.org/2000/svg" xmlns:xlink="http://www.w3.org/1999/xlink" x="0px" y="0px"
	 viewBox="0 0 72.7 67.5" style="enable-background:new 0 0 72.7 67.5;" xml:space="preserve">
<style type="text/css">
	.st0{fill:#808285;}
</style>
<title>1-Mer</title>
<g>
	<path class="st0" d="M72.7,56.1c-3.6,0-6.9-1.9-9-5.1c-2.1,3.2-5.4,5.1-9,5.1c-3.6,0-6.8-1.9-9-5.1c-2.1,3.2-5.4,5.1-9,5.1
		c-3.6,0-6.8-1.9-9-5.1c-2.1,3.2-5.4,5.1-9,5.1c-3.6,0-6.9-1.9-9-5.1c-2.1,3.2-5.4,5.1-9,5.1v-2.5c3.3,0,6.3-2.2,7.9-5.7l1.1-2.6
		l1.1,2.6c1.6,3.5,4.6,5.7,7.9,5.7s6.3-2.2,7.9-5.7l1.1-2.6l1.1,2.6c1.6,3.5,4.6,5.7,7.9,5.7c3.3,0,6.3-2.2,7.9-5.7l1.1-2.6l1.1,2.6
		c1.6,3.5,4.6,5.7,7.9,5.7c3.3,0,6.3-2.2,7.9-5.7l1.1-2.6l1.1,2.6c1.6,3.5,4.6,5.7,7.9,5.7V56.1z"/>
</g>
<g>
	
		<rect x="13.2" y="27.5" transform="matrix(0.1203 -0.9927 0.9927 0.1203 -2.4804 54.6911)" class="st0" width="32.9" height="2.5"/>
</g>
<g>
	<rect x="43.8" y="12.3" transform="matrix(0.9927 -0.1203 0.1203 0.9927 -3.1314 5.6321)" class="st0" width="2.5" height="32.9"/>
</g>
<g>
	<rect x="40.5" y="6.2" class="st0" width="2.5" height="6.2"/>
</g>
<g>
	<rect x="31.7" y="6.2" class="st0" width="2.5" height="6.2"/>
</g>
<g>
	<path class="st0" d="M45.2,7.4H29.4L30,5.8C31.2,2.3,34.1,0,37.3,0c3.3,0,6.1,2.3,7.3,5.8L45.2,7.4z M33.2,4.9h8.3
		c-1-1.5-2.5-2.4-4.2-2.4C35.7,2.5,34.2,3.4,33.2,4.9z"/>
</g>
<g>
	<rect x="19.3" y="0.1" transform="matrix(0.285 -0.9585 0.9585 0.285 9.4005 23.6019)" class="st0" width="2.5" height="10.8"/>
</g>
<g>
	<rect x="15.1" y="11.8" transform="matrix(0.9582 -0.2859 0.2859 0.9582 -2.8791 6.4132)" class="st0" width="10.8" height="2.5"/>
</g>
<g>
	<rect x="48.8" y="4.3" transform="matrix(0.9587 -0.2844 0.2844 0.9587 0.6726 15.6321)" class="st0" width="10.8" height="2.5"/>
</g>
<g>
	<rect x="52.9" y="7.7" transform="matrix(0.2856 -0.9584 0.9584 0.2856 26.176 61.2433)" class="st0" width="2.5" height="10.8"/>
</g>
<g>
	<rect x="29.6" y="11.2" class="st0" width="15.6" height="2.5"/>
</g>
<g>
	<rect x="30.4" y="22.4" class="st0" width="13.8" height="2.5"/>
</g>
<g>
	<rect x="28.9" y="33.5" class="st0" width="16.9" height="2.5"/>
</g>
<g>
	<path class="st0" d="M72,67.5c-3.6,0-6.9-1.9-9-5.1c-2.1,3.2-5.4,5.1-9,5.1c-3.6,0-6.8-1.9-9-5.1c-2.1,3.2-5.4,5.1-9,5.1
		c-3.6,0-6.8-1.9-9-5.1c-2.1,3.2-5.4,5.1-9,5.1c-3.6,0-6.9-1.9-9-5.1c-2.1,3.2-5.4,5.1-9,5.1V65c3.3,0,6.3-2.2,7.9-5.7L9,56.7
		l1.1,2.6c1.6,3.5,4.6,5.7,7.9,5.7s6.3-2.2,7.9-5.7l1.1-2.6l1.1,2.6c1.6,3.5,4.6,5.7,7.9,5.7c3.3,0,6.3-2.2,7.9-5.7l1.1-2.6l1.1,2.6
		c1.6,3.5,4.6,5.7,7.9,5.7c3.3,0,6.3-2.2,7.9-5.7l1.1-2.6l1.1,2.6c1.6,3.5,4.6,5.7,7.9,5.7V67.5z"/>
</g>
</svg>
