<?xml version="1.0" encoding="utf-8"?>
<!-- Generator: Adobe Illustrator 22.0.1, SVG Export Plug-In . SVG Version: 6.00 Build 0)  -->
<svg version="1.1" id="Calque_1" xmlns="http://www.w3.org/2000/svg" xmlns:xlink="http://www.w3.org/1999/xlink" x="0px" y="0px"
	 viewBox="0 0 72.5 62.4" style="enable-background:new 0 0 72.5 62.4;" xml:space="preserve">
<style type="text/css">
	.st0{fill:#C43635;}
	.st1{enable-background:new    ;}
</style>
<title>5-NewPhoto</title>
<g>
	<path class="st0" d="M72.5,62.4H0v-49h14.4L19.9,0h32.6l5.5,13.4h14.4V62.4z M2.5,59.9H70v-44H56.4L50.9,2.5H21.6l-5.5,13.4H2.5
		V59.9z"/>
</g>
<g>
	<path class="st0" d="M36.2,56.2c-12.6,0-22.8-10.2-22.8-22.8s10.2-22.8,22.8-22.8C48.8,10.6,59,20.8,59,33.4S48.8,56.2,36.2,56.2z
		 M36.2,13.1C25.1,13.1,16,22.2,16,33.4c0,11.2,9.1,20.3,20.3,20.3s20.3-9.1,20.3-20.3C56.5,22.2,47.4,13.1,36.2,13.1z M36.2,49.6
		c-2.8,0-5.6-0.7-8.1-2.2c-2-1.2-3.7-2.7-5-4.6l2-1.5c1.1,1.6,2.5,2.9,4.2,3.8c6.5,3.8,14.9,1.6,18.7-4.9l2.2,1.3
		c-2.2,3.7-5.7,6.4-9.9,7.5C39,49.4,37.6,49.6,36.2,49.6z M48.4,27.3c-2.3-4.6-7-7.5-12.2-7.5c-4.9,0-9.5,2.7-11.9,7l-2.2-1.2
		c2.8-5.1,8.2-8.3,14.1-8.3c6.1,0,11.6,3.4,14.4,8.8L48.4,27.3z"/>
</g>
<g class="st1">
	<path class="st0" d="M28.7,28.8v10.3h-1.2c-0.2,0-0.3,0-0.5-0.1c-0.1-0.1-0.2-0.2-0.4-0.3l-4.8-6.1c0,0.2,0,0.4,0,0.5
		c0,0.2,0,0.3,0,0.5v5.5h-2.1V28.8H21c0.1,0,0.2,0,0.3,0c0.1,0,0.1,0,0.2,0.1c0.1,0,0.1,0.1,0.2,0.1c0.1,0,0.1,0.1,0.2,0.2l4.9,6.2
		c0-0.2,0-0.4,0-0.6s0-0.4,0-0.5v-5.4H28.7z"/>
	<path class="st0" d="M33.1,30.6V33h3.2v1.8h-3.2v2.4h4.2v1.8h-6.6V28.8h6.6v1.8H33.1z"/>
	<path class="st0" d="M52.8,28.8l-3.2,10.3h-2.2l-1.9-6.4c0-0.1-0.1-0.2-0.1-0.3c0-0.1-0.1-0.2-0.1-0.4c0,0.1-0.1,0.3-0.1,0.4
		c0,0.1-0.1,0.2-0.1,0.3l-2,6.4H41l-3.2-10.3h2c0.2,0,0.4,0,0.5,0.1c0.1,0.1,0.2,0.2,0.3,0.4l1.4,5.4c0,0.2,0.1,0.4,0.1,0.6
		c0,0.2,0.1,0.4,0.1,0.6c0.1-0.4,0.2-0.8,0.3-1.2l1.7-5.4c0-0.1,0.1-0.2,0.3-0.4c0.1-0.1,0.3-0.2,0.5-0.2h0.7c0.2,0,0.4,0,0.5,0.1
		s0.2,0.2,0.3,0.4l1.6,5.4c0.1,0.3,0.2,0.7,0.3,1.1c0-0.2,0.1-0.4,0.1-0.6s0.1-0.4,0.1-0.5l1.4-5.4c0-0.1,0.1-0.3,0.3-0.4
		c0.1-0.1,0.3-0.2,0.5-0.2H52.8z"/>
</g>
</svg>
