<?xml version="1.0" encoding="utf-8"?>
<!-- Generator: Adobe Illustrator 22.0.1, SVG Export Plug-In . SVG Version: 6.00 Build 0)  -->
<svg version="1.1" id="Calque_1" xmlns="http://www.w3.org/2000/svg" xmlns:xlink="http://www.w3.org/1999/xlink" x="0px" y="0px"
	 viewBox="0 0 61.2 58.4" style="enable-background:new 0 0 61.2 58.4;" xml:space="preserve">
<style type="text/css">
	.st0{fill:#808285;}
</style>
<title>iconeNiveauTous</title>
<g>
	<path class="st0" d="M19.3,58.4H17v-34h10.9c2.5,0,3.9-2.3,4.5-3.8L7,20.6c-2.6,0.1-4.7,2.2-4.6,4.9l0,11c0.1,2,1.7,3.6,3.7,3.7
		l-0.1,2.3c-3.2-0.2-5.7-2.8-5.9-6l0-11.1c0-1.9,0.6-3.6,1.9-5c1.3-1.4,3-2.1,4.9-2.2c0.1,0,0.2,0,0.3,0h28.2l-0.3,1.4
		c-0.1,0.3-1.6,7-7.2,7h-8.6V58.4z"/>
</g>
<g>
	<path class="st0" d="M11.8,17c-0.1,0-0.2,0-0.3,0c-1.5-0.1-3-0.7-4-1.9S6,12.5,6,10.9l0-2.4C6,8.4,6,8.2,6,8
		c0.2-3.2,2.9-5.6,6.1-5.5c0.2,0,0.3,0,0.5,0c1.6,0.1,3,0.7,4,1.9s1.6,2.6,1.5,4.2l0,2.4c0,0.1,0,0.3,0,0.5c-0.1,3.2-2.8,5.7-6,5.5
		C12,17,11.9,17,11.8,17z M11.9,4.8c-1.9,0-3.4,1.5-3.5,3.3c0,0.1,0,0.2,0,0.3l0,2.5c-0.1,2,1.4,3.6,3.4,3.7c0.1,0,0.2,0,0.3,0
		l0.1,0l0.1,0c0.9,0,1.8-0.3,2.5-0.9s1.1-1.5,1.1-2.4c0-0.1,0-0.2,0-0.3l0-2.5c0-1-0.3-1.9-0.9-2.6s-1.5-1.1-2.4-1.1
		c-0.1,0-0.2,0-0.3,0l-0.1,0l-0.1,0C12,4.8,11.9,4.8,11.9,4.8z"/>
</g>
<g>
	<rect x="4.9" y="28" class="st0" width="2.3" height="30.4"/>
</g>
<g>
	<rect x="11" y="40.2" class="st0" width="2.3" height="18.3"/>
</g>
<g>
	<path class="st0" d="M61.2,23.8l-4.7-3.4c-4.3-3.2-9.1-4-13.6-2.3l-1.6,0.6V6.5l0.7-0.3c5.2-2,10.8-1,15.7,2.6L59,9.6l-4.1,3.9
		L61.2,23.8z M47.6,14.9c2.1,0,4.2,0.4,6.3,1.3L52,13.2l3.4-3.3c-3.8-2.4-7.9-3-11.7-1.8v7.3C45,15.1,46.3,14.9,47.6,14.9z"/>
</g>
<g>
	<path class="st0" d="M43.7,15.2l-1.6-0.7c-3.3-1.5-9-1.5-12.5,0L28,15.2V2.9l0.7-0.3C32.6,0.8,39,0.8,43,2.6l0.7,0.3V15.2z
		 M30.3,4.4v7.4c3.4-1,7.8-1,11.1,0V4.4C38.2,3.3,33.5,3.3,30.3,4.4z"/>
</g>
<g>
	<rect x="28" class="st0" width="2.3" height="19.5"/>
</g>
<g>
	<rect x="28" y="25.6" class="st0" width="2.3" height="32.9"/>
</g>
</svg>
