<?xml version="1.0" encoding="utf-8"?>
<!-- Generator: Adobe Illustrator 22.0.1, SVG Export Plug-In . SVG Version: 6.00 Build 0)  -->
<svg version="1.1" id="Raies" xmlns="http://www.w3.org/2000/svg" xmlns:xlink="http://www.w3.org/1999/xlink" x="0px" y="0px"
	 viewBox="0 0 70.4 77.5" style="enable-background:new 0 0 70.4 77.5;" xml:space="preserve">
<style type="text/css">
	.st0{fill:#808184;}
</style>
<title>2-Raies</title>
<g>
	<path class="st0" d="M36.3,77.5C36.3,77.5,36.3,77.5,36.3,77.5l-2.3,0c-0.7,0-1.2-0.5-1.2-1.2c-0.7-10.5-1.5-20.8-3.5-30.4
		c-1.4,0.5-2.9,0.8-4.4,0.9c-3.2,0.2-6.3-0.6-9-2.3c-6.5-3.9-11.6-10-14.3-17.1c-1-2.5-2.1-6.3-1.2-9.5c1-3.4,4.1-4.2,6.5-4.9
		L8,12.8c2.1-0.6,4.3-1.4,6.4-2.2c4-1.7,7.7-3.9,11.1-6.6c2.6-2.3,6.1-3.7,9.6-4c0.1,0,0.1,0,0.2,0c3.6,0.2,7,1.7,9.7,4
		c3.3,2.6,7.1,4.9,11.1,6.5c2.1,0.9,4.3,1.6,6.4,2.2l0.8,0.2c2.4,0.7,5.8,1.6,6.8,5c0.7,2.4,0.3,5.6-1.2,9.5
		c-2.7,7.1-7.8,13.2-14.4,17.1c-4,2.5-8.9,3-13.3,1.4c-1.7,10-2.9,20.2-3.6,30.3C37.6,77,37,77.5,36.3,77.5z M30.2,43
		c0.2,0,0.4,0,0.5,0.1c0.3,0.2,0.6,0.5,0.7,0.8c2.2,9.7,3.1,20.2,3.8,30.9c0.8-10.3,2-20.6,3.8-30.8c0.1-0.4,0.3-0.7,0.7-0.9
		c0.3-0.2,0.8-0.2,1.1,0c4,1.9,8.7,1.7,12.5-0.7c6.1-3.6,10.8-9.3,13.4-15.9c1.3-3.4,1.6-6.1,1.1-7.9c-0.6-1.9-2.4-2.5-5-3.3
		l-0.8-0.2c-2.3-0.6-4.6-1.4-6.7-2.4c-4.2-1.8-8.1-4.1-11.7-6.9c-2.3-2-5.2-3.2-8.2-3.5c-3,0.2-5.9,1.4-8.1,3.4
		c-3.6,2.9-7.6,5.2-11.8,7c-2.2,0.9-4.4,1.7-6.7,2.3l-1.1,0.3c-2.6,0.7-4.2,1.3-4.8,3.2C2,21.2,3,24.4,3.9,26.6
		c2.5,6.6,7.2,12.2,13.3,15.8c2.3,1.4,4.9,2,7.6,1.9c1.7-0.1,3.4-0.5,4.9-1.3C29.8,43,30,43,30.2,43z"/>
</g>
<g>
	<path class="st0" d="M42.6,53.9c-0.8,0-1.6-0.1-2.4-0.3c-0.7-0.2-1.1-0.8-0.9-1.5s0.8-1.1,1.5-0.9c0.6,0.2,1.3,0.2,2,0.2
		c0.2,0,0.4,0,0.6,0c0.3,0,0.5,0,0.8,0c1.2-0.1,2.4-0.3,3.5-0.9c0.9-0.4,1.4-1.1,1.5-2c-0.1-0.5-0.2-0.9-0.5-1.3
		c-0.4-0.6-0.2-1.4,0.4-1.7c0.6-0.4,1.4-0.2,1.7,0.4c0.5,0.7,0.8,1.6,0.9,2.5l0,0.1l0,0.1c-0.1,1.9-1.3,3.5-3,4.3
		c-1.4,0.7-2.9,1-4.4,1.1c-0.3,0-0.5,0-0.7,0C43.2,53.9,42.9,53.9,42.6,53.9z"/>
</g>
<g>
	<path class="st0" d="M27.8,53.9c0,0-0.1,0-0.1,0c-0.4,0-0.9,0-1.4-0.1c-1.5-0.1-3-0.4-4.4-1.1c-1.7-0.7-2.8-2.4-2.9-4.3l0-0.1
		l0-0.1c0.1-0.9,0.4-1.7,0.9-2.4c0.4-0.6,1.1-0.8,1.7-0.4c0.6,0.4,0.8,1.1,0.4,1.7c-0.3,0.4-0.4,0.9-0.5,1.3c0.1,0.9,0.6,1.7,1.4,2
		c1.1,0.5,2.3,0.8,3.5,0.9c0.5,0,0.9,0.1,1.4,0.1c0.6,0,1.3-0.1,1.9-0.2c0.7-0.2,1.3,0.3,1.5,0.9c0.2,0.7-0.3,1.3-0.9,1.5
		C29.4,53.8,28.6,53.9,27.8,53.9z"/>
</g>
<g>
	<path class="st0" d="M42.6,19.1c-0.6,0-1.1-0.2-1.6-0.5c-1-0.7-1.6-1.8-1.8-3c-0.2-1.2,0.1-2.5,0.8-3.5c0.2-0.2,0.4-0.5,0.6-0.7
		c0.5-0.5,1.3-0.5,1.8,0c0.5,0.5,0.5,1.3,0,1.8c-0.1,0.1-0.2,0.2-0.3,0.3c-0.3,0.5-0.5,1-0.4,1.6c0.1,0.6,0.4,1.1,0.9,1.4
		c0.7,0,1.3,0.6,1.3,1.2C43.8,18.6,43.3,19.1,42.6,19.1C42.6,19.1,42.6,19.1,42.6,19.1z"/>
</g>
<g>
	<path class="st0" d="M27.8,19.1C27.8,19.1,27.8,19.1,27.8,19.1c-0.7,0-1.3-0.6-1.3-1.3s0.6-1.2,1.3-1.2c0.2-0.1,0.3-0.2,0.4-0.3
		c0.8-0.9,0.8-2.2-0.1-3.1c-0.5-0.5-0.5-1.3,0-1.8s1.3-0.5,1.8,0c1.9,1.8,1.9,4.7,0.2,6.6c-0.2,0.2-0.4,0.4-0.6,0.6
		C28.9,19,28.4,19.1,27.8,19.1z"/>
</g>
<g>
	<path class="st0" d="M40.1,44.3c-0.6,0-1.2-0.5-1.2-1.2c-0.1-0.7,0.5-1.3,1.2-1.3c7.7-0.6,13.5-4.3,18-11.6
		c3.5-5.5,5-12.7-0.9-16.5c-0.6-0.4-0.7-1.1-0.4-1.7c0.4-0.6,1.1-0.8,1.7-0.4c4.9,3.2,7.9,10.1,1.7,20
		C55.2,39.5,48.7,43.7,40.1,44.3C40.2,44.3,40.2,44.3,40.1,44.3z"/>
</g>
<g>
	<path class="st0" d="M29.3,44.5C29.2,44.5,29.2,44.5,29.3,44.5c-8.2-0.6-13.9-4.5-19.1-13c-3.9-6.2-5.8-15.2,1.8-20
		c0.6-0.4,1.4-0.2,1.7,0.4c0.4,0.6,0.2,1.4-0.4,1.7c-6,3.8-4.4,11-1,16.6c4.8,7.7,9.9,11.3,17.1,11.8c0.7,0.1,1.2,0.7,1.2,1.3
		C30.5,44.1,29.9,44.5,29.3,44.5z"/>
</g>
</svg>
