<?xml version="1.0" encoding="utf-8"?>
<!-- Generator: Adobe Illustrator 22.0.1, SVG Export Plug-In . SVG Version: 6.00 Build 0)  -->
<svg version="1.1" id="arbres" xmlns="http://www.w3.org/2000/svg" xmlns:xlink="http://www.w3.org/1999/xlink" x="0px" y="0px"
	 viewBox="0 0 77.5 77.5" style="enable-background:new 0 0 77.5 77.5;" xml:space="preserve">
<style type="text/css">
	.st0{fill:#808184;}
</style>
<title>2-Arbres</title>
<g>
	<path class="st0" d="M30.4,56.5c-0.3,0-0.7-0.1-0.9-0.4c-0.2-0.2-0.3-0.5-0.3-0.8c-0.1-0.3-0.3-1.3-0.5-1.9
		c-0.3-1.2-0.5-1.9-0.6-2.3l-3.5-13.6l-8.9-11.1c-0.5-0.5-0.8-1.2-0.8-1.9c0-0.8,0.3-1.5,0.8-2c1.1-1.1,2.9-1.2,4.1-0.1l10.3,9.6
		l5.2-8c0.8-1.3,2.5-1.8,3.9-1c0.7,0.4,1.2,1,1.3,1.8c0.2,0.7,0.1,1.5-0.3,2.1l-5.2,10.9l5.1,10l6.3-4.6L55,30.5
		c0.6-1.4,2.2-2,3.7-1.5c0.7,0.3,1.3,0.8,1.6,1.5s0.3,1.5,0,2.2c0,0,0,0.1,0,0.1l-6,12.2c0,0,0,0.1-0.1,0.1l-5.3,8.7
		c-0.4,0.6-1.1,0.8-1.7,0.4s-0.8-1.1-0.4-1.7l5.3-8.6l5.9-12.1c0-0.1,0-0.2,0-0.2c0-0.1-0.1-0.1-0.2-0.2c-0.2-0.1-0.4,0-0.5,0.2
		c0,0.1-0.1,0.2-0.1,0.2l-8.9,12.7c-0.1,0.1-0.2,0.2-0.3,0.3l-7.6,5.5c-0.3,0.2-0.7,0.3-1,0.2c-0.4-0.1-0.7-0.3-0.8-0.7l-6-11.9
		c-0.2-0.3-0.2-0.8,0-1.1l5.5-11.5c0,0,0-0.1,0-0.1c0.1-0.1,0.1-0.2,0-0.3c0-0.1-0.1-0.2-0.2-0.2c-0.2-0.1-0.4-0.1-0.5,0.1l-6.1,9.4
		c-0.3,0.4-0.7,0.6-1.2,0.6c-0.5-0.1-0.8-0.4-1-0.8L18,24c-0.1-0.1-0.4-0.1-0.5,0c-0.1,0.1-0.1,0.2-0.1,0.2c0,0.1,0,0.2,0.1,0.2
		c0,0,0.1,0.1,0.1,0.1L26.7,36c0.1,0.1,0.2,0.3,0.2,0.5l3.6,14c0,0.1,0,0.2,0,0.3c0.1,0.3,0.3,1.3,0.5,1.9c0.8,2.8,0.8,2.9,0.2,3.5
		C31,56.4,30.7,56.5,30.4,56.5z"/>
</g>
<g>
	<path class="st0" d="M4.2,77.5c-0.5,0-1-0.4-1.2-0.9c-0.2-0.7,0.2-1.4,0.9-1.5c8-2.3,20-3.7,33.1-3.9c0.7,0,1.3,0.5,1.3,1.2
		c0,0.7-0.5,1.3-1.2,1.3c-12.9,0.2-24.7,1.5-32.5,3.8C4.4,77.5,4.3,77.5,4.2,77.5z"/>
</g>
<g>
	<path class="st0" d="M47.9,73.7c-0.6,0-1.1-0.4-1.2-1l-2.9-16.2c-0.1-0.4,0-0.8,0.3-1.1l2.7-3c0.3-0.3,0.7-0.5,1.1-0.4
		c0.4,0.1,0.8,0.4,0.9,0.8c1.1,2.7,3.7,4.5,6.7,4.5c0,0,0,0,0,0c1.3,0,2.6-0.4,3.7-1c0.3-0.2,0.9-0.8,1.3-1.1
		c0.8-0.8,1.3-1.2,1.7-1.3l0.6-0.2c0.2-0.1,0.5-0.1,0.8,0c0.2,0.1,0.4,0.2,0.6,0.3c2.7,0,5.3-1.1,7.2-3c2-2,3.1-4.6,3.1-7.4
		c0-2.4-0.8-4.8-2.4-6.7c-0.4-0.5-0.4-1.3,0.2-1.7c2.9-2.4,3.4-6.7,1.1-9.8c-0.7-0.9-1.7-1.7-2.7-2.2c-0.4-0.2-0.7-0.6-0.7-1.1
		c-0.1-2.9-1.3-5.5-3.3-7.5s-4.8-3-7.6-2.9c-1.6,0-3.3,0.5-4.7,1.2c-1.2,0.7-2.3,1.5-3.2,2.6c-0.3,0.4-0.8,0.5-1.3,0.4l-0.5-0.1
		c-0.3-0.1-0.6-0.3-0.8-0.6c-0.2-0.3-0.2-0.6-0.1-1c0.2-0.7,0.3-1.4,0.4-2.2c0-2.5-1-4.9-2.9-6.7c-1.8-1.8-4.3-2.8-6.8-2.8
		c-2,0-3.9,0.6-5.5,1.8c-1.2,1.4-2.3,2.8-2.9,3.4c-0.5,0.6-0.7,0.9-1.3,0.9c-0.1,0-0.2,0-0.3,0c-0.5-0.1-1-0.2-1.5-0.2c0,0,0,0,0,0
		c-1.6,0-3.1,0.5-4.4,1.5c-0.8,0.6-1.4,1.3-1.9,2.2c-0.3,0.6-1,0.8-1.6,0.5c-0.5-0.3-1.1-0.5-1.7-0.6c-4.3-1.3-9-0.2-12.2,3
		c-3.7,3.7-4.6,9.4-2.1,14.1c0.7,1.4,1.7,2.6,2.9,3.6C7.2,33,7.3,33.5,7.2,34c-0.1,0.2-0.1,0.5-0.2,0.7c-0.2,0.6-0.2,1.3-0.2,1.9
		c0,4.2,3,8,7.2,8.8c0.6,0.1,1,0.6,1,1.2c0.1,2.4,1.2,4.6,3,6.3c1.8,1.6,4.1,2.4,6.6,2.3c1.8-0.1,3.5-0.7,4.9-1.8
		c0.3-0.2,0.8-0.3,1.2-0.2c0.4,0.1,0.7,0.5,0.8,0.9l0.2,0.9c0,0.1,0,0.3,0,0.4l-1.9,17.2c-0.1,0.7-0.7,1.2-1.4,1.1
		c-0.7-0.1-1.2-0.7-1.1-1.4L29,56.5c-1.3,0.6-2.8,1-4.3,1.1c-3.1,0.2-6.1-0.9-8.4-2.9c-2.1-1.9-3.4-4.3-3.8-7.1
		c-4.9-1.4-8.3-5.9-8.3-11.1c0-0.8,0.1-1.6,0.3-2.4c0,0,0-0.1,0-0.1c-1.2-1.1-2.2-2.4-2.9-3.8c-3-5.7-1.9-12.5,2.6-17
		C8.1,9.4,13.7,8,18.9,9.6c0.3,0.1,0.7,0.2,1,0.3c0.6-0.8,1.2-1.4,2-2c1.7-1.3,3.8-2,5.9-2c0,0,0,0,0,0c0.4,0,0.8,0,1.2,0.1
		c0.6-0.7,1.7-2.1,2.9-3.5c0.1-0.1,0.1-0.1,0.2-0.2C34.2,0.8,36.7,0,39.2,0c0,0,0,0,0.1,0c6.6,0,11.9,5.2,12.1,11.8
		c0.6-0.4,1.2-0.8,1.8-1.2C55,9.7,57,9.1,59,9.1c3.5-0.1,6.9,1.2,9.4,3.6c2.4,2.2,3.8,5.2,4.1,8.5c1.2,0.7,2.2,1.5,3,2.6
		c2.8,3.8,2.5,9-0.6,12.4c1.5,2.2,2.2,4.7,2.2,7.3c0,3.5-1.4,6.7-3.8,9.2c-2.5,2.4-5.7,3.8-9.2,3.8c-0.4,0-0.7,0-1.1,0
		c-0.2,0.2-0.4,0.4-0.6,0.6c-0.8,0.7-1.3,1.2-1.7,1.4c-1.5,0.9-3.3,1.4-5,1.4c0,0,0,0,0,0c-3.3,0-6.3-1.7-8.1-4.4l-1.1,1.2l2.7,15.6
		c0.1,0.7-0.3,1.3-1,1.4C48.1,73.7,48,73.7,47.9,73.7z M62.5,56.3C62.5,56.3,62.6,56.3,62.5,56.3L62.5,56.3
		C62.6,56.3,62.5,56.3,62.5,56.3z M62.5,56.3C62.5,56.3,62.5,56.3,62.5,56.3C62.5,56.3,62.5,56.3,62.5,56.3z M62.5,56.3
		C62.5,56.3,62.5,56.3,62.5,56.3C62.5,56.3,62.5,56.3,62.5,56.3z M62.5,56.3L62.5,56.3L62.5,56.3z"/>
</g>
<g>
	<path class="st0" d="M73.8,77.5c-0.1,0-0.2,0-0.3,0C65,75.1,52.5,73.7,39,73.7h-2c-0.7,0-1.2-0.6-1.2-1.2s0.6-1.2,1.2-1.2h2
		c13.7,0,26.5,1.4,35.1,3.9c0.7,0.2,1,0.9,0.9,1.5C74.8,77.2,74.3,77.5,73.8,77.5z"/>
</g>
</svg>
