<?xml version="1.0" encoding="utf-8"?>
<!-- Generator: Adobe Illustrator 22.0.1, SVG Export Plug-In . SVG Version: 6.00 Build 0)  -->
<svg version="1.1" id="Calque_1" xmlns="http://www.w3.org/2000/svg" xmlns:xlink="http://www.w3.org/1999/xlink" x="0px" y="0px"
	 viewBox="0 0 77.5 75.6" style="enable-background:new 0 0 77.5 75.6;" xml:space="preserve">
<style type="text/css">
	.st0{fill:#808285;}
</style>
<title>IconeCalendrier</title>
<g>
	<rect x="1.2" y="22.5" class="st0" width="75" height="2.5"/>
</g>
<g>
	<polygon class="st0" points="23.1,17.5 11.2,17.5 11.2,12.5 13.8,12.5 13.8,15 20.6,15 20.6,12.5 23.1,12.5 	"/>
</g>
<g>
	<polygon class="st0" points="66.2,17.5 54.4,17.5 54.4,12.5 56.9,12.5 56.9,15 63.8,15 63.8,12.5 66.2,12.5 	"/>
</g>
<g>
	<path class="st0" d="M72.5,75.6H5c-2.8,0-5-2.2-5-5V12.5c0-2.8,2.2-5,5-5h6.2V3.1c0-1.7,1.4-3.1,3.1-3.1H20c1.7,0,3.1,1.4,3.1,3.1
		v4.4h31.3V3.1c0-1.7,1.4-3.1,3.1-3.1h5.6c1.7,0,3.1,1.4,3.1,3.1v4.4h6.2c2.8,0,5,2.2,5,5v58.1C77.5,73.4,75.3,75.6,72.5,75.6z
		 M5,10c-1.4,0-2.5,1.1-2.5,2.5v58.1c0,1.4,1.1,2.5,2.5,2.5h67.5c1.4,0,2.5-1.1,2.5-2.5V12.5c0-1.4-1.1-2.5-2.5-2.5h-8.8V3.1
		c0-0.3-0.3-0.6-0.6-0.6h-5.6c-0.3,0-0.6,0.3-0.6,0.6V10H20.6V3.1c0-0.3-0.3-0.6-0.6-0.6h-5.6c-0.3,0-0.6,0.3-0.6,0.6V10H5z"/>
</g>
<g>
	<rect x="27.5" y="37.5" class="st0" width="7.5" height="2.5"/>
</g>
<g>
	<rect x="42.5" y="37.5" class="st0" width="7.5" height="2.5"/>
</g>
<g>
	<rect x="57.5" y="37.5" class="st0" width="7.5" height="2.5"/>
</g>
<g>
	<rect x="12.5" y="46.9" class="st0" width="7.5" height="2.5"/>
</g>
<g>
	<rect x="27.5" y="46.9" class="st0" width="7.5" height="2.5"/>
</g>
<g>
	<rect x="42.5" y="46.9" class="st0" width="7.5" height="2.5"/>
</g>
<g>
	<rect x="57.5" y="46.9" class="st0" width="7.5" height="2.5"/>
</g>
<g>
	<rect x="12.5" y="56.2" class="st0" width="7.5" height="2.5"/>
</g>
<g>
	<rect x="27.5" y="56.2" class="st0" width="7.5" height="2.5"/>
</g>
<g>
	<rect x="42.5" y="56.2" class="st0" width="7.5" height="2.5"/>
</g>
</svg>
