<?xml version="1.0" encoding="utf-8"?>
<!-- Generator: Adobe Illustrator 22.0.1, SVG Export Plug-In . SVG Version: 6.00 Build 0)  -->
<svg version="1.1" id="Calque_1" xmlns="http://www.w3.org/2000/svg" xmlns:xlink="http://www.w3.org/1999/xlink" x="0px" y="0px"
	 viewBox="0 0 64.4 71.7" style="enable-background:new 0 0 64.4 71.7;" xml:space="preserve">
<style type="text/css">
	.st0{fill:none;stroke:#7EBF60;stroke-width:2.3;stroke-miterlimit:10;}
	.st1{fill:#7EBF60;}
</style>
<title>IconeEspeceVert</title>
<g>
	<path class="st0" d="M36.5,38.1"/>
</g>
<g>
	<path class="st1" d="M37,37.5l-2.2-0.7c0.7-2-0.4-4.3-2.5-4.9l0.7-2.2C36.3,30.7,38,34.3,37,37.5z"/>
</g>
<g>
	<path class="st1" d="M13.4,71.6h-0.5c-5.5-0.3-9.8-4.8-9.8-10.2c0-2.7,1.1-5.3,3-7.2c1.9-1.9,4.5-2.9,7.2-3h0.5
		c1.1,0,2.2,0.3,3.2,0.7l3.4-6.2c-1.3-1.1-2.3-2.5-3-4c-2.1-4.6-1.3-9.9,2.1-13.5L13.4,21c-2.3,1.1-5.1,1.1-7.5,0.2
		c-2.3-0.9-4.2-2.7-5.2-5.1c-1-2.3-1-4.9-0.1-7.2c1.4-3.6,4.9-6,8.8-6c0,0,0,0,0,0c1.2,0,2.3,0.2,3.4,0.7c4.9,1.9,7.2,7.4,5.3,12.3
		c-0.4,1.1-1,2.1-1.8,2.9l6,7c0.4-0.2,0.7-0.4,1.1-0.6c2.9-1.4,6.4-1.5,9.5-0.4c0,0,0.1,0,0.1,0.1l4.1-6.7c-1.4-1.4-2.2-3.3-2.2-5.4
		c0-2.1,0.8-4,2.2-5.5C38.6,5.9,40.5,5,42.6,5c0.4,0,0.7,0,1.1,0.1c3.9,0.6,6.7,3.9,6.7,7.7l2.4,0.3c0.7-1.4,1.8-2.5,3.3-3l-0.2-0.7
		c0,0-0.1,0-0.1,0c-1.2-0.2-2.2-0.7-2.9-1.6c-0.8-1-1.2-2.2-1.1-3.4c0.1-1.3,0.7-2.4,1.6-3.2C54.1,0.4,55.2,0,56.4,0
		c0.1,0,0.4,0,0.6,0c1.6,0.2,2.9,1.1,3.6,2.5c0.6,1.1,0.7,2.4,0.3,3.6c-0.3,0.9-0.8,1.7-1.5,2.2l0.4,1.5c0.8,0.2,1.5,0.5,2.1,1
		c1.1,0.8,1.9,1.9,2.2,3.2l0,0c0.9,3.2-0.9,6.6-4,7.6c-0.6,0.2-1.2,0.3-1.8,0.3c-1.3,0-2.5-0.4-3.6-1.2c-1.1-0.8-1.9-1.9-2.2-3.2
		c-0.1-0.3-0.1-0.5-0.2-0.8l-2.8-0.3c-1.3,2.5-3.9,4.1-6.7,4.1c-0.4,0-0.8,0-1.1-0.1c-0.4-0.1-0.9-0.2-1.3-0.3l-4,6.6
		c4,3.1,5.7,8.3,4.3,13.2l3.8,1c0.1-0.2,0.2-0.5,0.4-0.7c1.2-1.8,3.1-3,5.1-3.4c0.5-0.1,1-0.1,1.5-0.1c3.8,0,7,2.7,7.7,6.4
		c0.8,4.3-2,8.4-6.2,9.2c-0.5,0.1-1,0.1-1.5,0.1c-3.8,0-7-2.7-7.7-6.4c-0.1-0.5-0.1-1.1-0.1-1.6L39,43.2c-1.3,1.9-3.1,3.5-5.2,4.5
		c-3,1.4-6.4,1.5-9.5,0.4c-0.3-0.1-0.6-0.2-0.9-0.4l-3.3,6.2c0.3,0.2,0.6,0.5,0.8,0.8c1.7,1.9,2.6,4.3,2.6,6.8c0,2.7-1,5.3-3,7.2
		C18.7,70.6,16.1,71.6,13.4,71.6z M13.3,53.5c-2.1,0-4.1,0.8-5.6,2.3c-1.5,1.5-2.3,3.5-2.3,5.6c0,4.2,3.3,7.7,7.5,7.9l0.4,0
		c2.1,0,4.1-0.8,5.6-2.3c1.5-1.5,2.3-3.5,2.3-5.6c0-1.9-0.7-3.8-2-5.2c-0.4-0.4-0.8-0.8-1.3-1.1l-1-0.7c-1-0.5-2.1-0.8-3.2-0.9
		L13.3,53.5C13.4,53.5,13.4,53.5,13.3,53.5z M45.9,43.6L45.9,43.6c-0.1,0.7-0.1,1.3,0,2c0.5,2.6,2.8,4.5,5.5,4.5c0.3,0,0.7,0,1-0.1
		c3-0.6,5-3.5,4.4-6.5C56.3,40.9,54,39,51.4,39c-0.3,0-0.7,0-1,0.1c-1.5,0.3-2.8,1.1-3.6,2.3c-0.2,0.3-0.4,0.7-0.5,1.2L45.9,43.6
		L45.9,43.6z M23.1,44.9l0.4,0.2c0.5,0.3,1.1,0.5,1.6,0.7c2.5,0.9,5.3,0.8,7.7-0.3c1.9-0.9,3.6-2.4,4.6-4.3l0.4-0.8l0.1,0l0.2-0.6
		c1.6-4.4,0-9.4-4-11.9l-0.4-0.2l-0.8-0.4c-0.3-0.2-0.7-0.3-1-0.4c-2.4-0.9-5.3-0.8-7.7,0.3c-0.6,0.3-1.1,0.6-1.6,0.9l-0.5,0.4
		L21.8,29c-3.2,3-4.2,7.7-2.3,11.7c0.7,1.5,1.8,2.8,3.1,3.8L23.1,44.9z M54.5,15.2v0.5c0,0.4,0.1,0.8,0.2,1.1c0.2,0.8,0.7,1.5,1.4,2
		c0.7,0.5,1.4,0.7,2.2,0.7c0.3,0,0.7-0.1,1.1-0.2c2-0.6,3.1-2.8,2.5-4.8c-0.2-0.8-0.7-1.5-1.4-2c-0.5-0.4-1.2-0.6-1.8-0.7l-0.5-0.1
		L57.6,12c-0.1,0-0.3,0.1-0.4,0.1c-1.3,0.4-2.2,1.3-2.6,2.6L54.5,15.2z M9.5,5.2C6.5,5.2,3.9,7,2.8,9.7c-0.7,1.8-0.7,3.7,0.1,5.5
		C3.6,16.9,5,18.3,6.8,19c2,0.8,4.4,0.6,6.3-0.5l0.6-0.3l0.4-0.4c0.9-0.8,1.6-1.7,2-2.8c1.5-3.7-0.4-7.9-4-9.3
		C11.2,5.4,10.4,5.2,9.5,5.2C9.5,5.2,9.5,5.2,9.5,5.2z M39.7,17.4l0.6,0.3c0.5,0.3,1.1,0.4,1.7,0.5c0.3,0,0.6,0.1,0.8,0.1
		c2.2,0,4.2-1.4,5-3.5l0.3-0.7l0-0.5c0.4-3-1.7-5.7-4.6-6.2c-0.2,0-0.5,0-0.8,0c-1.4,0-2.8,0.6-3.8,1.6s-1.6,2.4-1.6,3.8
		c0,1.7,0.8,3.2,2.1,4.3L39.7,17.4z M56.7,2.3c-0.1,0-0.1,0-0.2,0c-0.7,0-1.2,0.2-1.7,0.6c-0.5,0.4-0.8,1-0.8,1.7
		c0,0.6,0.2,1.3,0.6,1.8C54.9,6.7,55.4,7,56,7.1c0,0,0.1,0,0.3,0l0.7,0l0.5-0.3c0.6-0.3,1-0.8,1.2-1.4s0.1-1.3-0.2-1.8
		C58.2,2.9,57.5,2.4,56.7,2.3C56.7,2.3,56.7,2.3,56.7,2.3z"/>
</g>
</svg>
