<?xml version="1.0" encoding="utf-8"?>
<!-- Generator: Adobe Illustrator 22.0.1, SVG Export Plug-In . SVG Version: 6.00 Build 0)  -->
<svg version="1.1" id="Calque_1" xmlns="http://www.w3.org/2000/svg" xmlns:xlink="http://www.w3.org/1999/xlink" x="0px" y="0px"
	 viewBox="0 0 58.2 57.8" style="enable-background:new 0 0 58.2 57.8;" xml:space="preserve">
<style type="text/css">
	.st0{fill:#1C4B5F;}
</style>
<title>iconeEvenement</title>
<g>
	<path class="st0" d="M4,57.8c-1.7,0-2.6,0-3.3-0.7C0,56.4,0,55.5,0,53.6V11c0-4,3.2-7.2,7.2-7.3c0,0,0,0,0,0H51
		c4,0,7.3,3.3,7.3,7.3v42.4c0,1.7-0.1,3-1,3.7c-0.8,0.6-1.9,0.6-3.7,0.6H4.2C4.1,57.8,4,57.8,4,57.8z M7.3,5.7C4.4,5.7,2,8.1,2,11.1
		v42.6c0,1,0,2,0.1,2.2c0.2,0.1,1.2,0.1,2.1,0.1h49.4c1.2,0,2.2,0,2.5-0.2c0.3-0.2,0.3-1.7,0.3-2.2V11c0-2.9-2.4-5.3-5.4-5.3H7.3z"
		/>
</g>
<g>
	<path class="st0" d="M12,9.8c-0.5,0-1-0.4-1-1V1c0-0.5,0.4-1,1-1s1,0.4,1,1v7.9C12.9,9.4,12.5,9.8,12,9.8z"/>
</g>
<g>
	<path class="st0" d="M23.4,9.8c-0.5,0-1-0.4-1-1V1c0-0.5,0.4-1,1-1s1,0.4,1,1v7.9C24.4,9.4,23.9,9.8,23.4,9.8z"/>
</g>
<g>
	<path class="st0" d="M34.8,9.8c-0.5,0-1-0.4-1-1V1c0-0.5,0.4-1,1-1s1,0.4,1,1v7.9C35.8,9.4,35.4,9.8,34.8,9.8z"/>
</g>
<g>
	<path class="st0" d="M46.3,9.8c-0.5,0-1-0.4-1-1V1c0-0.5,0.4-1,1-1s1,0.4,1,1v7.9C47.2,9.4,46.8,9.8,46.3,9.8z"/>
</g>
<g>
	<path class="st0" d="M57.3,17.8H1.8c-0.5,0-1-0.4-1-1s0.4-1,1-1h55.5c0.5,0,1,0.4,1,1S57.8,17.8,57.3,17.8z"/>
</g>
<g>
	<path class="st0" d="M12,13.1c-0.6,0-1.1-0.2-1.5-0.6c-0.4-0.4-0.7-0.9-0.7-1.5c0-1.2,0.9-2.2,2.1-2.2c0,0,0,0,0.1,0
		c0.6,0,1.1,0.2,1.5,0.6c0.4,0.4,0.7,0.9,0.7,1.5C14.2,12.1,13.2,13.1,12,13.1C12,13.1,12,13.1,12,13.1z M12,10.7
		c-0.2,0-0.3,0.1-0.3,0.3c0,0.1,0,0.2,0.1,0.2c0,0,0.1,0.1,0.2,0.1c0.1,0,0.3-0.1,0.3-0.3c0-0.1,0-0.1-0.1-0.2
		C12.1,10.7,12.1,10.7,12,10.7z"/>
</g>
<g>
	<path class="st0" d="M23.5,13.1c-0.1,0-0.1,0-0.2,0c-0.6-0.1-1.1-0.3-1.5-0.8c-0.4-0.4-0.5-1-0.5-1.6c0.1-1,0.9-1.9,2-2
		c0.6-0.1,1.1,0.1,1.6,0.5s0.7,0.9,0.8,1.5c0.1,1.2-0.8,2.3-2,2.4C23.6,13.1,23.6,13.1,23.5,13.1z M23.5,10.7
		C23.5,10.7,23.5,10.7,23.5,10.7L23.5,10.7c-0.1,0-0.2,0.1-0.3,0.2c0,0.1,0.1,0.3,0.2,0.3c0.2,0,0.3-0.1,0.3-0.3
		C23.8,10.8,23.6,10.7,23.5,10.7z M23.4,9.7L23.4,9.7L23.4,9.7z"/>
</g>
<g>
	<path class="st0" d="M34.8,13.1c-1.2,0-2.2-1-2.2-2.2c0-1.2,1-2.2,2.2-2.2s2.2,1,2.2,2.2C37,12.1,36,13.1,34.8,13.1z M34.8,10.7
		c-0.1,0-0.3,0.1-0.3,0.3c0,0.3,0.5,0.3,0.5,0C35.1,10.8,35,10.7,34.8,10.7z"/>
</g>
<g>
	<path class="st0" d="M46.3,13.1c-1.2,0-2.2-1-2.2-2.2c0-1.2,1-2.2,2.2-2.2c0,0,0,0,0,0c0.6,0,1.1,0.2,1.5,0.6
		c0.4,0.4,0.6,1,0.7,1.5s-0.2,1.1-0.6,1.5C47.4,12.9,46.9,13.1,46.3,13.1C46.3,13.1,46.3,13.1,46.3,13.1z M46.3,10.7
		c-0.1,0-0.3,0.1-0.3,0.3c0,0.1,0.2,0.3,0.3,0.3c0.1,0,0.1,0,0.2-0.1c0,0,0.1-0.1,0.1-0.2c0-0.1,0-0.1-0.1-0.2
		C46.4,10.7,46.4,10.7,46.3,10.7C46.3,10.7,46.3,10.7,46.3,10.7C46.3,10.7,46.3,10.7,46.3,10.7z M46.3,9.7L46.3,9.7L46.3,9.7z"/>
</g>
<g>
	<path class="st0" d="M50.2,24H8.1c-0.5,0-1-0.4-1-1s0.4-1,1-1h42.1c0.5,0,1,0.4,1,1S50.8,24,50.2,24z"/>
</g>
<g>
	<path class="st0" d="M50.2,33.1H8.1c-0.5,0-1-0.4-1-1s0.4-1,1-1h42.1c0.5,0,1,0.4,1,1S50.8,33.1,50.2,33.1z"/>
</g>
<g>
	<path class="st0" d="M50.2,42.2H8.1c-0.5,0-1-0.4-1-1s0.4-1,1-1h42.1c0.5,0,1,0.4,1,1S50.8,42.2,50.2,42.2z"/>
</g>
<g>
	<path class="st0" d="M50.2,51.2H8.1c-0.5,0-1-0.4-1-1s0.4-1,1-1h42.1c0.5,0,1,0.4,1,1S50.8,51.2,50.2,51.2z"/>
</g>
<g>
	<path class="st0" d="M8,51.2C8,51.2,8,51.2,8,51.2c-0.5,0-1-0.4-1-1L7.2,23c0-0.5,0.4-1,1-1c0,0,0,0,0,0c0.5,0,1,0.4,1,1L9,50.3
		C9,50.8,8.5,51.2,8,51.2z"/>
</g>
<g>
	<path class="st0" d="M18.5,51.2c-0.5,0-1-0.4-1-1c0-9,0-18.2,0.1-27.2c0-0.5,0.4-1,1-1c0,0,0,0,0,0c0.5,0,1,0.4,1,1
		c-0.1,9-0.1,18.2-0.1,27.2C19.5,50.8,19.1,51.2,18.5,51.2z"/>
</g>
<g>
	<path class="st0" d="M29.1,51.2c-0.5,0-1-0.4-1-1c0-9,0-18.1,0.1-27.2c0-0.5,0.4-1,1-1c0,0,0,0,0,0c0.5,0,1,0.4,1,1
		C30.1,32.1,30,41.3,30,50.3C30,50.8,29.6,51.2,29.1,51.2z"/>
</g>
<g>
	<path class="st0" d="M39.6,51.2C39.6,51.2,39.6,51.2,39.6,51.2c-0.5,0-1-0.4-1-1c0-9.1,0.1-18.1,0.1-27.2c0-0.5,0.4-1,1-1
		c0,0,0,0,0,0c0.5,0,1,0.4,1,1c0,9.1-0.1,18.1-0.1,27.2C40.5,50.8,40.1,51.2,39.6,51.2z"/>
</g>
<g>
	<path class="st0" d="M50.1,51.3C50.1,51.3,50.1,51.3,50.1,51.3c-0.5,0-1-0.4-1-1l0.1-27.2c0-0.5,0.4-1,1-1c0,0,0,0,0,0
		c0.5,0,1,0.4,1,1l-0.1,27.2C51.1,50.8,50.6,51.3,50.1,51.3z"/>
</g>
</svg>
