<svg id="PrintempsGris" xmlns="http://www.w3.org/2000/svg" viewBox="0 0 46.68 75"><defs><style>.cls-1{fill:#808285;}</style></defs><title>3-Printemps</title><path class="cls-1" d="M41.71,77.27a2.29,2.29,0,0,1-1.66-.69,2.24,2.24,0,0,1-.66-1.64l.16-8.32c-2.72-.08-8.57-.8-12.86-5.1-5.71-5.7-5.12-14-5.09-14.38a.92.92,0,0,1,.84-.83c.35,0,8.67-.62,14.37,5.09a15.93,15.93,0,0,1,3,4.12L40,45.6a10.47,10.47,0,0,1-15.1-14,10.49,10.49,0,0,1-5.28-4.94A10.46,10.46,0,0,1,31.46,11.84,10.47,10.47,0,0,1,52.33,12a10.52,10.52,0,0,1,7.18.89h0a10.46,10.46,0,0,1-.84,19A10.46,10.46,0,0,1,43.38,45.58l.22,9.94a16.17,16.17,0,0,1,3-4.12c5.7-5.71,14-5.12,14.38-5.09a.91.91,0,0,1,.83.83c0,.36.62,8.68-5.08,14.38-4.3,4.3-10.15,5-12.87,5.1L44,74.94a2.27,2.27,0,0,1-.65,1.64A2.3,2.3,0,0,1,41.71,77.27ZM40.48,64.81a.91.91,0,0,1,.64.27.9.9,0,0,1,.27.66L41.21,75a.46.46,0,0,0,.47.48.49.49,0,0,0,.36-.14.45.45,0,0,0,.13-.34L42,65.74a.89.89,0,0,1,.26-.66.91.91,0,0,1,.66-.27c1.81,0,8.1-.19,12.49-4.57C59.55,56.1,60,50.24,60,48.1c-2.14,0-8,.46-12.13,4.58a15.7,15.7,0,0,0-4.16,8.14.91.91,0,0,1-1.8-.16l-.21-9.35-.21,9.35a.9.9,0,0,1-1.79.16,15.7,15.7,0,0,0-4.16-8.14c-4.13-4.12-10-4.56-12.14-4.58,0,2.14.46,8,4.58,12.14,4.39,4.38,10.68,4.61,12.49,4.57Zm2-22.28a.9.9,0,0,1,.69.32A8.65,8.65,0,0,0,56.53,31.92.91.91,0,0,1,57,30.49a8.66,8.66,0,0,0,5.94-11,8.55,8.55,0,0,0-4.28-5.06A8.65,8.65,0,0,0,51.75,14a.9.9,0,0,1-1.21-.89A8.66,8.66,0,1,0,33.24,13a.88.88,0,0,1-.38.76.92.92,0,0,1-.85.12,8.65,8.65,0,1,0-5.43,16.41,1,1,0,0,1,.62.6.91.91,0,0,1-.16.84A8.65,8.65,0,0,0,40.28,42.9a.91.91,0,0,1,1-.24.87.87,0,0,1,.37.28,1,1,0,0,1,.44-.36A1,1,0,0,1,42.43,42.53Zm-.86-6.59a9.87,9.87,0,0,1-3.07-.5,9.67,9.67,0,1,1,3.07.5Zm0-17.71a7.79,7.79,0,0,0-3.55.85,8,8,0,0,0-3.53,10.66,7.95,7.95,0,0,0,10.66,3.53,7.94,7.94,0,0,0-3.58-15Z" transform="translate(-18.5 -2.27)"/></svg>